M48
;DRILL file {KiCad (5.0.1)-4} date 23/12/2019 23:03:52
;FORMAT={-:-/ absolute / metric / decimal}
FMAT,2
METRIC,TZ
T1C0.700
T2C0.762
T3C0.800
T4C1.016
T5C1.200
%
G90
G05
M71
T1
X41.29Y8.75
X41.29Y3.67
T2
X2.345Y26.385
X2.345Y23.845
X2.345Y21.305
X2.345Y18.765
X2.345Y16.225
X31.555Y26.385
X31.555Y23.845
X31.555Y21.305
X31.555Y18.765
T3
X27.32Y6.21
X34.94Y6.21
T4
X41.29Y23.99
X41.29Y21.45
X41.29Y18.91
T5
X3.47Y4.
X6.97Y4.
X10.47Y4.
X13.97Y4.
X17.47Y4.
X20.97Y4.
T0
M30
