G04 #@! TF.GenerationSoftware,KiCad,Pcbnew,(5.0.1)-4*
G04 #@! TF.CreationDate,2020-01-25T15:56:26+01:00*
G04 #@! TF.ProjectId,Vmc_card,566D635F636172642E6B696361645F70,rev?*
G04 #@! TF.SameCoordinates,PX717cbc0PY5d75c80*
G04 #@! TF.FileFunction,Copper,L2,Bot,Signal*
G04 #@! TF.FilePolarity,Positive*
%FSLAX46Y46*%
G04 Gerber Fmt 4.6, Leading zero omitted, Abs format (unit mm)*
G04 Created by KiCad (PCBNEW (5.0.1)-4) date 25/01/2020 15:56:26*
%MOMM*%
%LPD*%
G01*
G04 APERTURE LIST*
G04 #@! TA.AperFunction,ComponentPad*
%ADD10R,2.000000X2.000000*%
G04 #@! TD*
G04 #@! TA.AperFunction,ComponentPad*
%ADD11O,2.000000X2.000000*%
G04 #@! TD*
G04 #@! TA.AperFunction,ComponentPad*
%ADD12R,2.400000X2.400000*%
G04 #@! TD*
G04 #@! TA.AperFunction,ComponentPad*
%ADD13C,2.400000*%
G04 #@! TD*
G04 #@! TA.AperFunction,ViaPad*
%ADD14C,5.000000*%
G04 #@! TD*
G04 #@! TA.AperFunction,Conductor*
%ADD15C,1.270000*%
G04 #@! TD*
G04 #@! TA.AperFunction,Conductor*
%ADD16C,0.254000*%
G04 #@! TD*
G04 APERTURE END LIST*
D10*
G04 #@! TO.P,J2,1*
G04 #@! TO.N,Net-(J1-Pad1)*
X12920000Y4020000D03*
D11*
G04 #@! TO.P,J2,2*
G04 #@! TO.N,+5V*
X15460000Y4020000D03*
G04 #@! TO.P,J2,3*
G04 #@! TO.N,GND*
X18000000Y4020000D03*
G04 #@! TD*
D12*
G04 #@! TO.P,J1,1*
G04 #@! TO.N,Net-(J1-Pad1)*
X15620000Y14180000D03*
D13*
G04 #@! TO.P,J1,2*
G04 #@! TO.N,+5V*
X19120000Y14180000D03*
G04 #@! TO.P,J1,3*
G04 #@! TO.N,GND*
X22620000Y14180000D03*
G04 #@! TO.P,J1,4*
G04 #@! TO.N,+24V*
X26120000Y14180000D03*
G04 #@! TD*
G04 #@! TO.P,J3,2*
G04 #@! TO.N,+24V*
X28320000Y4020000D03*
D12*
G04 #@! TO.P,J3,1*
G04 #@! TO.N,GND*
X24820000Y4020000D03*
G04 #@! TD*
D14*
G04 #@! TO.N,*
X7000000Y10000000D03*
G04 #@! TD*
D15*
G04 #@! TO.N,+5V*
X15460000Y5222081D02*
X15460000Y4020000D01*
X15460000Y6273000D02*
X15460000Y5222081D01*
X19120000Y9933000D02*
X15460000Y6273000D01*
X19120000Y14180000D02*
X19120000Y9933000D01*
G04 #@! TO.N,GND*
X18000000Y4020000D02*
X24820000Y4020000D01*
X22620000Y6220000D02*
X24820000Y4020000D01*
X22620000Y14180000D02*
X22620000Y6220000D01*
G04 #@! TO.N,+24V*
X28320000Y11980000D02*
X28320000Y4020000D01*
X26120000Y14180000D02*
X28320000Y11980000D01*
G04 #@! TO.N,Net-(J1-Pad1)*
X12920000Y11480000D02*
X12920000Y4020000D01*
X15620000Y14180000D02*
X12920000Y11480000D01*
G04 #@! TD*
D16*
G04 #@! TO.N,GND*
G36*
X29873000Y12179087D02*
X29791371Y12589462D01*
X29580355Y12905270D01*
X29446139Y13106139D01*
X29315717Y13193284D01*
X28247000Y14262000D01*
X28247000Y14603087D01*
X27923183Y15384848D01*
X27324848Y15983183D01*
X26543087Y16307000D01*
X25696913Y16307000D01*
X24915152Y15983183D01*
X24370000Y15438031D01*
X23824848Y15983183D01*
X23043087Y16307000D01*
X22196913Y16307000D01*
X21415152Y15983183D01*
X20870000Y15438031D01*
X20324848Y15983183D01*
X19543087Y16307000D01*
X18696913Y16307000D01*
X17915152Y15983183D01*
X17685385Y15753416D01*
X17488330Y16048330D01*
X17181697Y16253215D01*
X16820000Y16325161D01*
X14420000Y16325161D01*
X14058303Y16253215D01*
X13751670Y16048330D01*
X13546785Y15741697D01*
X13474839Y15380000D01*
X13474839Y14243840D01*
X11924286Y12693286D01*
X11793861Y12606139D01*
X11448630Y12089462D01*
X11448629Y12089461D01*
X11327399Y11480000D01*
X11358000Y11326159D01*
X11358001Y5759378D01*
X11251670Y5688330D01*
X11046785Y5381697D01*
X10974839Y5020000D01*
X10974839Y3020000D01*
X11046785Y2658303D01*
X11251670Y2351670D01*
X11558303Y2146785D01*
X11920000Y2074839D01*
X13920000Y2074839D01*
X14281697Y2146785D01*
X14538327Y2318259D01*
X14708122Y2204806D01*
X15270208Y2093000D01*
X15649792Y2093000D01*
X16211878Y2204806D01*
X16730000Y2551005D01*
X17248122Y2204806D01*
X17810208Y2093000D01*
X18189792Y2093000D01*
X18751878Y2204806D01*
X19389289Y2630711D01*
X19815194Y3268122D01*
X19964752Y4020000D01*
X19815194Y4771878D01*
X19389289Y5409289D01*
X18751878Y5835194D01*
X18189792Y5947000D01*
X17810208Y5947000D01*
X17248122Y5835194D01*
X17197108Y5801107D01*
X20115719Y8719718D01*
X20246139Y8806861D01*
X20591371Y9323538D01*
X20682000Y9779159D01*
X20712601Y9933000D01*
X20682000Y10086841D01*
X20682000Y12733969D01*
X20870000Y12921969D01*
X21415152Y12376817D01*
X22196913Y12053000D01*
X23043087Y12053000D01*
X23824848Y12376817D01*
X24370000Y12921969D01*
X24915152Y12376817D01*
X25696913Y12053000D01*
X26038000Y12053000D01*
X26758000Y11332999D01*
X26758001Y5784060D01*
X26688330Y5888330D01*
X26381697Y6093215D01*
X26020000Y6165161D01*
X23620000Y6165161D01*
X23258303Y6093215D01*
X22951670Y5888330D01*
X22746785Y5581697D01*
X22674839Y5220000D01*
X22674839Y2820000D01*
X22746785Y2458303D01*
X22951670Y2151670D01*
X23258303Y1946785D01*
X23620000Y1874839D01*
X26020000Y1874839D01*
X26381697Y1946785D01*
X26688330Y2151670D01*
X26885385Y2446584D01*
X27115152Y2216817D01*
X27896913Y1893000D01*
X28743087Y1893000D01*
X29524848Y2216817D01*
X29873000Y2564969D01*
X29873000Y1127000D01*
X5195232Y1127000D01*
X1127000Y4381585D01*
X1127000Y7873000D01*
X4000000Y7873000D01*
X4048601Y7882667D01*
X4089803Y7910197D01*
X4117333Y7951399D01*
X4127000Y8000000D01*
X4127000Y8026490D01*
X5058760Y7094730D01*
X6318327Y6573000D01*
X7681673Y6573000D01*
X8941240Y7094730D01*
X9905270Y8058760D01*
X10427000Y9318327D01*
X10427000Y10681673D01*
X9905270Y11941240D01*
X8941240Y12905270D01*
X7681673Y13427000D01*
X6318327Y13427000D01*
X5058760Y12905270D01*
X4127000Y11973510D01*
X4127000Y12000000D01*
X4117333Y12048601D01*
X4089803Y12089803D01*
X4048601Y12117333D01*
X4000000Y12127000D01*
X1127000Y12127000D01*
X1127000Y16873000D01*
X29873000Y16873000D01*
X29873000Y12179087D01*
X29873000Y12179087D01*
G37*
X29873000Y12179087D02*
X29791371Y12589462D01*
X29580355Y12905270D01*
X29446139Y13106139D01*
X29315717Y13193284D01*
X28247000Y14262000D01*
X28247000Y14603087D01*
X27923183Y15384848D01*
X27324848Y15983183D01*
X26543087Y16307000D01*
X25696913Y16307000D01*
X24915152Y15983183D01*
X24370000Y15438031D01*
X23824848Y15983183D01*
X23043087Y16307000D01*
X22196913Y16307000D01*
X21415152Y15983183D01*
X20870000Y15438031D01*
X20324848Y15983183D01*
X19543087Y16307000D01*
X18696913Y16307000D01*
X17915152Y15983183D01*
X17685385Y15753416D01*
X17488330Y16048330D01*
X17181697Y16253215D01*
X16820000Y16325161D01*
X14420000Y16325161D01*
X14058303Y16253215D01*
X13751670Y16048330D01*
X13546785Y15741697D01*
X13474839Y15380000D01*
X13474839Y14243840D01*
X11924286Y12693286D01*
X11793861Y12606139D01*
X11448630Y12089462D01*
X11448629Y12089461D01*
X11327399Y11480000D01*
X11358000Y11326159D01*
X11358001Y5759378D01*
X11251670Y5688330D01*
X11046785Y5381697D01*
X10974839Y5020000D01*
X10974839Y3020000D01*
X11046785Y2658303D01*
X11251670Y2351670D01*
X11558303Y2146785D01*
X11920000Y2074839D01*
X13920000Y2074839D01*
X14281697Y2146785D01*
X14538327Y2318259D01*
X14708122Y2204806D01*
X15270208Y2093000D01*
X15649792Y2093000D01*
X16211878Y2204806D01*
X16730000Y2551005D01*
X17248122Y2204806D01*
X17810208Y2093000D01*
X18189792Y2093000D01*
X18751878Y2204806D01*
X19389289Y2630711D01*
X19815194Y3268122D01*
X19964752Y4020000D01*
X19815194Y4771878D01*
X19389289Y5409289D01*
X18751878Y5835194D01*
X18189792Y5947000D01*
X17810208Y5947000D01*
X17248122Y5835194D01*
X17197108Y5801107D01*
X20115719Y8719718D01*
X20246139Y8806861D01*
X20591371Y9323538D01*
X20682000Y9779159D01*
X20712601Y9933000D01*
X20682000Y10086841D01*
X20682000Y12733969D01*
X20870000Y12921969D01*
X21415152Y12376817D01*
X22196913Y12053000D01*
X23043087Y12053000D01*
X23824848Y12376817D01*
X24370000Y12921969D01*
X24915152Y12376817D01*
X25696913Y12053000D01*
X26038000Y12053000D01*
X26758000Y11332999D01*
X26758001Y5784060D01*
X26688330Y5888330D01*
X26381697Y6093215D01*
X26020000Y6165161D01*
X23620000Y6165161D01*
X23258303Y6093215D01*
X22951670Y5888330D01*
X22746785Y5581697D01*
X22674839Y5220000D01*
X22674839Y2820000D01*
X22746785Y2458303D01*
X22951670Y2151670D01*
X23258303Y1946785D01*
X23620000Y1874839D01*
X26020000Y1874839D01*
X26381697Y1946785D01*
X26688330Y2151670D01*
X26885385Y2446584D01*
X27115152Y2216817D01*
X27896913Y1893000D01*
X28743087Y1893000D01*
X29524848Y2216817D01*
X29873000Y2564969D01*
X29873000Y1127000D01*
X5195232Y1127000D01*
X1127000Y4381585D01*
X1127000Y7873000D01*
X4000000Y7873000D01*
X4048601Y7882667D01*
X4089803Y7910197D01*
X4117333Y7951399D01*
X4127000Y8000000D01*
X4127000Y8026490D01*
X5058760Y7094730D01*
X6318327Y6573000D01*
X7681673Y6573000D01*
X8941240Y7094730D01*
X9905270Y8058760D01*
X10427000Y9318327D01*
X10427000Y10681673D01*
X9905270Y11941240D01*
X8941240Y12905270D01*
X7681673Y13427000D01*
X6318327Y13427000D01*
X5058760Y12905270D01*
X4127000Y11973510D01*
X4127000Y12000000D01*
X4117333Y12048601D01*
X4089803Y12089803D01*
X4048601Y12117333D01*
X4000000Y12127000D01*
X1127000Y12127000D01*
X1127000Y16873000D01*
X29873000Y16873000D01*
X29873000Y12179087D01*
G04 #@! TD*
M02*
