G04 #@! TF.GenerationSoftware,KiCad,Pcbnew,(5.0.1)-4*
G04 #@! TF.CreationDate,2019-11-11T17:30:08+01:00*
G04 #@! TF.ProjectId,main_board,6D61696E5F626F6172642E6B69636164,rev?*
G04 #@! TF.SameCoordinates,PX6486dd0PY8198450*
G04 #@! TF.FileFunction,Other,Fab,Top*
%FSLAX46Y46*%
G04 Gerber Fmt 4.6, Leading zero omitted, Abs format (unit mm)*
G04 Created by KiCad (PCBNEW (5.0.1)-4) date 11/11/2019 17:30:08*
%MOMM*%
%LPD*%
G01*
G04 APERTURE LIST*
%ADD10C,0.300000*%
%ADD11C,0.100000*%
%ADD12C,0.150000*%
G04 APERTURE END LIST*
D10*
X50232857Y-6067142D02*
X50232857Y-3067142D01*
X51661428Y-4067142D02*
X51661428Y-6067142D01*
X51661428Y-4352857D02*
X51804285Y-4210000D01*
X52090000Y-4067142D01*
X52518571Y-4067142D01*
X52804285Y-4210000D01*
X52947142Y-4495714D01*
X52947142Y-6067142D01*
X54375714Y-4067142D02*
X54375714Y-6067142D01*
X54375714Y-4352857D02*
X54518571Y-4210000D01*
X54804285Y-4067142D01*
X55232857Y-4067142D01*
X55518571Y-4210000D01*
X55661428Y-4495714D01*
X55661428Y-6067142D01*
X57518571Y-6067142D02*
X57232857Y-5924285D01*
X57090000Y-5781428D01*
X56947142Y-5495714D01*
X56947142Y-4638571D01*
X57090000Y-4352857D01*
X57232857Y-4210000D01*
X57518571Y-4067142D01*
X57947142Y-4067142D01*
X58232857Y-4210000D01*
X58375714Y-4352857D01*
X58518571Y-4638571D01*
X58518571Y-5495714D01*
X58375714Y-5781428D01*
X58232857Y-5924285D01*
X57947142Y-6067142D01*
X57518571Y-6067142D01*
X61375714Y-3210000D02*
X61090000Y-3067142D01*
X60661428Y-3067142D01*
X60232857Y-3210000D01*
X59947142Y-3495714D01*
X59804285Y-3781428D01*
X59661428Y-4352857D01*
X59661428Y-4781428D01*
X59804285Y-5352857D01*
X59947142Y-5638571D01*
X60232857Y-5924285D01*
X60661428Y-6067142D01*
X60947142Y-6067142D01*
X61375714Y-5924285D01*
X61518571Y-5781428D01*
X61518571Y-4781428D01*
X60947142Y-4781428D01*
X62804285Y-6067142D02*
X62804285Y-4067142D01*
X62804285Y-4638571D02*
X62947142Y-4352857D01*
X63090000Y-4210000D01*
X63375714Y-4067142D01*
X63661428Y-4067142D01*
X65804285Y-5924285D02*
X65518571Y-6067142D01*
X64947142Y-6067142D01*
X64661428Y-5924285D01*
X64518571Y-5638571D01*
X64518571Y-4495714D01*
X64661428Y-4210000D01*
X64947142Y-4067142D01*
X65518571Y-4067142D01*
X65804285Y-4210000D01*
X65947142Y-4495714D01*
X65947142Y-4781428D01*
X64518571Y-5067142D01*
X68375714Y-5924285D02*
X68090000Y-6067142D01*
X67518571Y-6067142D01*
X67232857Y-5924285D01*
X67090000Y-5638571D01*
X67090000Y-4495714D01*
X67232857Y-4210000D01*
X67518571Y-4067142D01*
X68090000Y-4067142D01*
X68375714Y-4210000D01*
X68518571Y-4495714D01*
X68518571Y-4781428D01*
X67090000Y-5067142D01*
X69804285Y-4067142D02*
X69804285Y-6067142D01*
X69804285Y-4352857D02*
X69947142Y-4210000D01*
X70232857Y-4067142D01*
X70661428Y-4067142D01*
X70947142Y-4210000D01*
X71090000Y-4495714D01*
X71090000Y-6067142D01*
X72090000Y-3067142D02*
X73804285Y-3067142D01*
X72947142Y-6067142D02*
X72947142Y-3067142D01*
X75947142Y-5924285D02*
X75661428Y-6067142D01*
X75090000Y-6067142D01*
X74804285Y-5924285D01*
X74661428Y-5638571D01*
X74661428Y-4495714D01*
X74804285Y-4210000D01*
X75090000Y-4067142D01*
X75661428Y-4067142D01*
X75947142Y-4210000D01*
X76090000Y-4495714D01*
X76090000Y-4781428D01*
X74661428Y-5067142D01*
X78661428Y-5924285D02*
X78375714Y-6067142D01*
X77804285Y-6067142D01*
X77518571Y-5924285D01*
X77375714Y-5781428D01*
X77232857Y-5495714D01*
X77232857Y-4638571D01*
X77375714Y-4352857D01*
X77518571Y-4210000D01*
X77804285Y-4067142D01*
X78375714Y-4067142D01*
X78661428Y-4210000D01*
X79947142Y-6067142D02*
X79947142Y-3067142D01*
X81232857Y-6067142D02*
X81232857Y-4495714D01*
X81090000Y-4210000D01*
X80804285Y-4067142D01*
X80375714Y-4067142D01*
X80090000Y-4210000D01*
X79947142Y-4352857D01*
X84804285Y-3352857D02*
X84947142Y-3210000D01*
X85232857Y-3067142D01*
X85947142Y-3067142D01*
X86232857Y-3210000D01*
X86375714Y-3352857D01*
X86518571Y-3638571D01*
X86518571Y-3924285D01*
X86375714Y-4352857D01*
X84661428Y-6067142D01*
X86518571Y-6067142D01*
X88375714Y-3067142D02*
X88661428Y-3067142D01*
X88947142Y-3210000D01*
X89090000Y-3352857D01*
X89232857Y-3638571D01*
X89375714Y-4210000D01*
X89375714Y-4924285D01*
X89232857Y-5495714D01*
X89090000Y-5781428D01*
X88947142Y-5924285D01*
X88661428Y-6067142D01*
X88375714Y-6067142D01*
X88090000Y-5924285D01*
X87947142Y-5781428D01*
X87804285Y-5495714D01*
X87661428Y-4924285D01*
X87661428Y-4210000D01*
X87804285Y-3638571D01*
X87947142Y-3352857D01*
X88090000Y-3210000D01*
X88375714Y-3067142D01*
X92232857Y-6067142D02*
X90518571Y-6067142D01*
X91375714Y-6067142D02*
X91375714Y-3067142D01*
X91090000Y-3495714D01*
X90804285Y-3781428D01*
X90518571Y-3924285D01*
X93661428Y-6067142D02*
X94232857Y-6067142D01*
X94518571Y-5924285D01*
X94661428Y-5781428D01*
X94947142Y-5352857D01*
X95090000Y-4781428D01*
X95090000Y-3638571D01*
X94947142Y-3352857D01*
X94804285Y-3210000D01*
X94518571Y-3067142D01*
X93947142Y-3067142D01*
X93661428Y-3210000D01*
X93518571Y-3352857D01*
X93375714Y-3638571D01*
X93375714Y-4352857D01*
X93518571Y-4638571D01*
X93661428Y-4781428D01*
X93947142Y-4924285D01*
X94518571Y-4924285D01*
X94804285Y-4781428D01*
X94947142Y-4638571D01*
X95090000Y-4352857D01*
X46732857Y-10867142D02*
X46732857Y-7867142D01*
X47732857Y-10010000D01*
X48732857Y-7867142D01*
X48732857Y-10867142D01*
X51447142Y-10867142D02*
X51447142Y-9295714D01*
X51304285Y-9010000D01*
X51018571Y-8867142D01*
X50447142Y-8867142D01*
X50161428Y-9010000D01*
X51447142Y-10724285D02*
X51161428Y-10867142D01*
X50447142Y-10867142D01*
X50161428Y-10724285D01*
X50018571Y-10438571D01*
X50018571Y-10152857D01*
X50161428Y-9867142D01*
X50447142Y-9724285D01*
X51161428Y-9724285D01*
X51447142Y-9581428D01*
X52875714Y-10867142D02*
X52875714Y-8867142D01*
X52875714Y-7867142D02*
X52732857Y-8010000D01*
X52875714Y-8152857D01*
X53018571Y-8010000D01*
X52875714Y-7867142D01*
X52875714Y-8152857D01*
X54304285Y-8867142D02*
X54304285Y-10867142D01*
X54304285Y-9152857D02*
X54447142Y-9010000D01*
X54732857Y-8867142D01*
X55161428Y-8867142D01*
X55447142Y-9010000D01*
X55590000Y-9295714D01*
X55590000Y-10867142D01*
X59304285Y-10867142D02*
X59304285Y-7867142D01*
X59304285Y-9010000D02*
X59590000Y-8867142D01*
X60161428Y-8867142D01*
X60447142Y-9010000D01*
X60590000Y-9152857D01*
X60732857Y-9438571D01*
X60732857Y-10295714D01*
X60590000Y-10581428D01*
X60447142Y-10724285D01*
X60161428Y-10867142D01*
X59590000Y-10867142D01*
X59304285Y-10724285D01*
X62447142Y-10867142D02*
X62161428Y-10724285D01*
X62018571Y-10581428D01*
X61875714Y-10295714D01*
X61875714Y-9438571D01*
X62018571Y-9152857D01*
X62161428Y-9010000D01*
X62447142Y-8867142D01*
X62875714Y-8867142D01*
X63161428Y-9010000D01*
X63304285Y-9152857D01*
X63447142Y-9438571D01*
X63447142Y-10295714D01*
X63304285Y-10581428D01*
X63161428Y-10724285D01*
X62875714Y-10867142D01*
X62447142Y-10867142D01*
X66018571Y-10867142D02*
X66018571Y-9295714D01*
X65875714Y-9010000D01*
X65590000Y-8867142D01*
X65018571Y-8867142D01*
X64732857Y-9010000D01*
X66018571Y-10724285D02*
X65732857Y-10867142D01*
X65018571Y-10867142D01*
X64732857Y-10724285D01*
X64590000Y-10438571D01*
X64590000Y-10152857D01*
X64732857Y-9867142D01*
X65018571Y-9724285D01*
X65732857Y-9724285D01*
X66018571Y-9581428D01*
X67447142Y-10867142D02*
X67447142Y-8867142D01*
X67447142Y-9438571D02*
X67590000Y-9152857D01*
X67732857Y-9010000D01*
X68018571Y-8867142D01*
X68304285Y-8867142D01*
X70590000Y-10867142D02*
X70590000Y-7867142D01*
X70590000Y-10724285D02*
X70304285Y-10867142D01*
X69732857Y-10867142D01*
X69447142Y-10724285D01*
X69304285Y-10581428D01*
X69161428Y-10295714D01*
X69161428Y-9438571D01*
X69304285Y-9152857D01*
X69447142Y-9010000D01*
X69732857Y-8867142D01*
X70304285Y-8867142D01*
X70590000Y-9010000D01*
X75590000Y-8867142D02*
X75590000Y-11295714D01*
X75447142Y-11581428D01*
X75304285Y-11724285D01*
X75018571Y-11867142D01*
X74590000Y-11867142D01*
X74304285Y-11724285D01*
X75590000Y-10724285D02*
X75304285Y-10867142D01*
X74732857Y-10867142D01*
X74447142Y-10724285D01*
X74304285Y-10581428D01*
X74161428Y-10295714D01*
X74161428Y-9438571D01*
X74304285Y-9152857D01*
X74447142Y-9010000D01*
X74732857Y-8867142D01*
X75304285Y-8867142D01*
X75590000Y-9010000D01*
X77018571Y-10867142D02*
X77018571Y-8867142D01*
X77018571Y-9438571D02*
X77161428Y-9152857D01*
X77304285Y-9010000D01*
X77590000Y-8867142D01*
X77875714Y-8867142D01*
X80018571Y-10724285D02*
X79732857Y-10867142D01*
X79161428Y-10867142D01*
X78875714Y-10724285D01*
X78732857Y-10438571D01*
X78732857Y-9295714D01*
X78875714Y-9010000D01*
X79161428Y-8867142D01*
X79732857Y-8867142D01*
X80018571Y-9010000D01*
X80161428Y-9295714D01*
X80161428Y-9581428D01*
X78732857Y-9867142D01*
X82590000Y-10724285D02*
X82304285Y-10867142D01*
X81732857Y-10867142D01*
X81447142Y-10724285D01*
X81304285Y-10438571D01*
X81304285Y-9295714D01*
X81447142Y-9010000D01*
X81732857Y-8867142D01*
X82304285Y-8867142D01*
X82590000Y-9010000D01*
X82732857Y-9295714D01*
X82732857Y-9581428D01*
X81304285Y-9867142D01*
X84018571Y-8867142D02*
X84018571Y-10867142D01*
X84018571Y-9152857D02*
X84161428Y-9010000D01*
X84447142Y-8867142D01*
X84875714Y-8867142D01*
X85161428Y-9010000D01*
X85304285Y-9295714D01*
X85304285Y-10867142D01*
X86732857Y-10867142D02*
X86732857Y-7867142D01*
X88018571Y-10867142D02*
X88018571Y-9295714D01*
X87875714Y-9010000D01*
X87590000Y-8867142D01*
X87161428Y-8867142D01*
X86875714Y-9010000D01*
X86732857Y-9152857D01*
X89875714Y-10867142D02*
X89590000Y-10724285D01*
X89447142Y-10581428D01*
X89304285Y-10295714D01*
X89304285Y-9438571D01*
X89447142Y-9152857D01*
X89590000Y-9010000D01*
X89875714Y-8867142D01*
X90304285Y-8867142D01*
X90590000Y-9010000D01*
X90732857Y-9152857D01*
X90875714Y-9438571D01*
X90875714Y-10295714D01*
X90732857Y-10581428D01*
X90590000Y-10724285D01*
X90304285Y-10867142D01*
X89875714Y-10867142D01*
X93447142Y-8867142D02*
X93447142Y-10867142D01*
X92161428Y-8867142D02*
X92161428Y-10438571D01*
X92304285Y-10724285D01*
X92590000Y-10867142D01*
X93018571Y-10867142D01*
X93304285Y-10724285D01*
X93447142Y-10581428D01*
X94732857Y-10724285D02*
X95018571Y-10867142D01*
X95590000Y-10867142D01*
X95875714Y-10724285D01*
X96018571Y-10438571D01*
X96018571Y-10295714D01*
X95875714Y-10010000D01*
X95590000Y-9867142D01*
X95161428Y-9867142D01*
X94875714Y-9724285D01*
X94732857Y-9438571D01*
X94732857Y-9295714D01*
X94875714Y-9010000D01*
X95161428Y-8867142D01*
X95590000Y-8867142D01*
X95875714Y-9010000D01*
X98447142Y-10724285D02*
X98161428Y-10867142D01*
X97590000Y-10867142D01*
X97304285Y-10724285D01*
X97161428Y-10438571D01*
X97161428Y-9295714D01*
X97304285Y-9010000D01*
X97590000Y-8867142D01*
X98161428Y-8867142D01*
X98447142Y-9010000D01*
X98590000Y-9295714D01*
X98590000Y-9581428D01*
X97161428Y-9867142D01*
D11*
G04 #@! TO.C,J6*
X90825000Y30460000D02*
X91375000Y31020000D01*
X90825000Y58440000D02*
X91375000Y57900000D01*
X99675000Y30460000D02*
X99125000Y31020000D01*
X99675000Y58440000D02*
X99125000Y57900000D01*
X99125000Y31020000D02*
X91375000Y31020000D01*
X99675000Y30460000D02*
X90825000Y30460000D01*
X99125000Y57900000D02*
X91375000Y57900000D01*
X99675000Y58440000D02*
X90825000Y58440000D01*
X91375000Y42200000D02*
X90825000Y42200000D01*
X91375000Y46700000D02*
X90825000Y46700000D01*
X91375000Y42200000D02*
X91375000Y31020000D01*
X91375000Y57900000D02*
X91375000Y46700000D01*
X90825000Y58440000D02*
X90825000Y30460000D01*
X99125000Y57900000D02*
X99125000Y31020000D01*
X99675000Y58440000D02*
X99675000Y30460000D01*
G04 #@! TO.C,F1*
X6960000Y3830000D02*
X6960000Y6330000D01*
X6960000Y6330000D02*
X660000Y6330000D01*
X660000Y6330000D02*
X660000Y3830000D01*
X660000Y3830000D02*
X6960000Y3830000D01*
X7620000Y5080000D02*
X6960000Y5080000D01*
X0Y5080000D02*
X660000Y5080000D01*
G04 #@! TO.C,J1*
X21356000Y65679000D02*
X20796000Y66229000D01*
X-6624000Y65679000D02*
X-6084000Y66229000D01*
X21356000Y74529000D02*
X20796000Y73979000D01*
X-6624000Y74529000D02*
X-6084000Y73979000D01*
X20796000Y73979000D02*
X20796000Y66229000D01*
X21356000Y74529000D02*
X21356000Y65679000D01*
X-6084000Y73979000D02*
X-6084000Y66229000D01*
X-6624000Y74529000D02*
X-6624000Y65679000D01*
X9616000Y66229000D02*
X9616000Y65679000D01*
X5116000Y66229000D02*
X5116000Y65679000D01*
X9616000Y66229000D02*
X20796000Y66229000D01*
X-6084000Y66229000D02*
X5116000Y66229000D01*
X-6624000Y65679000D02*
X21356000Y65679000D01*
X-6084000Y73979000D02*
X20796000Y73979000D01*
X-6624000Y74529000D02*
X21356000Y74529000D01*
G04 #@! TO.C,J2*
X29825000Y74148000D02*
X30385000Y73598000D01*
X57805000Y74148000D02*
X57265000Y73598000D01*
X29825000Y65298000D02*
X30385000Y65848000D01*
X57805000Y65298000D02*
X57265000Y65848000D01*
X30385000Y65848000D02*
X30385000Y73598000D01*
X29825000Y65298000D02*
X29825000Y74148000D01*
X57265000Y65848000D02*
X57265000Y73598000D01*
X57805000Y65298000D02*
X57805000Y74148000D01*
X41565000Y73598000D02*
X41565000Y74148000D01*
X46065000Y73598000D02*
X46065000Y74148000D01*
X41565000Y73598000D02*
X30385000Y73598000D01*
X57265000Y73598000D02*
X46065000Y73598000D01*
X57805000Y74148000D02*
X29825000Y74148000D01*
X57265000Y65848000D02*
X30385000Y65848000D01*
X57805000Y65298000D02*
X29825000Y65298000D01*
G04 #@! TO.C,J3*
X63627000Y78994000D02*
X65532000Y78994000D01*
X65532000Y78994000D02*
X65532000Y68834000D01*
X65532000Y68834000D02*
X62992000Y68834000D01*
X62992000Y68834000D02*
X62992000Y78359000D01*
X62992000Y78359000D02*
X63627000Y78994000D01*
G04 #@! TO.C,J7*
X99675000Y26690000D02*
X99675000Y-1290000D01*
X99125000Y26150000D02*
X99125000Y-730000D01*
X90825000Y26690000D02*
X90825000Y-1290000D01*
X91375000Y26150000D02*
X91375000Y14950000D01*
X91375000Y10450000D02*
X91375000Y-730000D01*
X91375000Y14950000D02*
X90825000Y14950000D01*
X91375000Y10450000D02*
X90825000Y10450000D01*
X99675000Y26690000D02*
X90825000Y26690000D01*
X99125000Y26150000D02*
X91375000Y26150000D01*
X99675000Y-1290000D02*
X90825000Y-1290000D01*
X99125000Y-730000D02*
X91375000Y-730000D01*
X99675000Y26690000D02*
X99125000Y26150000D01*
X99675000Y-1290000D02*
X99125000Y-730000D01*
X90825000Y26690000D02*
X91375000Y26150000D01*
X90825000Y-1290000D02*
X91375000Y-730000D01*
G04 #@! TD*
G04 #@! TO.C,J6*
D12*
X101947142Y50390000D02*
X101947142Y50961429D01*
X102090000Y51247143D01*
X102375714Y51532858D01*
X102947142Y51675715D01*
X103947142Y51675715D01*
X104518571Y51532858D01*
X104804285Y51247143D01*
X104947142Y50961429D01*
X104947142Y50390000D01*
X104804285Y50104286D01*
X104518571Y49818572D01*
X103947142Y49675715D01*
X102947142Y49675715D01*
X102375714Y49818572D01*
X102090000Y50104286D01*
X101947142Y50390000D01*
X102947142Y54247143D02*
X104947142Y54247143D01*
X102947142Y52961429D02*
X104518571Y52961429D01*
X104804285Y53104286D01*
X104947142Y53390000D01*
X104947142Y53818572D01*
X104804285Y54104286D01*
X104661428Y54247143D01*
X102947142Y55247143D02*
X102947142Y56390000D01*
X101947142Y55675715D02*
X104518571Y55675715D01*
X104804285Y55818572D01*
X104947142Y56104286D01*
X104947142Y56390000D01*
X102947142Y57390000D02*
X105947142Y57390000D01*
X103090000Y57390000D02*
X102947142Y57675715D01*
X102947142Y58247143D01*
X103090000Y58532858D01*
X103232857Y58675715D01*
X103518571Y58818572D01*
X104375714Y58818572D01*
X104661428Y58675715D01*
X104804285Y58532858D01*
X104947142Y58247143D01*
X104947142Y57675715D01*
X104804285Y57390000D01*
X102947142Y61390000D02*
X104947142Y61390000D01*
X102947142Y60104286D02*
X104518571Y60104286D01*
X104804285Y60247143D01*
X104947142Y60532858D01*
X104947142Y60961429D01*
X104804285Y61247143D01*
X104661428Y61390000D01*
X102947142Y62390000D02*
X102947142Y63532858D01*
X101947142Y62818572D02*
X104518571Y62818572D01*
X104804285Y62961429D01*
X104947142Y63247143D01*
X104947142Y63532858D01*
X104947142Y66104286D02*
X104947142Y64390000D01*
X104947142Y65247143D02*
X101947142Y65247143D01*
X102375714Y64961429D01*
X102661428Y64675715D01*
X102804285Y64390000D01*
X94916666Y44997620D02*
X94916666Y44283334D01*
X94869047Y44140477D01*
X94773809Y44045239D01*
X94630952Y43997620D01*
X94535714Y43997620D01*
X95821428Y44997620D02*
X95630952Y44997620D01*
X95535714Y44950000D01*
X95488095Y44902381D01*
X95392857Y44759524D01*
X95345238Y44569048D01*
X95345238Y44188096D01*
X95392857Y44092858D01*
X95440476Y44045239D01*
X95535714Y43997620D01*
X95726190Y43997620D01*
X95821428Y44045239D01*
X95869047Y44092858D01*
X95916666Y44188096D01*
X95916666Y44426191D01*
X95869047Y44521429D01*
X95821428Y44569048D01*
X95726190Y44616667D01*
X95535714Y44616667D01*
X95440476Y44569048D01*
X95392857Y44521429D01*
X95345238Y44426191D01*
G04 #@! TO.C,XA1*
X4637619Y43556667D02*
X5589999Y43556667D01*
X4447142Y42985239D02*
X5113809Y44985239D01*
X5780476Y42985239D01*
X6447142Y42985239D02*
X6447142Y44318572D01*
X6447142Y43937620D02*
X6542380Y44128096D01*
X6637619Y44223334D01*
X6828095Y44318572D01*
X7018571Y44318572D01*
X8542380Y42985239D02*
X8542380Y44985239D01*
X8542380Y43080477D02*
X8351904Y42985239D01*
X7970952Y42985239D01*
X7780476Y43080477D01*
X7685238Y43175715D01*
X7589999Y43366191D01*
X7589999Y43937620D01*
X7685238Y44128096D01*
X7780476Y44223334D01*
X7970952Y44318572D01*
X8351904Y44318572D01*
X8542380Y44223334D01*
X10351904Y44318572D02*
X10351904Y42985239D01*
X9494761Y44318572D02*
X9494761Y43270953D01*
X9589999Y43080477D01*
X9780476Y42985239D01*
X10066190Y42985239D01*
X10256666Y43080477D01*
X10351904Y43175715D01*
X11304285Y42985239D02*
X11304285Y44318572D01*
X11304285Y44985239D02*
X11209047Y44890000D01*
X11304285Y44794762D01*
X11399523Y44890000D01*
X11304285Y44985239D01*
X11304285Y44794762D01*
X12256666Y44318572D02*
X12256666Y42985239D01*
X12256666Y44128096D02*
X12351904Y44223334D01*
X12542380Y44318572D01*
X12828095Y44318572D01*
X13018571Y44223334D01*
X13113809Y44032858D01*
X13113809Y42985239D01*
X14351904Y42985239D02*
X14161428Y43080477D01*
X14066190Y43175715D01*
X13970952Y43366191D01*
X13970952Y43937620D01*
X14066190Y44128096D01*
X14161428Y44223334D01*
X14351904Y44318572D01*
X14637619Y44318572D01*
X14828095Y44223334D01*
X14923333Y44128096D01*
X15018571Y43937620D01*
X15018571Y43366191D01*
X14923333Y43175715D01*
X14828095Y43080477D01*
X14637619Y42985239D01*
X14351904Y42985239D01*
X15399523Y42794762D02*
X16923333Y42794762D01*
X17399523Y42985239D02*
X17399523Y44985239D01*
X18066190Y43556667D01*
X18732857Y44985239D01*
X18732857Y42985239D01*
X20447142Y43080477D02*
X20256666Y42985239D01*
X19875714Y42985239D01*
X19685238Y43080477D01*
X19589999Y43270953D01*
X19589999Y44032858D01*
X19685238Y44223334D01*
X19875714Y44318572D01*
X20256666Y44318572D01*
X20447142Y44223334D01*
X20542380Y44032858D01*
X20542380Y43842381D01*
X19589999Y43651905D01*
X22256666Y44318572D02*
X22256666Y42699524D01*
X22161428Y42509048D01*
X22066190Y42413810D01*
X21875714Y42318572D01*
X21589999Y42318572D01*
X21399523Y42413810D01*
X22256666Y43080477D02*
X22066190Y42985239D01*
X21685238Y42985239D01*
X21494761Y43080477D01*
X21399523Y43175715D01*
X21304285Y43366191D01*
X21304285Y43937620D01*
X21399523Y44128096D01*
X21494761Y44223334D01*
X21685238Y44318572D01*
X22066190Y44318572D01*
X22256666Y44223334D01*
X24066190Y42985239D02*
X24066190Y44032858D01*
X23970952Y44223334D01*
X23780476Y44318572D01*
X23399523Y44318572D01*
X23209047Y44223334D01*
X24066190Y43080477D02*
X23875714Y42985239D01*
X23399523Y42985239D01*
X23209047Y43080477D01*
X23113809Y43270953D01*
X23113809Y43461429D01*
X23209047Y43651905D01*
X23399523Y43747143D01*
X23875714Y43747143D01*
X24066190Y43842381D01*
X24923333Y44794762D02*
X25018571Y44890000D01*
X25209047Y44985239D01*
X25685238Y44985239D01*
X25875714Y44890000D01*
X25970952Y44794762D01*
X26066190Y44604286D01*
X26066190Y44413810D01*
X25970952Y44128096D01*
X24828095Y42985239D01*
X26066190Y42985239D01*
X27875714Y44985239D02*
X26923333Y44985239D01*
X26828095Y44032858D01*
X26923333Y44128096D01*
X27113809Y44223334D01*
X27589999Y44223334D01*
X27780476Y44128096D01*
X27875714Y44032858D01*
X27970952Y43842381D01*
X27970952Y43366191D01*
X27875714Y43175715D01*
X27780476Y43080477D01*
X27589999Y42985239D01*
X27113809Y42985239D01*
X26923333Y43080477D01*
X26828095Y43175715D01*
X29685238Y44985239D02*
X29304285Y44985239D01*
X29113809Y44890000D01*
X29018571Y44794762D01*
X28828095Y44509048D01*
X28732857Y44128096D01*
X28732857Y43366191D01*
X28828095Y43175715D01*
X28923333Y43080477D01*
X29113809Y42985239D01*
X29494761Y42985239D01*
X29685238Y43080477D01*
X29780476Y43175715D01*
X29875714Y43366191D01*
X29875714Y43842381D01*
X29780476Y44032858D01*
X29685238Y44128096D01*
X29494761Y44223334D01*
X29113809Y44223334D01*
X28923333Y44128096D01*
X28828095Y44032858D01*
X28732857Y43842381D01*
X31113809Y44985239D02*
X31304285Y44985239D01*
X31494761Y44890000D01*
X31589999Y44794762D01*
X31685238Y44604286D01*
X31780476Y44223334D01*
X31780476Y43747143D01*
X31685238Y43366191D01*
X31589999Y43175715D01*
X31494761Y43080477D01*
X31304285Y42985239D01*
X31113809Y42985239D01*
X30923333Y43080477D01*
X30828095Y43175715D01*
X30732857Y43366191D01*
X30637619Y43747143D01*
X30637619Y44223334D01*
X30732857Y44604286D01*
X30828095Y44794762D01*
X30923333Y44890000D01*
X31113809Y44985239D01*
X32161428Y42794762D02*
X33685238Y42794762D01*
X34066190Y43080477D02*
X34351904Y42985239D01*
X34828095Y42985239D01*
X35018571Y43080477D01*
X35113809Y43175715D01*
X35209047Y43366191D01*
X35209047Y43556667D01*
X35113809Y43747143D01*
X35018571Y43842381D01*
X34828095Y43937620D01*
X34447142Y44032858D01*
X34256666Y44128096D01*
X34161428Y44223334D01*
X34066190Y44413810D01*
X34066190Y44604286D01*
X34161428Y44794762D01*
X34256666Y44890000D01*
X34447142Y44985239D01*
X34923333Y44985239D01*
X35209047Y44890000D01*
X36066190Y42985239D02*
X36066190Y44985239D01*
X36923333Y42985239D02*
X36923333Y44032858D01*
X36828095Y44223334D01*
X36637619Y44318572D01*
X36351904Y44318572D01*
X36161428Y44223334D01*
X36066190Y44128096D01*
X37875714Y42985239D02*
X37875714Y44318572D01*
X37875714Y44985239D02*
X37780476Y44890000D01*
X37875714Y44794762D01*
X37970952Y44890000D01*
X37875714Y44985239D01*
X37875714Y44794762D01*
X39589999Y43080477D02*
X39399523Y42985239D01*
X39018571Y42985239D01*
X38828095Y43080477D01*
X38732857Y43270953D01*
X38732857Y44032858D01*
X38828095Y44223334D01*
X39018571Y44318572D01*
X39399523Y44318572D01*
X39589999Y44223334D01*
X39685238Y44032858D01*
X39685238Y43842381D01*
X38732857Y43651905D01*
X40828095Y42985239D02*
X40637619Y43080477D01*
X40542380Y43270953D01*
X40542380Y44985239D01*
X42447142Y42985239D02*
X42447142Y44985239D01*
X42447142Y43080477D02*
X42256666Y42985239D01*
X41875714Y42985239D01*
X41685238Y43080477D01*
X41589999Y43175715D01*
X41494761Y43366191D01*
X41494761Y43937620D01*
X41589999Y44128096D01*
X41685238Y44223334D01*
X41875714Y44318572D01*
X42256666Y44318572D01*
X42447142Y44223334D01*
G04 #@! TO.C,F1*
X1304285Y11032858D02*
X637619Y11032858D01*
X637619Y9985239D02*
X637619Y11985239D01*
X1590000Y11985239D01*
X3209047Y11318572D02*
X3209047Y9985239D01*
X2351904Y11318572D02*
X2351904Y10270953D01*
X2447142Y10080477D01*
X2637619Y9985239D01*
X2923333Y9985239D01*
X3113809Y10080477D01*
X3209047Y10175715D01*
X4066190Y10080477D02*
X4256666Y9985239D01*
X4637619Y9985239D01*
X4828095Y10080477D01*
X4923333Y10270953D01*
X4923333Y10366191D01*
X4828095Y10556667D01*
X4637619Y10651905D01*
X4351904Y10651905D01*
X4161428Y10747143D01*
X4066190Y10937620D01*
X4066190Y11032858D01*
X4161428Y11223334D01*
X4351904Y11318572D01*
X4637619Y11318572D01*
X4828095Y11223334D01*
X6542380Y10080477D02*
X6351904Y9985239D01*
X5970952Y9985239D01*
X5780476Y10080477D01*
X5685238Y10270953D01*
X5685238Y11032858D01*
X5780476Y11223334D01*
X5970952Y11318572D01*
X6351904Y11318572D01*
X6542380Y11223334D01*
X6637619Y11032858D01*
X6637619Y10842381D01*
X5685238Y10651905D01*
X3143333Y8032858D02*
X2476666Y8032858D01*
X2476666Y6985239D02*
X2476666Y8985239D01*
X3429047Y8985239D01*
X5238571Y6985239D02*
X4095714Y6985239D01*
X4667142Y6985239D02*
X4667142Y8985239D01*
X4476666Y8699524D01*
X4286190Y8509048D01*
X4095714Y8413810D01*
G04 #@! TO.C,J1*
X1232857Y76532858D02*
X1232857Y79532858D01*
X2661428Y78532858D02*
X2661428Y76532858D01*
X2661428Y78247143D02*
X2804285Y78390000D01*
X3090000Y78532858D01*
X3518571Y78532858D01*
X3804285Y78390000D01*
X3947142Y78104286D01*
X3947142Y76532858D01*
X5375714Y78532858D02*
X5375714Y75532858D01*
X5375714Y78390000D02*
X5661428Y78532858D01*
X6232857Y78532858D01*
X6518571Y78390000D01*
X6661428Y78247143D01*
X6804285Y77961429D01*
X6804285Y77104286D01*
X6661428Y76818572D01*
X6518571Y76675715D01*
X6232857Y76532858D01*
X5661428Y76532858D01*
X5375714Y76675715D01*
X9375714Y78532858D02*
X9375714Y76532858D01*
X8090000Y78532858D02*
X8090000Y76961429D01*
X8232857Y76675715D01*
X8518571Y76532858D01*
X8947142Y76532858D01*
X9232857Y76675715D01*
X9375714Y76818572D01*
X10375714Y78532858D02*
X11518571Y78532858D01*
X10804285Y79532858D02*
X10804285Y76961429D01*
X10947142Y76675715D01*
X11232857Y76532858D01*
X11518571Y76532858D01*
X14090000Y76532858D02*
X12375714Y76532858D01*
X13232857Y76532858D02*
X13232857Y79532858D01*
X12947142Y79104286D01*
X12661428Y78818572D01*
X12375714Y78675715D01*
X6818380Y69770667D02*
X7532666Y69770667D01*
X7675523Y69723048D01*
X7770761Y69627810D01*
X7818380Y69484953D01*
X7818380Y69389715D01*
X7818380Y70770667D02*
X7818380Y70199239D01*
X7818380Y70484953D02*
X6818380Y70484953D01*
X6961238Y70389715D01*
X7056476Y70294477D01*
X7104095Y70199239D01*
G04 #@! TO.C,J2*
X37232857Y76532858D02*
X37232857Y79532858D01*
X38661428Y78532858D02*
X38661428Y76532858D01*
X38661428Y78247143D02*
X38804285Y78390000D01*
X39090000Y78532858D01*
X39518571Y78532858D01*
X39804285Y78390000D01*
X39947142Y78104286D01*
X39947142Y76532858D01*
X41375714Y78532858D02*
X41375714Y75532858D01*
X41375714Y78390000D02*
X41661428Y78532858D01*
X42232857Y78532858D01*
X42518571Y78390000D01*
X42661428Y78247143D01*
X42804285Y77961429D01*
X42804285Y77104286D01*
X42661428Y76818572D01*
X42518571Y76675715D01*
X42232857Y76532858D01*
X41661428Y76532858D01*
X41375714Y76675715D01*
X45375714Y78532858D02*
X45375714Y76532858D01*
X44090000Y78532858D02*
X44090000Y76961429D01*
X44232857Y76675715D01*
X44518571Y76532858D01*
X44947142Y76532858D01*
X45232857Y76675715D01*
X45375714Y76818572D01*
X46375714Y78532858D02*
X47518571Y78532858D01*
X46804285Y79532858D02*
X46804285Y76961429D01*
X46947142Y76675715D01*
X47232857Y76532858D01*
X47518571Y76532858D01*
X48375714Y79247143D02*
X48518571Y79390000D01*
X48804285Y79532858D01*
X49518571Y79532858D01*
X49804285Y79390000D01*
X49947142Y79247143D01*
X50090000Y78961429D01*
X50090000Y78675715D01*
X49947142Y78247143D01*
X48232857Y76532858D01*
X50090000Y76532858D01*
X43267380Y69389667D02*
X43981666Y69389667D01*
X44124523Y69342048D01*
X44219761Y69246810D01*
X44267380Y69103953D01*
X44267380Y69008715D01*
X43362619Y69818239D02*
X43315000Y69865858D01*
X43267380Y69961096D01*
X43267380Y70199191D01*
X43315000Y70294429D01*
X43362619Y70342048D01*
X43457857Y70389667D01*
X43553095Y70389667D01*
X43695952Y70342048D01*
X44267380Y69770620D01*
X44267380Y70389667D01*
G04 #@! TO.C,J3*
X69375714Y63961429D02*
X69375714Y64961429D01*
X70947142Y65390000D02*
X70947142Y63961429D01*
X67947142Y63961429D01*
X67947142Y65390000D01*
X70804285Y66532858D02*
X70947142Y66818572D01*
X70947142Y67390000D01*
X70804285Y67675715D01*
X70518571Y67818572D01*
X70375714Y67818572D01*
X70090000Y67675715D01*
X69947142Y67390000D01*
X69947142Y66961429D01*
X69804285Y66675715D01*
X69518571Y66532858D01*
X69375714Y66532858D01*
X69090000Y66675715D01*
X68947142Y66961429D01*
X68947142Y67390000D01*
X69090000Y67675715D01*
X68947142Y69104286D02*
X71947142Y69104286D01*
X69090000Y69104286D02*
X68947142Y69390000D01*
X68947142Y69961429D01*
X69090000Y70247143D01*
X69232857Y70390000D01*
X69518571Y70532858D01*
X70375714Y70532858D01*
X70661428Y70390000D01*
X70804285Y70247143D01*
X70947142Y69961429D01*
X70947142Y69390000D01*
X70804285Y69104286D01*
X69232857Y72247143D02*
X69090000Y71961429D01*
X68947142Y71818572D01*
X68661428Y71675715D01*
X68518571Y71675715D01*
X68232857Y71818572D01*
X68090000Y71961429D01*
X67947142Y72247143D01*
X67947142Y72818572D01*
X68090000Y73104286D01*
X68232857Y73247143D01*
X68518571Y73390000D01*
X68661428Y73390000D01*
X68947142Y73247143D01*
X69090000Y73104286D01*
X69232857Y72818572D01*
X69232857Y72247143D01*
X69375714Y71961429D01*
X69518571Y71818572D01*
X69804285Y71675715D01*
X70375714Y71675715D01*
X70661428Y71818572D01*
X70804285Y71961429D01*
X70947142Y72247143D01*
X70947142Y72818572D01*
X70804285Y73104286D01*
X70661428Y73247143D01*
X70375714Y73390000D01*
X69804285Y73390000D01*
X69518571Y73247143D01*
X69375714Y73104286D01*
X69232857Y72818572D01*
X68232857Y74532858D02*
X68090000Y74675715D01*
X67947142Y74961429D01*
X67947142Y75675715D01*
X68090000Y75961429D01*
X68232857Y76104286D01*
X68518571Y76247143D01*
X68804285Y76247143D01*
X69232857Y76104286D01*
X70947142Y74390000D01*
X70947142Y76247143D01*
X67947142Y78818572D02*
X67947142Y78247143D01*
X68090000Y77961429D01*
X68232857Y77818572D01*
X68661428Y77532858D01*
X69232857Y77390000D01*
X70375714Y77390000D01*
X70661428Y77532858D01*
X70804285Y77675715D01*
X70947142Y77961429D01*
X70947142Y78532858D01*
X70804285Y78818572D01*
X70661428Y78961429D01*
X70375714Y79104286D01*
X69661428Y79104286D01*
X69375714Y78961429D01*
X69232857Y78818572D01*
X69090000Y78532858D01*
X69090000Y77961429D01*
X69232857Y77675715D01*
X69375714Y77532858D01*
X69661428Y77390000D01*
X67947142Y81675715D02*
X67947142Y81104286D01*
X68090000Y80818572D01*
X68232857Y80675715D01*
X68661428Y80390000D01*
X69232857Y80247143D01*
X70375714Y80247143D01*
X70661428Y80390000D01*
X70804285Y80532858D01*
X70947142Y80818572D01*
X70947142Y81390000D01*
X70804285Y81675715D01*
X70661428Y81818572D01*
X70375714Y81961429D01*
X69661428Y81961429D01*
X69375714Y81818572D01*
X69232857Y81675715D01*
X69090000Y81390000D01*
X69090000Y80818572D01*
X69232857Y80532858D01*
X69375714Y80390000D01*
X69661428Y80247143D01*
X63714380Y73580667D02*
X64428666Y73580667D01*
X64571523Y73533048D01*
X64666761Y73437810D01*
X64714380Y73294953D01*
X64714380Y73199715D01*
X63714380Y73961620D02*
X63714380Y74580667D01*
X64095333Y74247334D01*
X64095333Y74390191D01*
X64142952Y74485429D01*
X64190571Y74533048D01*
X64285809Y74580667D01*
X64523904Y74580667D01*
X64619142Y74533048D01*
X64666761Y74485429D01*
X64714380Y74390191D01*
X64714380Y74104477D01*
X64666761Y74009239D01*
X64619142Y73961620D01*
G04 #@! TO.C,J4*
X12168571Y-2467142D02*
X13168571Y-5467142D01*
X14168571Y-2467142D01*
X15168571Y-5467142D02*
X15168571Y-3467142D01*
X15168571Y-2467142D02*
X15025714Y-2610000D01*
X15168571Y-2752857D01*
X15311428Y-2610000D01*
X15168571Y-2467142D01*
X15168571Y-2752857D01*
X16597142Y-3467142D02*
X16597142Y-5467142D01*
X16597142Y-3752857D02*
X16740000Y-3610000D01*
X17025714Y-3467142D01*
X17454285Y-3467142D01*
X17740000Y-3610000D01*
X17882857Y-3895714D01*
X17882857Y-5467142D01*
X14906666Y3087620D02*
X14906666Y2373334D01*
X14859047Y2230477D01*
X14763809Y2135239D01*
X14620952Y2087620D01*
X14525714Y2087620D01*
X15811428Y2754286D02*
X15811428Y2087620D01*
X15573333Y3135239D02*
X15335238Y2420953D01*
X15954285Y2420953D01*
G04 #@! TO.C,J5*
X-2838572Y-8467142D02*
X-2838572Y-5467142D01*
X-1410000Y-8467142D02*
X-1410000Y-5467142D01*
X304285Y-8467142D01*
X304285Y-5467142D01*
X5447142Y-5467142D02*
X4018571Y-5467142D01*
X3875714Y-6895714D01*
X4018571Y-6752857D01*
X4304285Y-6610000D01*
X5018571Y-6610000D01*
X5304285Y-6752857D01*
X5447142Y-6895714D01*
X5590000Y-7181428D01*
X5590000Y-7895714D01*
X5447142Y-8181428D01*
X5304285Y-8324285D01*
X5018571Y-8467142D01*
X4304285Y-8467142D01*
X4018571Y-8324285D01*
X3875714Y-8181428D01*
X6447142Y-5467142D02*
X7447142Y-8467142D01*
X8447142Y-5467142D01*
X4590000Y39532858D02*
X4590000Y37390000D01*
X4447142Y36961429D01*
X4161428Y36675715D01*
X3732857Y36532858D01*
X3447142Y36532858D01*
X7447142Y39532858D02*
X6018571Y39532858D01*
X5875714Y38104286D01*
X6018571Y38247143D01*
X6304285Y38390000D01*
X7018571Y38390000D01*
X7304285Y38247143D01*
X7447142Y38104286D01*
X7590000Y37818572D01*
X7590000Y37104286D01*
X7447142Y36818572D01*
X7304285Y36675715D01*
X7018571Y36532858D01*
X6304285Y36532858D01*
X6018571Y36675715D01*
X5875714Y36818572D01*
G04 #@! TO.C,J7*
X101947142Y-610000D02*
X101947142Y-38571D01*
X102090000Y247143D01*
X102375714Y532858D01*
X102947142Y675715D01*
X103947142Y675715D01*
X104518571Y532858D01*
X104804285Y247143D01*
X104947142Y-38571D01*
X104947142Y-610000D01*
X104804285Y-895714D01*
X104518571Y-1181428D01*
X103947142Y-1324285D01*
X102947142Y-1324285D01*
X102375714Y-1181428D01*
X102090000Y-895714D01*
X101947142Y-610000D01*
X102947142Y3247143D02*
X104947142Y3247143D01*
X102947142Y1961429D02*
X104518571Y1961429D01*
X104804285Y2104286D01*
X104947142Y2390000D01*
X104947142Y2818572D01*
X104804285Y3104286D01*
X104661428Y3247143D01*
X102947142Y4247143D02*
X102947142Y5390000D01*
X101947142Y4675715D02*
X104518571Y4675715D01*
X104804285Y4818572D01*
X104947142Y5104286D01*
X104947142Y5390000D01*
X102947142Y6390000D02*
X105947142Y6390000D01*
X103090000Y6390000D02*
X102947142Y6675715D01*
X102947142Y7247143D01*
X103090000Y7532858D01*
X103232857Y7675715D01*
X103518571Y7818572D01*
X104375714Y7818572D01*
X104661428Y7675715D01*
X104804285Y7532858D01*
X104947142Y7247143D01*
X104947142Y6675715D01*
X104804285Y6390000D01*
X102947142Y10390000D02*
X104947142Y10390000D01*
X102947142Y9104286D02*
X104518571Y9104286D01*
X104804285Y9247143D01*
X104947142Y9532858D01*
X104947142Y9961429D01*
X104804285Y10247143D01*
X104661428Y10390000D01*
X102947142Y11390000D02*
X102947142Y12532858D01*
X101947142Y11818572D02*
X104518571Y11818572D01*
X104804285Y11961429D01*
X104947142Y12247143D01*
X104947142Y12532858D01*
X102232857Y13390000D02*
X102090000Y13532858D01*
X101947142Y13818572D01*
X101947142Y14532858D01*
X102090000Y14818572D01*
X102232857Y14961429D01*
X102518571Y15104286D01*
X102804285Y15104286D01*
X103232857Y14961429D01*
X104947142Y13247143D01*
X104947142Y15104286D01*
X94916666Y13247620D02*
X94916666Y12533334D01*
X94869047Y12390477D01*
X94773809Y12295239D01*
X94630952Y12247620D01*
X94535714Y12247620D01*
X95297619Y13247620D02*
X95964285Y13247620D01*
X95535714Y12247620D01*
G04 #@! TD*
M02*
