G04 #@! TF.GenerationSoftware,KiCad,Pcbnew,(5.0.1)-4*
G04 #@! TF.CreationDate,2019-10-28T18:08:41+01:00*
G04 #@! TF.ProjectId,main_board,6D61696E5F626F6172642E6B69636164,rev?*
G04 #@! TF.SameCoordinates,PX52f83c0PY8f0d180*
G04 #@! TF.FileFunction,Copper,L2,Bot,Signal*
G04 #@! TF.FilePolarity,Positive*
%FSLAX46Y46*%
G04 Gerber Fmt 4.6, Leading zero omitted, Abs format (unit mm)*
G04 Created by KiCad (PCBNEW (5.0.1)-4) date 28/10/2019 18:08:41*
%MOMM*%
%LPD*%
G01*
G04 APERTURE LIST*
G04 #@! TA.AperFunction,ComponentPad*
%ADD10O,1.727200X1.727200*%
G04 #@! TD*
G04 #@! TA.AperFunction,ComponentPad*
%ADD11R,1.727200X1.727200*%
G04 #@! TD*
G04 #@! TA.AperFunction,ComponentPad*
%ADD12C,1.600000*%
G04 #@! TD*
G04 #@! TA.AperFunction,ComponentPad*
%ADD13O,1.600000X1.600000*%
G04 #@! TD*
G04 #@! TA.AperFunction,ComponentPad*
%ADD14R,1.700000X1.700000*%
G04 #@! TD*
G04 #@! TA.AperFunction,ComponentPad*
%ADD15O,1.700000X1.700000*%
G04 #@! TD*
G04 #@! TA.AperFunction,ComponentPad*
%ADD16C,3.500120*%
G04 #@! TD*
G04 #@! TA.AperFunction,ComponentPad*
%ADD17R,3.500120X3.500120*%
G04 #@! TD*
G04 #@! TA.AperFunction,ViaPad*
%ADD18C,2.400000*%
G04 #@! TD*
G04 #@! TA.AperFunction,Conductor*
%ADD19C,0.600000*%
G04 #@! TD*
G04 #@! TA.AperFunction,Conductor*
%ADD20C,0.254000*%
G04 #@! TD*
G04 APERTURE END LIST*
D10*
G04 #@! TO.P,J6,16*
G04 #@! TO.N,GND*
X114930000Y49670000D03*
G04 #@! TO.P,J6,15*
G04 #@! TO.N,+3V3*
X112390000Y49670000D03*
G04 #@! TO.P,J6,14*
G04 #@! TO.N,Net-(J6-Pad14)*
X114930000Y52210000D03*
G04 #@! TO.P,J6,13*
G04 #@! TO.N,Net-(J6-Pad13)*
X112390000Y52210000D03*
G04 #@! TO.P,J6,12*
G04 #@! TO.N,Net-(J6-Pad12)*
X114930000Y54750000D03*
G04 #@! TO.P,J6,11*
G04 #@! TO.N,Net-(J6-Pad11)*
X112390000Y54750000D03*
G04 #@! TO.P,J6,10*
G04 #@! TO.N,Net-(J6-Pad10)*
X114930000Y57290000D03*
G04 #@! TO.P,J6,9*
G04 #@! TO.N,Net-(J6-Pad9)*
X112390000Y57290000D03*
G04 #@! TO.P,J6,8*
G04 #@! TO.N,Net-(J6-Pad8)*
X114930000Y59830000D03*
G04 #@! TO.P,J6,7*
G04 #@! TO.N,Net-(J6-Pad7)*
X112390000Y59830000D03*
G04 #@! TO.P,J6,6*
G04 #@! TO.N,Net-(J6-Pad6)*
X114930000Y62370000D03*
G04 #@! TO.P,J6,5*
G04 #@! TO.N,Net-(J6-Pad5)*
X112390000Y62370000D03*
G04 #@! TO.P,J6,4*
G04 #@! TO.N,Net-(J6-Pad4)*
X114930000Y64910000D03*
G04 #@! TO.P,J6,3*
G04 #@! TO.N,Net-(J6-Pad3)*
X112390000Y64910000D03*
G04 #@! TO.P,J6,2*
G04 #@! TO.N,+5V*
X114930000Y67450000D03*
D11*
G04 #@! TO.P,J6,1*
G04 #@! TO.N,GND*
X112390000Y67450000D03*
G04 #@! TD*
D10*
G04 #@! TO.P,XA1,VIN*
G04 #@! TO.N,Net-(J4-Pad2)*
X45145001Y23124999D03*
G04 #@! TO.P,XA1,GND3*
G04 #@! TO.N,GND*
X42605001Y23124999D03*
G04 #@! TO.P,XA1,GND2*
X40065001Y23124999D03*
G04 #@! TO.P,XA1,5V1*
G04 #@! TO.N,+5V*
X37525001Y23124999D03*
G04 #@! TO.P,XA1,3V3*
G04 #@! TO.N,+3V3*
X34985001Y23124999D03*
G04 #@! TO.P,XA1,RST1*
G04 #@! TO.N,Net-(XA1-PadRST1)*
X32445001Y23124999D03*
G04 #@! TO.P,XA1,D21*
G04 #@! TO.N,SCL2*
X85785001Y71384999D03*
G04 #@! TO.P,XA1,D20*
G04 #@! TO.N,SDA2*
X83245001Y71384999D03*
G04 #@! TO.P,XA1,D19*
G04 #@! TO.N,Net-(J3-Pad4)*
X80705001Y71384999D03*
G04 #@! TO.P,XA1,D18*
G04 #@! TO.N,Net-(J3-Pad3)*
X78165001Y71384999D03*
G04 #@! TO.P,XA1,D17*
G04 #@! TO.N,RX1*
X75625001Y71384999D03*
G04 #@! TO.P,XA1,D16*
G04 #@! TO.N,TX1*
X73085001Y71384999D03*
G04 #@! TO.P,XA1,D15*
G04 #@! TO.N,RX2*
X70545001Y71384999D03*
G04 #@! TO.P,XA1,D14*
G04 #@! TO.N,TX2*
X68005001Y71384999D03*
G04 #@! TO.P,XA1,SCL*
G04 #@! TO.N,SCL1*
X18221001Y71384999D03*
G04 #@! TO.P,XA1,SDA*
G04 #@! TO.N,SDA1*
X20761001Y71384999D03*
G04 #@! TO.P,XA1,AREF*
G04 #@! TO.N,Net-(XA1-PadAREF)*
X23301001Y71384999D03*
G04 #@! TO.P,XA1,A6*
G04 #@! TO.N,A1.0*
X65465001Y23124999D03*
G04 #@! TO.P,XA1,A7*
G04 #@! TO.N,A1.1*
X68005001Y23124999D03*
G04 #@! TO.P,XA1,A8*
G04 #@! TO.N,A1.2*
X73085001Y23124999D03*
G04 #@! TO.P,XA1,A9*
G04 #@! TO.N,A1.3*
X75625001Y23124999D03*
G04 #@! TO.P,XA1,A10*
G04 #@! TO.N,A1.4*
X78165001Y23124999D03*
G04 #@! TO.P,XA1,A11*
G04 #@! TO.N,A2.0*
X80705001Y23124999D03*
G04 #@! TO.P,XA1,A12*
G04 #@! TO.N,A2.1*
X83245001Y23124999D03*
G04 #@! TO.P,XA1,A13*
G04 #@! TO.N,A2.2*
X85785001Y23124999D03*
G04 #@! TO.P,XA1,A14*
G04 #@! TO.N,A2.3*
X88325001Y23124999D03*
G04 #@! TO.P,XA1,A15*
G04 #@! TO.N,A2.4*
X90865001Y23124999D03*
G04 #@! TO.P,XA1,5V3*
G04 #@! TO.N,+5V*
X93405001Y71384999D03*
G04 #@! TO.P,XA1,5V4*
X95945001Y71384999D03*
G04 #@! TO.P,XA1,D22*
G04 #@! TO.N,I2.0*
X93405001Y68844999D03*
G04 #@! TO.P,XA1,D23*
G04 #@! TO.N,Net-(J6-Pad12)*
X95945001Y68844999D03*
G04 #@! TO.P,XA1,D24*
G04 #@! TO.N,I2.1*
X93405001Y66304999D03*
G04 #@! TO.P,XA1,D25*
G04 #@! TO.N,Net-(J6-Pad10)*
X95945001Y66304999D03*
G04 #@! TO.P,XA1,D26*
G04 #@! TO.N,I2.2*
X93405001Y63764999D03*
G04 #@! TO.P,XA1,D27*
G04 #@! TO.N,Net-(J6-Pad8)*
X95945001Y63764999D03*
G04 #@! TO.P,XA1,D28*
G04 #@! TO.N,I2.3*
X93405001Y61224999D03*
G04 #@! TO.P,XA1,D29*
G04 #@! TO.N,Net-(J6-Pad6)*
X95945001Y61224999D03*
G04 #@! TO.P,XA1,D30*
G04 #@! TO.N,I2.4*
X93405001Y58684999D03*
G04 #@! TO.P,XA1,D31*
G04 #@! TO.N,Net-(J6-Pad4)*
X95945001Y58684999D03*
G04 #@! TO.P,XA1,D32*
G04 #@! TO.N,I1.0*
X93405001Y56144999D03*
G04 #@! TO.P,XA1,D33*
G04 #@! TO.N,Net-(J6-Pad5)*
X95945001Y56144999D03*
G04 #@! TO.P,XA1,D34*
G04 #@! TO.N,I1.1*
X93405001Y53604999D03*
G04 #@! TO.P,XA1,D35*
G04 #@! TO.N,Net-(J6-Pad7)*
X95945001Y53604999D03*
G04 #@! TO.P,XA1,D36*
G04 #@! TO.N,I1.2*
X93405001Y51064999D03*
G04 #@! TO.P,XA1,D37*
G04 #@! TO.N,Net-(J6-Pad9)*
X95945001Y51064999D03*
G04 #@! TO.P,XA1,D38*
G04 #@! TO.N,I1.3*
X93405001Y48524999D03*
G04 #@! TO.P,XA1,D39*
G04 #@! TO.N,Net-(J6-Pad11)*
X95945001Y48524999D03*
G04 #@! TO.P,XA1,D40*
G04 #@! TO.N,I1.4*
X93405001Y45984999D03*
G04 #@! TO.P,XA1,D41*
G04 #@! TO.N,Net-(J6-Pad13)*
X95945001Y45984999D03*
G04 #@! TO.P,XA1,D42*
G04 #@! TO.N,Net-(J7-Pad4)*
X93405001Y43444999D03*
G04 #@! TO.P,XA1,D43*
G04 #@! TO.N,Net-(J7-Pad3)*
X95945001Y43444999D03*
G04 #@! TO.P,XA1,D44*
G04 #@! TO.N,Net-(J6-Pad3)*
X93405001Y40904999D03*
G04 #@! TO.P,XA1,D45*
G04 #@! TO.N,Net-(J7-Pad5)*
X95945001Y40904999D03*
G04 #@! TO.P,XA1,D46*
G04 #@! TO.N,Net-(J7-Pad6)*
X93405001Y38364999D03*
G04 #@! TO.P,XA1,D47*
G04 #@! TO.N,Net-(J7-Pad7)*
X95945001Y38364999D03*
G04 #@! TO.P,XA1,D48*
G04 #@! TO.N,Net-(J7-Pad8)*
X93405001Y35824999D03*
G04 #@! TO.P,XA1,D49*
G04 #@! TO.N,Net-(J7-Pad9)*
X95945001Y35824999D03*
G04 #@! TO.P,XA1,D50*
G04 #@! TO.N,Net-(J7-Pad10)*
X93405001Y33284999D03*
G04 #@! TO.P,XA1,D51*
G04 #@! TO.N,Net-(J7-Pad11)*
X95945001Y33284999D03*
G04 #@! TO.P,XA1,D52*
G04 #@! TO.N,Net-(J7-Pad12)*
X93405001Y30744999D03*
G04 #@! TO.P,XA1,D53*
G04 #@! TO.N,Net-(J7-Pad13)*
X95945001Y30744999D03*
G04 #@! TO.P,XA1,GND5*
G04 #@! TO.N,GND*
X93405001Y28204999D03*
G04 #@! TO.P,XA1,GND6*
X95945001Y28204999D03*
G04 #@! TD*
D12*
G04 #@! TO.P,F1,1*
G04 #@! TO.N,+5V*
X26030000Y19190000D03*
D13*
G04 #@! TO.P,F1,2*
G04 #@! TO.N,Net-(F1-Pad2)*
X18410000Y19190000D03*
G04 #@! TD*
D10*
G04 #@! TO.P,J1,16*
G04 #@! TO.N,I1.3*
X34666000Y85484000D03*
G04 #@! TO.P,J1,15*
G04 #@! TO.N,I1.4*
X34666000Y82944000D03*
G04 #@! TO.P,J1,14*
G04 #@! TO.N,I1.2*
X32126000Y85484000D03*
G04 #@! TO.P,J1,13*
G04 #@! TO.N,A1.4*
X32126000Y82944000D03*
G04 #@! TO.P,J1,12*
G04 #@! TO.N,I1.1*
X29586000Y85484000D03*
G04 #@! TO.P,J1,11*
G04 #@! TO.N,A1.3*
X29586000Y82944000D03*
G04 #@! TO.P,J1,10*
G04 #@! TO.N,I1.0*
X27046000Y85484000D03*
G04 #@! TO.P,J1,9*
G04 #@! TO.N,A1.2*
X27046000Y82944000D03*
G04 #@! TO.P,J1,8*
G04 #@! TO.N,SDA1*
X24506000Y85484000D03*
G04 #@! TO.P,J1,7*
G04 #@! TO.N,A1.1*
X24506000Y82944000D03*
G04 #@! TO.P,J1,6*
G04 #@! TO.N,SCL1*
X21966000Y85484000D03*
G04 #@! TO.P,J1,5*
G04 #@! TO.N,A1.0*
X21966000Y82944000D03*
G04 #@! TO.P,J1,4*
G04 #@! TO.N,TX1*
X19426000Y85484000D03*
G04 #@! TO.P,J1,3*
G04 #@! TO.N,+5V*
X19426000Y82944000D03*
G04 #@! TO.P,J1,2*
G04 #@! TO.N,RX1*
X16886000Y85484000D03*
D11*
G04 #@! TO.P,J1,1*
G04 #@! TO.N,GND*
X16886000Y82944000D03*
G04 #@! TD*
D10*
G04 #@! TO.P,J2,16*
G04 #@! TO.N,I2.3*
X53335000Y82563000D03*
G04 #@! TO.P,J2,15*
G04 #@! TO.N,I2.4*
X53335000Y85103000D03*
G04 #@! TO.P,J2,14*
G04 #@! TO.N,I2.2*
X55875000Y82563000D03*
G04 #@! TO.P,J2,13*
G04 #@! TO.N,A2.0*
X55875000Y85103000D03*
G04 #@! TO.P,J2,12*
G04 #@! TO.N,I2.1*
X58415000Y82563000D03*
G04 #@! TO.P,J2,11*
G04 #@! TO.N,A2.1*
X58415000Y85103000D03*
G04 #@! TO.P,J2,10*
G04 #@! TO.N,I2.0*
X60955000Y82563000D03*
G04 #@! TO.P,J2,9*
G04 #@! TO.N,A2.2*
X60955000Y85103000D03*
G04 #@! TO.P,J2,8*
G04 #@! TO.N,TX2*
X63495000Y82563000D03*
G04 #@! TO.P,J2,7*
G04 #@! TO.N,A2.3*
X63495000Y85103000D03*
G04 #@! TO.P,J2,6*
G04 #@! TO.N,RX2*
X66035000Y82563000D03*
G04 #@! TO.P,J2,5*
G04 #@! TO.N,A2.4*
X66035000Y85103000D03*
G04 #@! TO.P,J2,4*
G04 #@! TO.N,SDA2*
X68575000Y82563000D03*
G04 #@! TO.P,J2,3*
G04 #@! TO.N,+5V*
X68575000Y85103000D03*
G04 #@! TO.P,J2,2*
G04 #@! TO.N,SCL2*
X71115000Y82563000D03*
D11*
G04 #@! TO.P,J2,1*
G04 #@! TO.N,GND*
X71115000Y85103000D03*
G04 #@! TD*
D14*
G04 #@! TO.P,J3,1*
G04 #@! TO.N,GND*
X82672000Y91834000D03*
D15*
G04 #@! TO.P,J3,2*
G04 #@! TO.N,+5V*
X82672000Y89294000D03*
G04 #@! TO.P,J3,3*
G04 #@! TO.N,Net-(J3-Pad3)*
X82672000Y86754000D03*
G04 #@! TO.P,J3,4*
G04 #@! TO.N,Net-(J3-Pad4)*
X82672000Y84214000D03*
G04 #@! TD*
D16*
G04 #@! TO.P,J4,2*
G04 #@! TO.N,Net-(J4-Pad2)*
X36190000Y16650000D03*
D17*
G04 #@! TO.P,J4,1*
G04 #@! TO.N,GND*
X31110000Y16650000D03*
G04 #@! TD*
G04 #@! TO.P,J5,1*
G04 #@! TO.N,GND*
X23490000Y14110000D03*
D16*
G04 #@! TO.P,J5,2*
G04 #@! TO.N,Net-(F1-Pad2)*
X18410000Y14110000D03*
G04 #@! TD*
D11*
G04 #@! TO.P,J7,1*
G04 #@! TO.N,GND*
X112390000Y35700000D03*
D10*
G04 #@! TO.P,J7,2*
G04 #@! TO.N,+5V*
X114930000Y35700000D03*
G04 #@! TO.P,J7,3*
G04 #@! TO.N,Net-(J7-Pad3)*
X112390000Y33160000D03*
G04 #@! TO.P,J7,4*
G04 #@! TO.N,Net-(J7-Pad4)*
X114930000Y33160000D03*
G04 #@! TO.P,J7,5*
G04 #@! TO.N,Net-(J7-Pad5)*
X112390000Y30620000D03*
G04 #@! TO.P,J7,6*
G04 #@! TO.N,Net-(J7-Pad6)*
X114930000Y30620000D03*
G04 #@! TO.P,J7,7*
G04 #@! TO.N,Net-(J7-Pad7)*
X112390000Y28080000D03*
G04 #@! TO.P,J7,8*
G04 #@! TO.N,Net-(J7-Pad8)*
X114930000Y28080000D03*
G04 #@! TO.P,J7,9*
G04 #@! TO.N,Net-(J7-Pad9)*
X112390000Y25540000D03*
G04 #@! TO.P,J7,10*
G04 #@! TO.N,Net-(J7-Pad10)*
X114930000Y25540000D03*
G04 #@! TO.P,J7,11*
G04 #@! TO.N,Net-(J7-Pad11)*
X112390000Y23000000D03*
G04 #@! TO.P,J7,12*
G04 #@! TO.N,Net-(J7-Pad12)*
X114930000Y23000000D03*
G04 #@! TO.P,J7,13*
G04 #@! TO.N,Net-(J7-Pad13)*
X112390000Y20460000D03*
G04 #@! TO.P,J7,14*
G04 #@! TO.N,Net-(J7-Pad14)*
X114930000Y20460000D03*
G04 #@! TO.P,J7,15*
G04 #@! TO.N,+3V3*
X112390000Y17920000D03*
G04 #@! TO.P,J7,16*
G04 #@! TO.N,GND*
X114930000Y17920000D03*
G04 #@! TD*
D18*
G04 #@! TO.N,+5V*
X117470000Y78880000D03*
X117216000Y89294000D03*
X18410000Y42050000D03*
X5710000Y42050000D03*
X121280000Y33160000D03*
X121565635Y41065635D03*
G04 #@! TO.N,GND*
X109850000Y78880000D03*
X109596000Y91834000D03*
X16886000Y77864000D03*
X17140000Y62370000D03*
X123820000Y57290000D03*
X113660000Y94120000D03*
X121280000Y94120000D03*
X123820000Y48400000D03*
X18410000Y35700000D03*
X5710000Y35700000D03*
X102783998Y44036002D03*
X102230000Y23000000D03*
G04 #@! TO.N,RX1*
X28443000Y68847000D03*
X78132583Y67786341D03*
G04 #@! TO.N,TX1*
X31237000Y66053000D03*
X74544000Y66633999D03*
G04 #@! TO.N,+3V3*
X104770000Y20460000D03*
X104770000Y48400000D03*
X107310000Y17920000D03*
X31518130Y26810000D03*
G04 #@! TO.N,Net-(J6-Pad3)*
X107310000Y64910000D03*
X47620000Y33160000D03*
X47620000Y8989000D03*
X107310000Y43320000D03*
G04 #@! TO.N,Net-(J7-Pad4)*
X51430000Y38240000D03*
X51430000Y9030000D03*
G04 #@! TO.N,Net-(J7-Pad6)*
X55240000Y33160000D03*
X55240000Y9030000D03*
G04 #@! TO.N,Net-(J7-Pad8)*
X59050000Y33160000D03*
X59050000Y9030000D03*
G04 #@! TO.N,Net-(J7-Pad10)*
X62860000Y33160000D03*
X62860000Y9030000D03*
G04 #@! TD*
D19*
G04 #@! TO.N,+5V*
X19426000Y81722686D02*
X19426000Y82944000D01*
X114930000Y67450000D02*
X114930000Y76340000D01*
X114930000Y76340000D02*
X117470000Y78880000D01*
X95945001Y71384999D02*
X93405001Y71384999D01*
X83775999Y88444001D02*
X90800000Y81420000D01*
X82672000Y89294000D02*
X83521999Y88444001D01*
X83521999Y88444001D02*
X83775999Y88444001D01*
X90800000Y73990000D02*
X93405001Y71384999D01*
X90800000Y81420000D02*
X90800000Y73990000D01*
X82672000Y89294000D02*
X117216000Y89294000D01*
X117216000Y89294000D02*
X117216000Y97676000D01*
X116962000Y97930000D02*
X67940000Y97930000D01*
X117216000Y97676000D02*
X116962000Y97930000D01*
X68575000Y97295000D02*
X68575000Y85103000D01*
X67940000Y97930000D02*
X68575000Y97295000D01*
X20429184Y81722686D02*
X34920000Y67231870D01*
X19426000Y81722686D02*
X20429184Y81722686D01*
X37525001Y24346313D02*
X37525001Y23124999D01*
X34920000Y26951314D02*
X37525001Y24346313D01*
X34920000Y26810000D02*
X34920000Y26951314D01*
X29840000Y30620000D02*
X34920000Y30620000D01*
X26030000Y26810000D02*
X29840000Y30620000D01*
X34920000Y67231870D02*
X34920000Y30620000D01*
X34920000Y30620000D02*
X34920000Y26951314D01*
X26030000Y19190000D02*
X26030000Y26810000D01*
X29840000Y30620000D02*
X18410000Y42050000D01*
X5710000Y42050000D02*
X5710000Y63640000D01*
X66556920Y99313080D02*
X68575000Y97295000D01*
X9276152Y99313080D02*
X66556920Y99313080D01*
X599990Y90636918D02*
X9276152Y99313080D01*
X599990Y68750010D02*
X599990Y90636918D01*
X5710000Y63640000D02*
X599990Y68750010D01*
X114930000Y35700000D02*
X118740000Y35700000D01*
X118740000Y35700000D02*
X121280000Y33160000D01*
X122864491Y89294000D02*
X117216000Y89294000D01*
X121565635Y41065635D02*
X121565635Y50509633D01*
X121565635Y50509633D02*
X126360000Y55303998D01*
X126360000Y55303998D02*
X126360000Y61801509D01*
X126360000Y61801509D02*
X126510050Y61951559D01*
X126510050Y61951559D02*
X126510050Y85648441D01*
X126510050Y85648441D02*
X122864491Y89294000D01*
G04 #@! TO.N,Net-(F1-Pad2)*
X18410000Y19190000D02*
X18410000Y14110000D01*
G04 #@! TO.N,GND*
X112390000Y67450000D02*
X112390000Y76340000D01*
X112390000Y76340000D02*
X109850000Y78880000D01*
X82672000Y91834000D02*
X109596000Y91834000D01*
X74491000Y85103000D02*
X71115000Y85103000D01*
X82672000Y91834000D02*
X81222000Y91834000D01*
X81222000Y91834000D02*
X74491000Y85103000D01*
X16886000Y82944000D02*
X16886000Y77864000D01*
X114930000Y49670000D02*
X114930000Y45860000D01*
X106593998Y45860000D02*
X104770000Y44036002D01*
X114930000Y45860000D02*
X106593998Y45860000D01*
X110926400Y35700000D02*
X112390000Y35700000D01*
X104770000Y41856400D02*
X110926400Y35700000D01*
X104770000Y44036002D02*
X104770000Y41856400D01*
X95945001Y28204999D02*
X93405001Y28204999D01*
X114930000Y16698686D02*
X114930000Y17920000D01*
X113611314Y15380000D02*
X114930000Y16698686D01*
X104770000Y15380000D02*
X113611314Y15380000D01*
X95945001Y28204999D02*
X95945001Y24204999D01*
X100960000Y19190000D02*
X104770000Y15380000D01*
X31110000Y19000060D02*
X31110000Y16650000D01*
X31510001Y19400061D02*
X31110000Y19000060D01*
X36558193Y19400061D02*
X31510001Y19400061D01*
X40065001Y22906869D02*
X36558193Y19400061D01*
X40065001Y23124999D02*
X40065001Y22906869D01*
X40065001Y23124999D02*
X42605001Y23124999D01*
X23490000Y15504002D02*
X23490000Y14110000D01*
X17140000Y62370000D02*
X15900010Y61130010D01*
X25840060Y14110000D02*
X23490000Y14110000D01*
X26894001Y15163941D02*
X25840060Y14110000D01*
X26894001Y16119999D02*
X26894001Y15163941D01*
X27424002Y16650000D02*
X26894001Y16119999D01*
X31110000Y16650000D02*
X27424002Y16650000D01*
X23490000Y16774002D02*
X23490000Y14110000D01*
X17170010Y23093992D02*
X23490000Y16774002D01*
X15900010Y23093992D02*
X17170010Y23093992D01*
X15900010Y61130010D02*
X15900010Y35700000D01*
X114930000Y49670000D02*
X120010000Y49670000D01*
X120010000Y49670000D02*
X120010000Y53480000D01*
X120010000Y53480000D02*
X123820000Y57290000D01*
X110795999Y93033999D02*
X113660000Y94120000D01*
X109596000Y91834000D02*
X110795999Y93033999D01*
X127810060Y87589940D02*
X127810060Y52390060D01*
X121280000Y94120000D02*
X127810060Y87589940D01*
X127810060Y52390060D02*
X123820000Y48400000D01*
X15900010Y35700000D02*
X18410000Y35700000D01*
X15900010Y35700000D02*
X15900010Y23093992D01*
X125270060Y46949940D02*
X123820000Y48400000D01*
X125270060Y5533078D02*
X125270060Y46949940D01*
X121086962Y1349980D02*
X125270060Y5533078D01*
X16631529Y1349980D02*
X121086962Y1349980D01*
X5710000Y12271509D02*
X16631529Y1349980D01*
X5710000Y35700000D02*
X5710000Y12271509D01*
X104770000Y44036002D02*
X102783998Y44036002D01*
X102783998Y44036002D02*
X102783998Y44036002D01*
X98420000Y21730000D02*
X100960000Y21730000D01*
X98420000Y21730000D02*
X100960000Y19190000D01*
X95945001Y24204999D02*
X98420000Y21730000D01*
X100960000Y21730000D02*
X102230000Y23000000D01*
G04 #@! TO.N,RX1*
X15664686Y85484000D02*
X14025020Y83844334D01*
X16886000Y85484000D02*
X15664686Y85484000D01*
X14025020Y83844334D02*
X14025020Y76594470D01*
X14025020Y76594470D02*
X16070880Y74548610D01*
X16070880Y74548610D02*
X16084270Y74562000D01*
X16070880Y74548610D02*
X22841610Y74548610D01*
X22841610Y74548610D02*
X22855000Y74562000D01*
X24693491Y74562000D02*
X26919000Y72336491D01*
X22855000Y74562000D02*
X24693491Y74562000D01*
X26919000Y72336491D02*
X26919000Y68847000D01*
X26919000Y68847000D02*
X28443000Y68847000D01*
X75625001Y70163685D02*
X75687000Y68847000D01*
X75625001Y71384999D02*
X75625001Y70163685D01*
X75687000Y70101686D02*
X75687000Y68847000D01*
X75687000Y68847000D02*
X77071924Y68847000D01*
X77071924Y68847000D02*
X78132583Y67786341D01*
G04 #@! TO.N,TX1*
X19426000Y86705314D02*
X17218314Y88913000D01*
X19426000Y85484000D02*
X19426000Y86705314D01*
X13584000Y88913000D02*
X12725010Y88054010D01*
X17218314Y88913000D02*
X13584000Y88913000D01*
X12725010Y88054010D02*
X12725010Y76055990D01*
X24168400Y73248600D02*
X25522000Y71895000D01*
X12725010Y76055990D02*
X15532400Y73248600D01*
X15532400Y73248600D02*
X24168400Y73248600D01*
X25522000Y71895000D02*
X25522000Y66180000D01*
X73085001Y70163685D02*
X73147000Y70101686D01*
X73085001Y71384999D02*
X73085001Y70163685D01*
X30094000Y66180000D02*
X30983000Y66180000D01*
X73085001Y70163685D02*
X73085001Y68092998D01*
X73085001Y68092998D02*
X74544000Y66633999D01*
X31237000Y66053000D02*
X25776000Y66053000D01*
G04 #@! TO.N,A1.0*
X64601402Y23988598D02*
X65465001Y23124999D01*
X22829599Y81160762D02*
X36220010Y67770351D01*
X21966000Y82944000D02*
X22829599Y82080401D01*
X22829599Y82080401D02*
X22829599Y81160762D01*
X36220010Y67770351D02*
X36220010Y28049990D01*
X36220010Y28049990D02*
X39111000Y25159000D01*
X63431000Y25159000D02*
X65465001Y23124999D01*
X39111000Y25159000D02*
X63431000Y25159000D01*
G04 #@! TO.N,SDA1*
X20761001Y70163685D02*
X20761001Y71384999D01*
X15997000Y67450000D02*
X18047316Y67450000D01*
X18047316Y67450000D02*
X20761001Y70163685D01*
X9520000Y73927000D02*
X15997000Y67450000D01*
X12507038Y91513020D02*
X21524980Y91513020D01*
X9520000Y73927000D02*
X9520000Y88525982D01*
X9520000Y88525982D02*
X12507038Y91513020D01*
X24506000Y88532000D02*
X24506000Y85484000D01*
X21524980Y91513020D02*
X24506000Y88532000D01*
G04 #@! TO.N,A1.1*
X24506000Y81322851D02*
X37520020Y68308832D01*
X24506000Y82944000D02*
X24506000Y81322851D01*
X37520020Y68308832D02*
X37520020Y28588470D01*
X68005001Y24346313D02*
X68005001Y23124999D01*
X65892304Y26459010D02*
X68005001Y24346313D01*
X39649480Y26459010D02*
X65892304Y26459010D01*
X37520020Y28588470D02*
X39649480Y26459010D01*
G04 #@! TO.N,SCL1*
X14348001Y71384999D02*
X18221001Y71384999D01*
X11425000Y74308000D02*
X14348001Y71384999D01*
X21966000Y85484000D02*
X21426001Y86023999D01*
X13045519Y90213010D02*
X19649990Y90213010D01*
X11425000Y74308000D02*
X11425000Y88592491D01*
X11425000Y88592491D02*
X13045519Y90213010D01*
X21966000Y87897000D02*
X21966000Y85484000D01*
X19649990Y90213010D02*
X21966000Y87897000D01*
G04 #@! TO.N,A1.2*
X38820030Y68847313D02*
X38820030Y29126950D01*
X27046000Y82944000D02*
X27046000Y80621343D01*
X27046000Y80621343D02*
X38820030Y68847313D01*
X72221402Y23988598D02*
X73085001Y23124999D01*
X68450980Y27759020D02*
X72221402Y23988598D01*
X40187960Y27759020D02*
X68450980Y27759020D01*
X38820030Y29126950D02*
X40187960Y27759020D01*
G04 #@! TO.N,I1.0*
X31713890Y90370020D02*
X36637980Y90370020D01*
X27722399Y86378529D02*
X31713890Y90370020D01*
X27722399Y85652399D02*
X27722399Y86378529D01*
X27046000Y85484000D02*
X27554000Y85484000D01*
X27554000Y85484000D02*
X27722399Y85652399D01*
X37592786Y89294001D02*
X37592786Y89294000D01*
X36637980Y90248807D02*
X37592786Y89294001D01*
X36637980Y90370020D02*
X36637980Y90248807D01*
X37592786Y89294000D02*
X36891393Y89995393D01*
X41868028Y85018758D02*
X37592786Y89294000D01*
X41868028Y79224028D02*
X41868028Y85018758D01*
X48215387Y79224028D02*
X41868028Y79224028D01*
X71294416Y56144999D02*
X48215387Y79224028D01*
X93405001Y56144999D02*
X71294416Y56144999D01*
G04 #@! TO.N,A1.3*
X30149593Y79356240D02*
X40120040Y69385794D01*
X29586000Y82944000D02*
X30149593Y82380407D01*
X30149593Y82380407D02*
X30149593Y79356240D01*
X40120040Y69385794D02*
X40120040Y29665430D01*
X70912284Y29059030D02*
X75560000Y24411314D01*
X40120040Y29665430D02*
X40726440Y29059030D01*
X40726440Y29059030D02*
X70912284Y29059030D01*
X75625001Y24204999D02*
X75625001Y23124999D01*
X75560000Y24270000D02*
X75625001Y24204999D01*
X75560000Y24411314D02*
X75560000Y24270000D01*
G04 #@! TO.N,I1.1*
X30449599Y86347599D02*
X29586000Y85484000D01*
X32652205Y89070010D02*
X30449599Y86867404D01*
X35978286Y89070010D02*
X32652205Y89070010D01*
X30449599Y86867404D02*
X30449599Y86347599D01*
X71995925Y53604999D02*
X48255000Y77345924D01*
X93405001Y53604999D02*
X71995925Y53604999D01*
X48255000Y77345924D02*
X41907641Y77345924D01*
X41907641Y77345924D02*
X40568020Y78685545D01*
X40568020Y78685545D02*
X40568020Y84480276D01*
X40568020Y84480276D02*
X35978286Y89070010D01*
G04 #@! TO.N,A1.4*
X32126000Y82944000D02*
X31618000Y82944000D01*
X31618000Y82944000D02*
X31449601Y82775601D01*
X78165001Y24346313D02*
X78165001Y23124999D01*
X72152274Y30359040D02*
X78165001Y24346313D01*
X41420050Y30359040D02*
X72152274Y30359040D01*
X41420050Y69924275D02*
X41420050Y30359040D01*
X32126000Y79218325D02*
X41420050Y69924275D01*
X32126000Y82944000D02*
X32126000Y79218325D01*
G04 #@! TO.N,I1.2*
X32126000Y86705314D02*
X32126000Y85484000D01*
X33190686Y87770000D02*
X32126000Y86705314D01*
X35439805Y87770000D02*
X33190686Y87770000D01*
X39268010Y83941795D02*
X35439805Y87770000D01*
X39268010Y78147064D02*
X39268010Y83941795D01*
X41710074Y75705000D02*
X39268010Y78147064D01*
X91245508Y51064998D02*
X72697435Y51064998D01*
X72697435Y51064998D02*
X54097000Y69665433D01*
X54097000Y69665433D02*
X54040567Y69665433D01*
X54040567Y69665433D02*
X48001000Y75705000D01*
X93405001Y51064999D02*
X91245508Y51064998D01*
X48001000Y75705000D02*
X41710074Y75705000D01*
G04 #@! TO.N,I1.4*
X93405001Y45984999D02*
X77843999Y45984999D01*
X76604009Y47224989D02*
X72737521Y47224989D01*
X77843999Y45984999D02*
X76604009Y47224989D01*
X46857530Y73104980D02*
X40633112Y73104980D01*
X72737521Y47224989D02*
X46857530Y73104980D01*
X40633112Y73104980D02*
X36444000Y77294092D01*
X36444000Y81166000D02*
X34666000Y82944000D01*
X36444000Y77294092D02*
X36444000Y81166000D01*
G04 #@! TO.N,I1.3*
X35887314Y85484000D02*
X37968000Y83403314D01*
X34666000Y85484000D02*
X35887314Y85484000D01*
X41171593Y74404990D02*
X37968000Y77608583D01*
X37968000Y82690000D02*
X37968000Y82309000D01*
X47396010Y74404990D02*
X41171593Y74404990D01*
X37968000Y83403314D02*
X37968000Y82690000D01*
X93405001Y48524999D02*
X73530001Y48524999D01*
X73530001Y48524999D02*
X72290012Y49764988D01*
X37968000Y77608583D02*
X37968000Y82690000D01*
X72290012Y49764988D02*
X72036012Y49764988D01*
X72036012Y49764988D02*
X47396010Y74404990D01*
G04 #@! TO.N,I2.3*
X93405001Y61224999D02*
X92183687Y61224999D01*
X90943697Y59985009D02*
X77465000Y59985009D01*
X92183687Y61224999D02*
X90943697Y59985009D01*
X77465000Y59985009D02*
X78382009Y59985009D01*
X53335000Y77781397D02*
X53335000Y82563000D01*
X71131388Y59985009D02*
X53335000Y77781397D01*
X77465000Y59985009D02*
X71131388Y59985009D01*
G04 #@! TO.N,I2.4*
X52113686Y85103000D02*
X53335000Y85103000D01*
X51471399Y84460713D02*
X52113686Y85103000D01*
X51471399Y77806507D02*
X51471399Y84460713D01*
X70592907Y58684999D02*
X51471399Y77806507D01*
X93405001Y58684999D02*
X70592907Y58684999D01*
G04 #@! TO.N,I2.2*
X92183687Y63764999D02*
X90038000Y61619312D01*
X93405001Y63764999D02*
X92183687Y63764999D01*
X55875000Y77079888D02*
X55875000Y82563000D01*
X71335576Y61619312D02*
X55875000Y77079888D01*
X90038000Y61619312D02*
X71335576Y61619312D01*
G04 #@! TO.N,A2.4*
X2414960Y71126040D02*
X2414960Y71319550D01*
X2154000Y71387000D02*
X2414960Y71126040D01*
X59281420Y98013070D02*
X66035000Y91259490D01*
X66035000Y91259490D02*
X66035000Y85103000D01*
X9814633Y98013070D02*
X59281420Y98013070D01*
X2250992Y90449429D02*
X9814633Y98013070D01*
X2414960Y71319550D02*
X2250992Y71483518D01*
X8250000Y63773019D02*
X1900000Y70123019D01*
X8250000Y11570000D02*
X8250000Y63773019D01*
X1900000Y73449008D02*
X2250992Y73800000D01*
X28488450Y5839959D02*
X13980041Y5839959D01*
X30288451Y7639960D02*
X28488450Y5839959D01*
X13980041Y5839959D02*
X8250000Y11570000D01*
X39178451Y7639960D02*
X30288451Y7639960D01*
X1900000Y70123019D02*
X1900000Y73449008D01*
X63957002Y11189000D02*
X63916001Y11230001D01*
X82278959Y11189000D02*
X63957002Y11189000D01*
X57993999Y11230001D02*
X57952998Y11189000D01*
X90865001Y19775042D02*
X82278959Y11189000D01*
X90865001Y23124999D02*
X90865001Y19775042D01*
X2250992Y71483518D02*
X2250992Y73800000D01*
X2250992Y73800000D02*
X2250992Y90449429D01*
X42921470Y11382980D02*
X39178451Y7639960D01*
X63916001Y11230001D02*
X61803999Y11230001D01*
X61803999Y11230001D02*
X61762998Y11189000D01*
X61762998Y11189000D02*
X60147002Y11189000D01*
X60106001Y11230001D02*
X57993999Y11230001D01*
X57952998Y11189000D02*
X56337002Y11189000D01*
X56337002Y11189000D02*
X56143022Y11382980D01*
X60147002Y11189000D02*
X60106001Y11230001D01*
X56143022Y11382980D02*
X42921470Y11382980D01*
G04 #@! TO.N,I2.1*
X92183687Y66304999D02*
X88895000Y63016312D01*
X93405001Y66304999D02*
X92183687Y66304999D01*
X58415000Y76378379D02*
X58415000Y82563000D01*
X71777067Y63016312D02*
X58415000Y76378379D01*
X88895000Y63016312D02*
X71777067Y63016312D01*
G04 #@! TO.N,A2.3*
X63495000Y86324314D02*
X63495000Y85103000D01*
X3714970Y71858030D02*
X3551000Y72022000D01*
X88325001Y19073528D02*
X81934463Y12682990D01*
X88325001Y23124999D02*
X88325001Y19073528D01*
X3714970Y71604030D02*
X3714970Y71858030D01*
X10353114Y96713060D02*
X58742940Y96713060D01*
X3714970Y71604030D02*
X3714970Y90074916D01*
X3714970Y90074916D02*
X10353114Y96713060D01*
X63495000Y91961000D02*
X63495000Y85103000D01*
X58742940Y96713060D02*
X63495000Y91961000D01*
X3714970Y70146539D02*
X10221509Y63640000D01*
X3714970Y71604030D02*
X3714970Y70146539D01*
X27239444Y7139969D02*
X28849738Y8750264D01*
X14660556Y7139969D02*
X27239444Y7139969D01*
X10221509Y63640000D02*
X10221509Y11579016D01*
X10221509Y11579016D02*
X14660556Y7139969D01*
X29749970Y8939970D02*
X38639970Y8939970D01*
X28849738Y8750264D02*
X29560264Y8750264D01*
X29560264Y8750264D02*
X29749970Y8939970D01*
X42382990Y12682990D02*
X81934463Y12682990D01*
X38639970Y8939970D02*
X42382990Y12682990D01*
G04 #@! TO.N,I2.0*
X60955000Y82563000D02*
X60955000Y82344870D01*
X92183687Y68844999D02*
X93405001Y68844999D01*
X87772687Y64433999D02*
X88641000Y65302312D01*
X88641000Y65302312D02*
X92183687Y68844999D01*
X88387000Y65048312D02*
X88641000Y65302312D01*
X60955000Y82563000D02*
X60955000Y75676870D01*
X60955000Y75676870D02*
X72315547Y64316322D01*
X72315547Y64316322D02*
X72433224Y64433999D01*
X72433224Y64433999D02*
X87772687Y64433999D01*
G04 #@! TO.N,A2.2*
X60955000Y85103000D02*
X60955000Y86324314D01*
X56232950Y95413050D02*
X60955000Y90691000D01*
X10891595Y95413050D02*
X56232950Y95413050D01*
X5014980Y89536435D02*
X10891595Y95413050D01*
X81395982Y13983000D02*
X41711490Y13983000D01*
X60955000Y90691000D02*
X60955000Y85103000D01*
X85785001Y18372019D02*
X81395982Y13983000D01*
X85785001Y22680999D02*
X85785001Y18372019D01*
X85785001Y23124999D02*
X85552602Y23357398D01*
X85108602Y23357398D02*
X85785001Y22680999D01*
X6980000Y69421510D02*
X5014980Y71386530D01*
X85552602Y23357398D02*
X85108602Y23357398D01*
X6980000Y68720000D02*
X6980000Y69421510D01*
X41711490Y13983000D02*
X37968471Y10239980D01*
X26700963Y8439979D02*
X15199037Y8439979D01*
X37968471Y10239980D02*
X28500963Y10239980D01*
X28500963Y10239980D02*
X26700963Y8439979D01*
X15199037Y8439979D02*
X11999980Y11639036D01*
X11999980Y11639036D02*
X11999980Y63700020D01*
X11999980Y63700020D02*
X6980000Y68720000D01*
X5014980Y71386530D02*
X5014980Y89536435D01*
G04 #@! TO.N,SCL2*
X75126805Y82563000D02*
X80841805Y76848000D01*
X71115000Y82563000D02*
X75126805Y82563000D01*
X80841805Y76848000D02*
X85339000Y76848000D01*
X85785001Y76401999D02*
X85785001Y71384999D01*
X85339000Y76848000D02*
X85785001Y76401999D01*
G04 #@! TO.N,A2.1*
X58415000Y85103000D02*
X57551401Y85966599D01*
X41366990Y15476990D02*
X81051481Y15476990D01*
X83245001Y17670510D02*
X83245001Y23124999D01*
X37429990Y11539990D02*
X41366990Y15476990D01*
X81051481Y15476990D02*
X83245001Y17670510D01*
X27962483Y11539990D02*
X37429990Y11539990D01*
X26162482Y9739989D02*
X27962483Y11539990D01*
X15737518Y9739989D02*
X26162482Y9739989D01*
X13299990Y12177517D02*
X15737518Y9739989D01*
X58415000Y87897000D02*
X52198960Y94113040D01*
X13299990Y64940010D02*
X13299990Y12177517D01*
X58415000Y85103000D02*
X58415000Y87897000D01*
X52198960Y94113040D02*
X11430076Y94113040D01*
X11430076Y94113040D02*
X6314990Y88997954D01*
X6314990Y88997954D02*
X6314990Y71925010D01*
X6314990Y71925010D02*
X13299990Y64940010D01*
G04 #@! TO.N,SDA2*
X68575000Y81341686D02*
X75608686Y74308000D01*
X68575000Y82563000D02*
X68575000Y81341686D01*
X83245001Y72606313D02*
X83245001Y71384999D01*
X81543314Y74308000D02*
X83245001Y72606313D01*
X75608686Y74308000D02*
X81543314Y74308000D01*
G04 #@! TO.N,A2.0*
X55875000Y86324314D02*
X55875000Y85103000D01*
X36450091Y12840000D02*
X27424002Y12840000D01*
X80513000Y16777000D02*
X40387091Y16777000D01*
X40387091Y16777000D02*
X36450091Y12840000D01*
X80705001Y23124999D02*
X80705001Y16969001D01*
X11968557Y92813030D02*
X49386284Y92813030D01*
X80705001Y16969001D02*
X80513000Y16777000D01*
X27424002Y12840000D02*
X25624001Y11039999D01*
X25624001Y11039999D02*
X16275999Y11039999D01*
X15339999Y19929999D02*
X14600000Y20669998D01*
X16275999Y11039999D02*
X15339999Y11975999D01*
X7615000Y88459473D02*
X11968557Y92813030D01*
X15339999Y11975999D02*
X15339999Y19929999D01*
X14600000Y20669998D02*
X14600000Y66180000D01*
X14600000Y66180000D02*
X7615000Y73165000D01*
X7615000Y73165000D02*
X7615000Y88459473D01*
X49386284Y92813030D02*
X55875000Y86324314D01*
G04 #@! TO.N,TX2*
X63495000Y75895000D02*
X68005001Y71384999D01*
X63495000Y82563000D02*
X63495000Y75895000D01*
G04 #@! TO.N,RX2*
X66035000Y82563000D02*
X66035000Y78753000D01*
X70545001Y74242999D02*
X70545001Y71384999D01*
X66035000Y78753000D02*
X70545001Y74242999D01*
G04 #@! TO.N,Net-(J3-Pad3)*
X79028600Y70303270D02*
X79028600Y70521400D01*
X79404991Y69926879D02*
X79028600Y70303270D01*
X79404991Y69625204D02*
X79404991Y69926879D01*
X80808807Y68221388D02*
X79404991Y69625204D01*
X79028600Y70521400D02*
X78165001Y71384999D01*
X82672000Y86754000D02*
X83521999Y85904001D01*
X83521999Y85904001D02*
X83775999Y85904001D01*
X83775999Y85904001D02*
X88948612Y80731388D01*
X88948612Y80731388D02*
X88948612Y69951989D01*
X88948612Y69951989D02*
X87218011Y68221388D01*
X87218011Y68221388D02*
X80808807Y68221388D01*
G04 #@! TO.N,Net-(J3-Pad4)*
X80705001Y70163685D02*
X80705001Y71384999D01*
X84139530Y69521398D02*
X81347288Y69521398D01*
X84227132Y69609000D02*
X84139530Y69521398D01*
X82672000Y81353491D02*
X87648602Y76376889D01*
X82672000Y84214000D02*
X82672000Y81353491D01*
X87648602Y76376889D02*
X87648602Y70490470D01*
X87648602Y70490470D02*
X86679530Y69521398D01*
X81347288Y69521398D02*
X80705001Y70163685D01*
X84802870Y69609000D02*
X84227132Y69609000D01*
X86679530Y69521398D02*
X84890472Y69521398D01*
X84890472Y69521398D02*
X84802870Y69609000D01*
G04 #@! TO.N,Net-(J4-Pad2)*
X38730000Y19190000D02*
X36190000Y16650000D01*
X41428132Y19190000D02*
X38730000Y19190000D01*
X45145001Y22906869D02*
X41428132Y19190000D01*
X45145001Y23124999D02*
X45145001Y22906869D01*
G04 #@! TO.N,+3V3*
X112390000Y49670000D02*
X104770000Y48400000D01*
X112390000Y17920000D02*
X107310000Y17920000D01*
X107310000Y17920000D02*
X104770000Y20460000D01*
X104770000Y20460000D02*
X104770000Y20460000D01*
X107310000Y17920000D02*
X107310000Y17920000D01*
X34308602Y24019528D02*
X31518130Y26810000D01*
X34308602Y23611398D02*
X34308602Y24019528D01*
X34985001Y23124999D02*
X34795001Y23124999D01*
X34795001Y23124999D02*
X34308602Y23611398D01*
X31518130Y26810000D02*
X31518130Y26810000D01*
G04 #@! TO.N,Net-(J6-Pad13)*
X98847450Y45984999D02*
X95945001Y45984999D01*
X105072451Y52210000D02*
X98847450Y45984999D01*
X112390000Y52210000D02*
X105072451Y52210000D01*
G04 #@! TO.N,Net-(J6-Pad12)*
X95945001Y68844999D02*
X98295001Y68844999D01*
X99659990Y70209988D02*
X99659990Y81389990D01*
X98295001Y68844999D02*
X99659990Y70209988D01*
X104890040Y86620040D02*
X123699960Y86620040D01*
X99659990Y81389990D02*
X104890040Y86620040D01*
X125210040Y85109960D02*
X125210040Y62490040D01*
X123699960Y86620040D02*
X125210040Y85109960D01*
X117470000Y54750000D02*
X114930000Y54750000D01*
X125210040Y62490040D02*
X117470000Y54750000D01*
G04 #@! TO.N,Net-(J6-Pad11)*
X112390000Y54750000D02*
X105773961Y54750000D01*
X99548960Y48524999D02*
X95945001Y48524999D01*
X105773961Y54750000D02*
X99548960Y48524999D01*
G04 #@! TO.N,Net-(J6-Pad10)*
X95945001Y66304999D02*
X100835001Y66304999D01*
X100835001Y66304999D02*
X100960000Y66429998D01*
X101209969Y79129969D02*
X101209969Y80399969D01*
X100960000Y66429998D02*
X100960000Y78880000D01*
X100960000Y78880000D02*
X101209969Y79129969D01*
X106130030Y85320030D02*
X122459970Y85320030D01*
X101209969Y80399969D02*
X106130030Y85320030D01*
X116200000Y57290000D02*
X114930000Y57290000D01*
X123910030Y65000030D02*
X116200000Y57290000D01*
X123910030Y83869970D02*
X123910030Y65000030D01*
X122459970Y85320030D02*
X123910030Y83869970D01*
G04 #@! TO.N,Net-(J6-Pad9)*
X112390000Y57290000D02*
X106475471Y57290000D01*
X100250470Y51064999D02*
X95945001Y51064999D01*
X106475471Y57290000D02*
X100250470Y51064999D01*
G04 #@! TO.N,Net-(J6-Pad8)*
X95945001Y63764999D02*
X102105001Y63764999D01*
X102509979Y64169977D02*
X102509979Y79159979D01*
X102105001Y63764999D02*
X102509979Y64169977D01*
X107370020Y84020020D02*
X119949980Y84020020D01*
X102509979Y79159979D02*
X107370020Y84020020D01*
X119979990Y83990010D02*
X119949980Y84020020D01*
X119979990Y83990010D02*
X121249990Y83990010D01*
X122610020Y82629980D02*
X122610020Y66240020D01*
X121249990Y83990010D02*
X122610020Y82629980D01*
X122610020Y66240020D02*
X116200000Y59830000D01*
X116200000Y59830000D02*
X114930000Y59830000D01*
G04 #@! TO.N,Net-(J6-Pad7)*
X112390000Y59830000D02*
X107176981Y59830000D01*
X100951980Y53604999D02*
X95945001Y53604999D01*
X107176981Y59830000D02*
X100951980Y53604999D01*
G04 #@! TO.N,Net-(J6-Pad6)*
X96163131Y61224999D02*
X96288130Y61100000D01*
X95945001Y61224999D02*
X96163131Y61224999D01*
X95945001Y61224999D02*
X102105001Y61224999D01*
X103809989Y62929987D02*
X103809989Y77934482D01*
X102105001Y61224999D02*
X103809989Y62929987D01*
X108595517Y82720010D02*
X118709990Y82720010D01*
X103809989Y77934482D02*
X108595517Y82720010D01*
X118709990Y82720010D02*
X118740000Y82690000D01*
X118740000Y82690000D02*
X120010000Y82690000D01*
X115793599Y63233599D02*
X114930000Y62370000D01*
X116313404Y63233599D02*
X115793599Y63233599D01*
X121310010Y68230205D02*
X116313404Y63233599D01*
X121310010Y80134483D02*
X121310010Y68230205D01*
X120010000Y81434492D02*
X121310010Y80134483D01*
X120010000Y82690000D02*
X120010000Y81434492D01*
G04 #@! TO.N,Net-(J6-Pad5)*
X112390000Y62370000D02*
X107878491Y62370000D01*
X107878491Y62370000D02*
X101653490Y56144999D01*
X101653490Y56144999D02*
X95945001Y56144999D01*
G04 #@! TO.N,Net-(J6-Pad4)*
X95945001Y58684999D02*
X102354999Y58684999D01*
X118186002Y81420000D02*
X120010000Y79596002D01*
X109133998Y81420000D02*
X118186002Y81420000D01*
X105109999Y77396001D02*
X109133998Y81420000D01*
X102354999Y58684999D02*
X105109999Y61439999D01*
X105109999Y61439999D02*
X105109999Y77396001D01*
X116151314Y64910000D02*
X114930000Y64910000D01*
X120010000Y68768686D02*
X116151314Y64910000D01*
X120010000Y79596002D02*
X120010000Y68768686D01*
G04 #@! TO.N,Net-(J6-Pad3)*
X93405001Y40904999D02*
X93405001Y40228600D01*
X112390000Y64910000D02*
X107310000Y64910000D01*
X92183687Y40904999D02*
X92058688Y40780000D01*
X93405001Y40904999D02*
X92183687Y40904999D01*
X92058688Y40780000D02*
X88260000Y40780000D01*
X88260000Y40780000D02*
X87020010Y39540010D01*
X87020010Y39540010D02*
X56540010Y39540010D01*
X56540010Y39540010D02*
X50160000Y33160000D01*
X50160000Y33160000D02*
X47620000Y33160000D01*
X120548481Y2649990D02*
X123970050Y6071559D01*
X52161519Y2649990D02*
X120548481Y2649990D01*
X47620000Y8989000D02*
X47620000Y7191509D01*
X47620000Y7191509D02*
X52161519Y2649990D01*
X123970050Y6071559D02*
X123970050Y35549950D01*
X123970050Y35549950D02*
X116200000Y43320000D01*
X116200000Y43320000D02*
X107310000Y43320000D01*
G04 #@! TO.N,Net-(J7-Pad3)*
X95945001Y43444999D02*
X99565001Y43444999D01*
X109850000Y33160000D02*
X112390000Y33160000D01*
X99565001Y43444999D02*
X109850000Y33160000D01*
G04 #@! TO.N,Net-(J7-Pad4)*
X93405001Y43444999D02*
X93405001Y42768600D01*
X93405001Y43444999D02*
X52824999Y43444999D01*
X122670040Y26689960D02*
X122670040Y6610040D01*
X114930000Y33160000D02*
X116200000Y33160000D01*
X116200000Y33160000D02*
X122670040Y26689960D01*
X122670040Y6610040D02*
X120010000Y3950000D01*
X120010000Y3950000D02*
X52700000Y3950000D01*
X52700000Y3950000D02*
X51430000Y5220000D01*
X51430000Y5220000D02*
X51430000Y9030000D01*
X52824999Y43444999D02*
X51430000Y42050000D01*
X51430000Y42050000D02*
X51430000Y38240000D01*
G04 #@! TO.N,Net-(J7-Pad5)*
X110551510Y30620000D02*
X112390000Y30620000D01*
X100942910Y40228600D02*
X110551510Y30620000D01*
X96431400Y40228600D02*
X100942910Y40228600D01*
X95945001Y40714999D02*
X96431400Y40228600D01*
X95945001Y40904999D02*
X95945001Y40714999D01*
G04 #@! TO.N,Net-(J7-Pad6)*
X93405001Y38364999D02*
X93405001Y37688600D01*
X92183687Y38364999D02*
X92058688Y38240000D01*
X93405001Y38364999D02*
X92183687Y38364999D01*
X92058688Y38240000D02*
X57780000Y38240000D01*
X57780000Y38240000D02*
X55240000Y35700000D01*
X55240000Y35700000D02*
X55240000Y33160000D01*
X115793599Y29756401D02*
X117063599Y29756401D01*
X114930000Y30620000D02*
X115793599Y29756401D01*
X118916971Y5529989D02*
X56200011Y5529989D01*
X121370030Y7983048D02*
X118916971Y5529989D01*
X117063599Y29756401D02*
X121370030Y25449970D01*
X121370030Y25449970D02*
X121370030Y7983048D01*
X56200011Y5529989D02*
X55240000Y6490000D01*
X55240000Y6490000D02*
X55240000Y9030000D01*
G04 #@! TO.N,Net-(J7-Pad7)*
X95945001Y38364999D02*
X99565001Y38364999D01*
X109850000Y28080000D02*
X112390000Y28080000D01*
X99565001Y38364999D02*
X109850000Y28080000D01*
G04 #@! TO.N,Net-(J7-Pad8)*
X92183687Y35824999D02*
X92058688Y35700000D01*
X93405001Y35824999D02*
X92183687Y35824999D01*
X92058688Y35700000D02*
X60320000Y35700000D01*
X60320000Y35700000D02*
X59050000Y33160000D01*
X63916001Y6829999D02*
X64815992Y7729990D01*
X116151314Y28080000D02*
X114930000Y28080000D01*
X64815992Y7729990D02*
X119278481Y7729990D01*
X120070020Y8521529D02*
X120070020Y24161294D01*
X119278481Y7729990D02*
X120070020Y8521529D01*
X120070020Y24161294D02*
X116151314Y28080000D01*
X63916001Y6829999D02*
X58710001Y6829999D01*
X58710001Y6829999D02*
X59050000Y7169998D01*
X59050000Y7169998D02*
X59050000Y9030000D01*
G04 #@! TO.N,Net-(J7-Pad9)*
X96808600Y34961400D02*
X100428600Y34961400D01*
X95945001Y35824999D02*
X96808600Y34961400D01*
X109850000Y25540000D02*
X112390000Y25540000D01*
X100428600Y34961400D02*
X109850000Y25540000D01*
G04 #@! TO.N,Net-(J7-Pad10)*
X92183687Y33284999D02*
X92058688Y33160000D01*
X93405001Y33284999D02*
X92183687Y33284999D01*
X92058688Y33160000D02*
X62860000Y33160000D01*
X118770010Y22219795D02*
X118770010Y9060010D01*
X116313404Y24676401D02*
X118770010Y22219795D01*
X114930000Y25540000D02*
X115793599Y24676401D01*
X115793599Y24676401D02*
X116313404Y24676401D01*
X118770010Y9060010D02*
X118740000Y9030000D01*
X118740000Y9030000D02*
X62860000Y9030000D01*
G04 #@! TO.N,Net-(J7-Pad11)*
X96004999Y33284999D02*
X96129998Y33160000D01*
X95945001Y33284999D02*
X96004999Y33284999D01*
X110551510Y23000000D02*
X112390000Y23000000D01*
X100391510Y33160000D02*
X110551510Y23000000D01*
X96129998Y33160000D02*
X100391510Y33160000D01*
G04 #@! TO.N,Net-(J7-Pad12)*
X117470000Y21681314D02*
X116151314Y23000000D01*
X93405001Y30744999D02*
X89654999Y30744999D01*
X89654999Y30744999D02*
X89530000Y30620000D01*
X116151314Y23000000D02*
X114930000Y23000000D01*
X89530000Y30620000D02*
X89530000Y28080000D01*
X89530000Y28080000D02*
X104770000Y12840000D01*
X104770000Y12840000D02*
X117470000Y12840000D01*
X117470000Y12840000D02*
X117470000Y21681314D01*
G04 #@! TO.N,Net-(J7-Pad13)*
X95945001Y30744999D02*
X99565001Y30744999D01*
X109850000Y20460000D02*
X112390000Y20460000D01*
X99565001Y30744999D02*
X109850000Y20460000D01*
G04 #@! TD*
D20*
G04 #@! TO.N,GND*
G36*
X128123001Y877000D02*
X877000Y877000D01*
X877000Y66879182D01*
X4583001Y63173180D01*
X4583000Y43777190D01*
X4561797Y43768407D01*
X3991593Y43198203D01*
X3683000Y42453195D01*
X3683000Y41646805D01*
X3991593Y40901797D01*
X4561797Y40331593D01*
X5306805Y40023000D01*
X6113195Y40023000D01*
X6858203Y40331593D01*
X7123001Y40596391D01*
X7123000Y11680998D01*
X7100921Y11570000D01*
X7123000Y11459002D01*
X7188389Y11130268D01*
X7188390Y11130267D01*
X7188390Y11130266D01*
X7208442Y11100256D01*
X7437478Y10757478D01*
X7531582Y10694600D01*
X13104641Y5121541D01*
X13167519Y5027437D01*
X13540308Y4778348D01*
X13869042Y4712959D01*
X13869043Y4712959D01*
X13980041Y4690880D01*
X14091039Y4712959D01*
X28377452Y4712959D01*
X28488450Y4690880D01*
X28599448Y4712959D01*
X28599449Y4712959D01*
X28928183Y4778348D01*
X29300972Y5027437D01*
X29363850Y5121541D01*
X30755270Y6512960D01*
X39067453Y6512960D01*
X39178451Y6490881D01*
X39289449Y6512960D01*
X39289450Y6512960D01*
X39618184Y6578349D01*
X39990973Y6827438D01*
X40053851Y6921542D01*
X43388289Y10255980D01*
X46020370Y10255980D01*
X45901593Y10137203D01*
X45593000Y9392195D01*
X45593000Y8585805D01*
X45901593Y7840797D01*
X46471797Y7270593D01*
X46485521Y7264908D01*
X46470921Y7191509D01*
X46558390Y6751775D01*
X46657805Y6602990D01*
X46807479Y6378987D01*
X46901580Y6316111D01*
X51286121Y1931569D01*
X51348997Y1837468D01*
X51721786Y1588379D01*
X52050520Y1522990D01*
X52050521Y1522990D01*
X52161519Y1500911D01*
X52272517Y1522990D01*
X120437483Y1522990D01*
X120548481Y1500911D01*
X120659479Y1522990D01*
X120659480Y1522990D01*
X120988214Y1588379D01*
X121361003Y1837468D01*
X121423881Y1931572D01*
X124688471Y5196161D01*
X124782572Y5259037D01*
X125031661Y5631826D01*
X125097050Y5960560D01*
X125097050Y5960561D01*
X125119129Y6071558D01*
X125097050Y6182556D01*
X125097050Y35438953D01*
X125119129Y35549951D01*
X125089282Y35700000D01*
X125031661Y35989683D01*
X124782572Y36362472D01*
X124688471Y36425348D01*
X122044033Y39069785D01*
X122713838Y39347228D01*
X123284042Y39917432D01*
X123592635Y40662440D01*
X123592635Y41468830D01*
X123284042Y42213838D01*
X122713838Y42784042D01*
X122692635Y42792825D01*
X122692635Y50042815D01*
X127078421Y54428600D01*
X127172522Y54491476D01*
X127421611Y54864265D01*
X127487000Y55192999D01*
X127487000Y55193000D01*
X127509079Y55303997D01*
X127487000Y55414995D01*
X127487000Y61385122D01*
X127571661Y61511826D01*
X127637050Y61840560D01*
X127637050Y61840561D01*
X127659129Y61951559D01*
X127637050Y62062557D01*
X127637050Y85537443D01*
X127659129Y85648441D01*
X127636986Y85759763D01*
X127571661Y86088174D01*
X127568498Y86092909D01*
X127472486Y86236600D01*
X127322572Y86460963D01*
X127228471Y86523839D01*
X123739891Y90012418D01*
X123677013Y90106522D01*
X123304224Y90355611D01*
X122975490Y90421000D01*
X122975489Y90421000D01*
X122864491Y90443079D01*
X122753493Y90421000D01*
X118943190Y90421000D01*
X118934407Y90442203D01*
X118364203Y91012407D01*
X118343000Y91021190D01*
X118343000Y97565003D01*
X118365079Y97676001D01*
X118343000Y97786999D01*
X118277611Y98115733D01*
X118028522Y98488522D01*
X117934418Y98551400D01*
X117837400Y98648418D01*
X117774522Y98742522D01*
X117401733Y98991611D01*
X117072999Y99057000D01*
X117072998Y99057000D01*
X116962000Y99079079D01*
X116851002Y99057000D01*
X68406819Y99057000D01*
X68340818Y99123000D01*
X128123000Y99123000D01*
X128123001Y877000D01*
X128123001Y877000D01*
G37*
X128123001Y877000D02*
X877000Y877000D01*
X877000Y66879182D01*
X4583001Y63173180D01*
X4583000Y43777190D01*
X4561797Y43768407D01*
X3991593Y43198203D01*
X3683000Y42453195D01*
X3683000Y41646805D01*
X3991593Y40901797D01*
X4561797Y40331593D01*
X5306805Y40023000D01*
X6113195Y40023000D01*
X6858203Y40331593D01*
X7123001Y40596391D01*
X7123000Y11680998D01*
X7100921Y11570000D01*
X7123000Y11459002D01*
X7188389Y11130268D01*
X7188390Y11130267D01*
X7188390Y11130266D01*
X7208442Y11100256D01*
X7437478Y10757478D01*
X7531582Y10694600D01*
X13104641Y5121541D01*
X13167519Y5027437D01*
X13540308Y4778348D01*
X13869042Y4712959D01*
X13869043Y4712959D01*
X13980041Y4690880D01*
X14091039Y4712959D01*
X28377452Y4712959D01*
X28488450Y4690880D01*
X28599448Y4712959D01*
X28599449Y4712959D01*
X28928183Y4778348D01*
X29300972Y5027437D01*
X29363850Y5121541D01*
X30755270Y6512960D01*
X39067453Y6512960D01*
X39178451Y6490881D01*
X39289449Y6512960D01*
X39289450Y6512960D01*
X39618184Y6578349D01*
X39990973Y6827438D01*
X40053851Y6921542D01*
X43388289Y10255980D01*
X46020370Y10255980D01*
X45901593Y10137203D01*
X45593000Y9392195D01*
X45593000Y8585805D01*
X45901593Y7840797D01*
X46471797Y7270593D01*
X46485521Y7264908D01*
X46470921Y7191509D01*
X46558390Y6751775D01*
X46657805Y6602990D01*
X46807479Y6378987D01*
X46901580Y6316111D01*
X51286121Y1931569D01*
X51348997Y1837468D01*
X51721786Y1588379D01*
X52050520Y1522990D01*
X52050521Y1522990D01*
X52161519Y1500911D01*
X52272517Y1522990D01*
X120437483Y1522990D01*
X120548481Y1500911D01*
X120659479Y1522990D01*
X120659480Y1522990D01*
X120988214Y1588379D01*
X121361003Y1837468D01*
X121423881Y1931572D01*
X124688471Y5196161D01*
X124782572Y5259037D01*
X125031661Y5631826D01*
X125097050Y5960560D01*
X125097050Y5960561D01*
X125119129Y6071558D01*
X125097050Y6182556D01*
X125097050Y35438953D01*
X125119129Y35549951D01*
X125089282Y35700000D01*
X125031661Y35989683D01*
X124782572Y36362472D01*
X124688471Y36425348D01*
X122044033Y39069785D01*
X122713838Y39347228D01*
X123284042Y39917432D01*
X123592635Y40662440D01*
X123592635Y41468830D01*
X123284042Y42213838D01*
X122713838Y42784042D01*
X122692635Y42792825D01*
X122692635Y50042815D01*
X127078421Y54428600D01*
X127172522Y54491476D01*
X127421611Y54864265D01*
X127487000Y55192999D01*
X127487000Y55193000D01*
X127509079Y55303997D01*
X127487000Y55414995D01*
X127487000Y61385122D01*
X127571661Y61511826D01*
X127637050Y61840560D01*
X127637050Y61840561D01*
X127659129Y61951559D01*
X127637050Y62062557D01*
X127637050Y85537443D01*
X127659129Y85648441D01*
X127636986Y85759763D01*
X127571661Y86088174D01*
X127568498Y86092909D01*
X127472486Y86236600D01*
X127322572Y86460963D01*
X127228471Y86523839D01*
X123739891Y90012418D01*
X123677013Y90106522D01*
X123304224Y90355611D01*
X122975490Y90421000D01*
X122975489Y90421000D01*
X122864491Y90443079D01*
X122753493Y90421000D01*
X118943190Y90421000D01*
X118934407Y90442203D01*
X118364203Y91012407D01*
X118343000Y91021190D01*
X118343000Y97565003D01*
X118365079Y97676001D01*
X118343000Y97786999D01*
X118277611Y98115733D01*
X118028522Y98488522D01*
X117934418Y98551400D01*
X117837400Y98648418D01*
X117774522Y98742522D01*
X117401733Y98991611D01*
X117072999Y99057000D01*
X117072998Y99057000D01*
X116962000Y99079079D01*
X116851002Y99057000D01*
X68406819Y99057000D01*
X68340818Y99123000D01*
X128123000Y99123000D01*
X128123001Y877000D01*
G36*
X33793000Y66765052D02*
X33793001Y31747000D01*
X30306819Y31747000D01*
X20428217Y41625601D01*
X20437000Y41646805D01*
X20437000Y42453195D01*
X20128407Y43198203D01*
X19558203Y43768407D01*
X18813195Y44077000D01*
X18006805Y44077000D01*
X17261797Y43768407D01*
X16691593Y43198203D01*
X16383000Y42453195D01*
X16383000Y41646805D01*
X16691593Y40901797D01*
X17261797Y40331593D01*
X18006805Y40023000D01*
X18813195Y40023000D01*
X18834399Y40031783D01*
X28246182Y30620000D01*
X25311580Y27685398D01*
X25217479Y27622522D01*
X25137271Y27502482D01*
X24968390Y27249734D01*
X24880921Y26810000D01*
X24903001Y26698997D01*
X24903000Y20363926D01*
X24650696Y20111622D01*
X24403000Y19513630D01*
X24403000Y18866370D01*
X24650696Y18268378D01*
X25108378Y17810696D01*
X25706370Y17563000D01*
X26353630Y17563000D01*
X26951622Y17810696D01*
X27409304Y18268378D01*
X27516167Y18526370D01*
X28724940Y18526370D01*
X28724940Y16935750D01*
X28883690Y16777000D01*
X30983000Y16777000D01*
X30983000Y18876310D01*
X31237000Y18876310D01*
X31237000Y16777000D01*
X33336310Y16777000D01*
X33495060Y16935750D01*
X33495060Y18526370D01*
X33398387Y18759759D01*
X33219758Y18938387D01*
X32986369Y19035060D01*
X31395750Y19035060D01*
X31237000Y18876310D01*
X30983000Y18876310D01*
X30824250Y19035060D01*
X29233631Y19035060D01*
X29000242Y18938387D01*
X28821613Y18759759D01*
X28724940Y18526370D01*
X27516167Y18526370D01*
X27657000Y18866370D01*
X27657000Y19513630D01*
X27409304Y20111622D01*
X27157000Y20363926D01*
X27157000Y26343182D01*
X30306818Y29493000D01*
X33793000Y29493000D01*
X33793001Y27062318D01*
X33793000Y27062313D01*
X33770921Y26951314D01*
X33793000Y26840316D01*
X33793000Y26699002D01*
X33858389Y26370268D01*
X34107478Y25997478D01*
X34480267Y25748389D01*
X34541234Y25736262D01*
X35538967Y24738529D01*
X35151507Y24815599D01*
X35132116Y24815599D01*
X35121124Y24832050D01*
X35027022Y24894926D01*
X33536347Y26385601D01*
X33545130Y26406805D01*
X33545130Y27213195D01*
X33236537Y27958203D01*
X32666333Y28528407D01*
X31921325Y28837000D01*
X31114935Y28837000D01*
X30369927Y28528407D01*
X29799723Y27958203D01*
X29491130Y27213195D01*
X29491130Y26406805D01*
X29799723Y25661797D01*
X30369927Y25091593D01*
X31114935Y24783000D01*
X31921325Y24783000D01*
X31942529Y24791783D01*
X31978404Y24755907D01*
X31785362Y24717509D01*
X31226147Y24343853D01*
X30852491Y23784638D01*
X30721281Y23124999D01*
X30852491Y22465360D01*
X31226147Y21906145D01*
X31785362Y21532489D01*
X32278495Y21434399D01*
X32611507Y21434399D01*
X33104640Y21532489D01*
X33663855Y21906145D01*
X33715001Y21982690D01*
X33766147Y21906145D01*
X34325362Y21532489D01*
X34818495Y21434399D01*
X35151507Y21434399D01*
X35644640Y21532489D01*
X36203855Y21906145D01*
X36255001Y21982690D01*
X36306147Y21906145D01*
X36865362Y21532489D01*
X37358495Y21434399D01*
X37691507Y21434399D01*
X38184640Y21532489D01*
X38743855Y21906145D01*
X38931358Y22186762D01*
X39176511Y21918178D01*
X39705974Y21670031D01*
X39938001Y21790530D01*
X39938001Y22997999D01*
X39918001Y22997999D01*
X39918001Y23251999D01*
X39938001Y23251999D01*
X39938001Y23271999D01*
X40192001Y23271999D01*
X40192001Y23251999D01*
X42478001Y23251999D01*
X42478001Y23271999D01*
X42732001Y23271999D01*
X42732001Y23251999D01*
X42752001Y23251999D01*
X42752001Y22997999D01*
X42732001Y22997999D01*
X42732001Y22977999D01*
X42478001Y22977999D01*
X42478001Y22997999D01*
X40192001Y22997999D01*
X40192001Y21790530D01*
X40424028Y21670031D01*
X40953491Y21918178D01*
X41335001Y22336151D01*
X41716511Y21918178D01*
X42245974Y21670031D01*
X42388216Y21743902D01*
X40961314Y20317000D01*
X38840997Y20317000D01*
X38729999Y20339079D01*
X38619001Y20317000D01*
X38290267Y20251611D01*
X38290266Y20251610D01*
X38290265Y20251610D01*
X38258320Y20230265D01*
X37917478Y20002522D01*
X37854602Y19908421D01*
X37035396Y19089215D01*
X36702609Y19227060D01*
X35677391Y19227060D01*
X34730213Y18834726D01*
X34005274Y18109787D01*
X33612940Y17162609D01*
X33612940Y16137391D01*
X34005274Y15190213D01*
X34730213Y14465274D01*
X35677391Y14072940D01*
X36089213Y14072940D01*
X35983273Y13967000D01*
X27535000Y13967000D01*
X27424002Y13989079D01*
X27313004Y13967000D01*
X27313003Y13967000D01*
X26984269Y13901611D01*
X26984268Y13901610D01*
X26984267Y13901610D01*
X26880192Y13832069D01*
X26611480Y13652522D01*
X26548604Y13558421D01*
X25875060Y12884877D01*
X25875060Y13824250D01*
X25716310Y13983000D01*
X23617000Y13983000D01*
X23617000Y13963000D01*
X23363000Y13963000D01*
X23363000Y13983000D01*
X21263690Y13983000D01*
X21104940Y13824250D01*
X21104940Y12233630D01*
X21132539Y12166999D01*
X20111512Y12166999D01*
X20594726Y12650213D01*
X20987060Y13597391D01*
X20987060Y14622609D01*
X20594726Y15569787D01*
X20178143Y15986370D01*
X21104940Y15986370D01*
X21104940Y14395750D01*
X21263690Y14237000D01*
X23363000Y14237000D01*
X23363000Y16336310D01*
X23617000Y16336310D01*
X23617000Y14237000D01*
X25716310Y14237000D01*
X25875060Y14395750D01*
X25875060Y15986370D01*
X25778387Y16219759D01*
X25633896Y16364250D01*
X28724940Y16364250D01*
X28724940Y14773630D01*
X28821613Y14540241D01*
X29000242Y14361613D01*
X29233631Y14264940D01*
X30824250Y14264940D01*
X30983000Y14423690D01*
X30983000Y16523000D01*
X31237000Y16523000D01*
X31237000Y14423690D01*
X31395750Y14264940D01*
X32986369Y14264940D01*
X33219758Y14361613D01*
X33398387Y14540241D01*
X33495060Y14773630D01*
X33495060Y16364250D01*
X33336310Y16523000D01*
X31237000Y16523000D01*
X30983000Y16523000D01*
X28883690Y16523000D01*
X28724940Y16364250D01*
X25633896Y16364250D01*
X25599758Y16398387D01*
X25366369Y16495060D01*
X23775750Y16495060D01*
X23617000Y16336310D01*
X23363000Y16336310D01*
X23204250Y16495060D01*
X21613631Y16495060D01*
X21380242Y16398387D01*
X21201613Y16219759D01*
X21104940Y15986370D01*
X20178143Y15986370D01*
X19869787Y16294726D01*
X19537000Y16432571D01*
X19537000Y17986262D01*
X19583001Y18016999D01*
X19942600Y18555176D01*
X20068874Y19190000D01*
X19942600Y19824824D01*
X19583001Y20363001D01*
X19044824Y20722600D01*
X18570242Y20817000D01*
X18249758Y20817000D01*
X17775176Y20722600D01*
X17236999Y20363001D01*
X16877400Y19824824D01*
X16751126Y19190000D01*
X16877400Y18555176D01*
X17236999Y18016999D01*
X17283000Y17986262D01*
X17283001Y16432571D01*
X16950213Y16294726D01*
X16466999Y15811512D01*
X16466999Y19819001D01*
X16489078Y19929999D01*
X16448273Y20135138D01*
X16401610Y20369732D01*
X16152521Y20742521D01*
X16058417Y20805399D01*
X15727000Y21136816D01*
X15727000Y66069002D01*
X15749079Y66180000D01*
X15721430Y66319000D01*
X15713822Y66357248D01*
X15886001Y66323000D01*
X15996999Y66300921D01*
X16107997Y66323000D01*
X17936318Y66323000D01*
X18047316Y66300921D01*
X18158314Y66323000D01*
X18158315Y66323000D01*
X18487049Y66388389D01*
X18859838Y66637478D01*
X18922716Y66731582D01*
X21479422Y69288287D01*
X21573523Y69351163D01*
X21779561Y69659521D01*
X21822611Y69723950D01*
X21822611Y69723951D01*
X21822612Y69723952D01*
X21888001Y70052686D01*
X21888001Y70052687D01*
X21899949Y70112754D01*
X21979855Y70166145D01*
X22031001Y70242690D01*
X22082147Y70166145D01*
X22641362Y69792489D01*
X23134495Y69694399D01*
X23467507Y69694399D01*
X23960640Y69792489D01*
X24395000Y70082720D01*
X24395001Y66069001D01*
X24460390Y65740267D01*
X24709479Y65367478D01*
X25082268Y65118389D01*
X25173296Y65100282D01*
X25336267Y64991389D01*
X25665001Y64926000D01*
X29509810Y64926000D01*
X29518593Y64904797D01*
X30088797Y64334593D01*
X30833805Y64026000D01*
X31640195Y64026000D01*
X32385203Y64334593D01*
X32955407Y64904797D01*
X33264000Y65649805D01*
X33264000Y66456195D01*
X32955407Y67201203D01*
X32385203Y67771407D01*
X31640195Y68080000D01*
X30833805Y68080000D01*
X30212750Y67822750D01*
X30470000Y68443805D01*
X30470000Y69250195D01*
X30161407Y69995203D01*
X29591203Y70565407D01*
X28846195Y70874000D01*
X28046000Y70874000D01*
X28046000Y72225494D01*
X28068079Y72336492D01*
X28029969Y72528083D01*
X33793000Y66765052D01*
X33793000Y66765052D01*
G37*
X33793000Y66765052D02*
X33793001Y31747000D01*
X30306819Y31747000D01*
X20428217Y41625601D01*
X20437000Y41646805D01*
X20437000Y42453195D01*
X20128407Y43198203D01*
X19558203Y43768407D01*
X18813195Y44077000D01*
X18006805Y44077000D01*
X17261797Y43768407D01*
X16691593Y43198203D01*
X16383000Y42453195D01*
X16383000Y41646805D01*
X16691593Y40901797D01*
X17261797Y40331593D01*
X18006805Y40023000D01*
X18813195Y40023000D01*
X18834399Y40031783D01*
X28246182Y30620000D01*
X25311580Y27685398D01*
X25217479Y27622522D01*
X25137271Y27502482D01*
X24968390Y27249734D01*
X24880921Y26810000D01*
X24903001Y26698997D01*
X24903000Y20363926D01*
X24650696Y20111622D01*
X24403000Y19513630D01*
X24403000Y18866370D01*
X24650696Y18268378D01*
X25108378Y17810696D01*
X25706370Y17563000D01*
X26353630Y17563000D01*
X26951622Y17810696D01*
X27409304Y18268378D01*
X27516167Y18526370D01*
X28724940Y18526370D01*
X28724940Y16935750D01*
X28883690Y16777000D01*
X30983000Y16777000D01*
X30983000Y18876310D01*
X31237000Y18876310D01*
X31237000Y16777000D01*
X33336310Y16777000D01*
X33495060Y16935750D01*
X33495060Y18526370D01*
X33398387Y18759759D01*
X33219758Y18938387D01*
X32986369Y19035060D01*
X31395750Y19035060D01*
X31237000Y18876310D01*
X30983000Y18876310D01*
X30824250Y19035060D01*
X29233631Y19035060D01*
X29000242Y18938387D01*
X28821613Y18759759D01*
X28724940Y18526370D01*
X27516167Y18526370D01*
X27657000Y18866370D01*
X27657000Y19513630D01*
X27409304Y20111622D01*
X27157000Y20363926D01*
X27157000Y26343182D01*
X30306818Y29493000D01*
X33793000Y29493000D01*
X33793001Y27062318D01*
X33793000Y27062313D01*
X33770921Y26951314D01*
X33793000Y26840316D01*
X33793000Y26699002D01*
X33858389Y26370268D01*
X34107478Y25997478D01*
X34480267Y25748389D01*
X34541234Y25736262D01*
X35538967Y24738529D01*
X35151507Y24815599D01*
X35132116Y24815599D01*
X35121124Y24832050D01*
X35027022Y24894926D01*
X33536347Y26385601D01*
X33545130Y26406805D01*
X33545130Y27213195D01*
X33236537Y27958203D01*
X32666333Y28528407D01*
X31921325Y28837000D01*
X31114935Y28837000D01*
X30369927Y28528407D01*
X29799723Y27958203D01*
X29491130Y27213195D01*
X29491130Y26406805D01*
X29799723Y25661797D01*
X30369927Y25091593D01*
X31114935Y24783000D01*
X31921325Y24783000D01*
X31942529Y24791783D01*
X31978404Y24755907D01*
X31785362Y24717509D01*
X31226147Y24343853D01*
X30852491Y23784638D01*
X30721281Y23124999D01*
X30852491Y22465360D01*
X31226147Y21906145D01*
X31785362Y21532489D01*
X32278495Y21434399D01*
X32611507Y21434399D01*
X33104640Y21532489D01*
X33663855Y21906145D01*
X33715001Y21982690D01*
X33766147Y21906145D01*
X34325362Y21532489D01*
X34818495Y21434399D01*
X35151507Y21434399D01*
X35644640Y21532489D01*
X36203855Y21906145D01*
X36255001Y21982690D01*
X36306147Y21906145D01*
X36865362Y21532489D01*
X37358495Y21434399D01*
X37691507Y21434399D01*
X38184640Y21532489D01*
X38743855Y21906145D01*
X38931358Y22186762D01*
X39176511Y21918178D01*
X39705974Y21670031D01*
X39938001Y21790530D01*
X39938001Y22997999D01*
X39918001Y22997999D01*
X39918001Y23251999D01*
X39938001Y23251999D01*
X39938001Y23271999D01*
X40192001Y23271999D01*
X40192001Y23251999D01*
X42478001Y23251999D01*
X42478001Y23271999D01*
X42732001Y23271999D01*
X42732001Y23251999D01*
X42752001Y23251999D01*
X42752001Y22997999D01*
X42732001Y22997999D01*
X42732001Y22977999D01*
X42478001Y22977999D01*
X42478001Y22997999D01*
X40192001Y22997999D01*
X40192001Y21790530D01*
X40424028Y21670031D01*
X40953491Y21918178D01*
X41335001Y22336151D01*
X41716511Y21918178D01*
X42245974Y21670031D01*
X42388216Y21743902D01*
X40961314Y20317000D01*
X38840997Y20317000D01*
X38729999Y20339079D01*
X38619001Y20317000D01*
X38290267Y20251611D01*
X38290266Y20251610D01*
X38290265Y20251610D01*
X38258320Y20230265D01*
X37917478Y20002522D01*
X37854602Y19908421D01*
X37035396Y19089215D01*
X36702609Y19227060D01*
X35677391Y19227060D01*
X34730213Y18834726D01*
X34005274Y18109787D01*
X33612940Y17162609D01*
X33612940Y16137391D01*
X34005274Y15190213D01*
X34730213Y14465274D01*
X35677391Y14072940D01*
X36089213Y14072940D01*
X35983273Y13967000D01*
X27535000Y13967000D01*
X27424002Y13989079D01*
X27313004Y13967000D01*
X27313003Y13967000D01*
X26984269Y13901611D01*
X26984268Y13901610D01*
X26984267Y13901610D01*
X26880192Y13832069D01*
X26611480Y13652522D01*
X26548604Y13558421D01*
X25875060Y12884877D01*
X25875060Y13824250D01*
X25716310Y13983000D01*
X23617000Y13983000D01*
X23617000Y13963000D01*
X23363000Y13963000D01*
X23363000Y13983000D01*
X21263690Y13983000D01*
X21104940Y13824250D01*
X21104940Y12233630D01*
X21132539Y12166999D01*
X20111512Y12166999D01*
X20594726Y12650213D01*
X20987060Y13597391D01*
X20987060Y14622609D01*
X20594726Y15569787D01*
X20178143Y15986370D01*
X21104940Y15986370D01*
X21104940Y14395750D01*
X21263690Y14237000D01*
X23363000Y14237000D01*
X23363000Y16336310D01*
X23617000Y16336310D01*
X23617000Y14237000D01*
X25716310Y14237000D01*
X25875060Y14395750D01*
X25875060Y15986370D01*
X25778387Y16219759D01*
X25633896Y16364250D01*
X28724940Y16364250D01*
X28724940Y14773630D01*
X28821613Y14540241D01*
X29000242Y14361613D01*
X29233631Y14264940D01*
X30824250Y14264940D01*
X30983000Y14423690D01*
X30983000Y16523000D01*
X31237000Y16523000D01*
X31237000Y14423690D01*
X31395750Y14264940D01*
X32986369Y14264940D01*
X33219758Y14361613D01*
X33398387Y14540241D01*
X33495060Y14773630D01*
X33495060Y16364250D01*
X33336310Y16523000D01*
X31237000Y16523000D01*
X30983000Y16523000D01*
X28883690Y16523000D01*
X28724940Y16364250D01*
X25633896Y16364250D01*
X25599758Y16398387D01*
X25366369Y16495060D01*
X23775750Y16495060D01*
X23617000Y16336310D01*
X23363000Y16336310D01*
X23204250Y16495060D01*
X21613631Y16495060D01*
X21380242Y16398387D01*
X21201613Y16219759D01*
X21104940Y15986370D01*
X20178143Y15986370D01*
X19869787Y16294726D01*
X19537000Y16432571D01*
X19537000Y17986262D01*
X19583001Y18016999D01*
X19942600Y18555176D01*
X20068874Y19190000D01*
X19942600Y19824824D01*
X19583001Y20363001D01*
X19044824Y20722600D01*
X18570242Y20817000D01*
X18249758Y20817000D01*
X17775176Y20722600D01*
X17236999Y20363001D01*
X16877400Y19824824D01*
X16751126Y19190000D01*
X16877400Y18555176D01*
X17236999Y18016999D01*
X17283000Y17986262D01*
X17283001Y16432571D01*
X16950213Y16294726D01*
X16466999Y15811512D01*
X16466999Y19819001D01*
X16489078Y19929999D01*
X16448273Y20135138D01*
X16401610Y20369732D01*
X16152521Y20742521D01*
X16058417Y20805399D01*
X15727000Y21136816D01*
X15727000Y66069002D01*
X15749079Y66180000D01*
X15721430Y66319000D01*
X15713822Y66357248D01*
X15886001Y66323000D01*
X15996999Y66300921D01*
X16107997Y66323000D01*
X17936318Y66323000D01*
X18047316Y66300921D01*
X18158314Y66323000D01*
X18158315Y66323000D01*
X18487049Y66388389D01*
X18859838Y66637478D01*
X18922716Y66731582D01*
X21479422Y69288287D01*
X21573523Y69351163D01*
X21779561Y69659521D01*
X21822611Y69723950D01*
X21822611Y69723951D01*
X21822612Y69723952D01*
X21888001Y70052686D01*
X21888001Y70052687D01*
X21899949Y70112754D01*
X21979855Y70166145D01*
X22031001Y70242690D01*
X22082147Y70166145D01*
X22641362Y69792489D01*
X23134495Y69694399D01*
X23467507Y69694399D01*
X23960640Y69792489D01*
X24395000Y70082720D01*
X24395001Y66069001D01*
X24460390Y65740267D01*
X24709479Y65367478D01*
X25082268Y65118389D01*
X25173296Y65100282D01*
X25336267Y64991389D01*
X25665001Y64926000D01*
X29509810Y64926000D01*
X29518593Y64904797D01*
X30088797Y64334593D01*
X30833805Y64026000D01*
X31640195Y64026000D01*
X32385203Y64334593D01*
X32955407Y64904797D01*
X33264000Y65649805D01*
X33264000Y66456195D01*
X32955407Y67201203D01*
X32385203Y67771407D01*
X31640195Y68080000D01*
X30833805Y68080000D01*
X30212750Y67822750D01*
X30470000Y68443805D01*
X30470000Y69250195D01*
X30161407Y69995203D01*
X29591203Y70565407D01*
X28846195Y70874000D01*
X28046000Y70874000D01*
X28046000Y72225494D01*
X28068079Y72336492D01*
X28029969Y72528083D01*
X33793000Y66765052D01*
G36*
X92186147Y29526145D02*
X92456175Y29345718D01*
X92122313Y28979946D01*
X91950043Y28564025D01*
X92071184Y28331999D01*
X93278001Y28331999D01*
X93278001Y28351999D01*
X93532001Y28351999D01*
X93532001Y28331999D01*
X95818001Y28331999D01*
X95818001Y28351999D01*
X96072001Y28351999D01*
X96072001Y28331999D01*
X97278818Y28331999D01*
X97399959Y28564025D01*
X97227689Y28979946D01*
X96893827Y29345718D01*
X97163855Y29526145D01*
X97225230Y29617999D01*
X99098183Y29617999D01*
X108974602Y19741579D01*
X109037478Y19647478D01*
X109290558Y19478376D01*
X109410265Y19398390D01*
X109410266Y19398390D01*
X109410267Y19398389D01*
X109739001Y19333000D01*
X109849999Y19310921D01*
X109960997Y19333000D01*
X111109771Y19333000D01*
X111171146Y19241146D01*
X111247691Y19190000D01*
X111171146Y19138854D01*
X111109771Y19047000D01*
X109037190Y19047000D01*
X109028407Y19068203D01*
X108458203Y19638407D01*
X107713195Y19947000D01*
X106906805Y19947000D01*
X106885601Y19938217D01*
X106788217Y20035601D01*
X106797000Y20056805D01*
X106797000Y20863195D01*
X106488407Y21608203D01*
X105918203Y22178407D01*
X105173195Y22487000D01*
X104366805Y22487000D01*
X103621797Y22178407D01*
X103051593Y21608203D01*
X102743000Y20863195D01*
X102743000Y20056805D01*
X103051593Y19311797D01*
X103621797Y18741593D01*
X104366805Y18433000D01*
X105173195Y18433000D01*
X105194399Y18441783D01*
X105291783Y18344399D01*
X105283000Y18323195D01*
X105283000Y17516805D01*
X105591593Y16771797D01*
X106161797Y16201593D01*
X106906805Y15893000D01*
X107713195Y15893000D01*
X108458203Y16201593D01*
X109028407Y16771797D01*
X109037190Y16793000D01*
X111109771Y16793000D01*
X111171146Y16701146D01*
X111730361Y16327490D01*
X112223494Y16229400D01*
X112556506Y16229400D01*
X113049639Y16327490D01*
X113608854Y16701146D01*
X113796357Y16981763D01*
X114041510Y16713179D01*
X114570973Y16465032D01*
X114803000Y16585531D01*
X114803000Y17793000D01*
X114783000Y17793000D01*
X114783000Y18047000D01*
X114803000Y18047000D01*
X114803000Y18067000D01*
X115057000Y18067000D01*
X115057000Y18047000D01*
X115077000Y18047000D01*
X115077000Y17793000D01*
X115057000Y17793000D01*
X115057000Y16585531D01*
X115289027Y16465032D01*
X115818490Y16713179D01*
X116212688Y17145053D01*
X116343001Y17459674D01*
X116343000Y13967000D01*
X105236818Y13967000D01*
X91357845Y27845973D01*
X91950043Y27845973D01*
X92122313Y27430052D01*
X92516511Y26998178D01*
X93045974Y26750031D01*
X93278001Y26870530D01*
X93278001Y28077999D01*
X93532001Y28077999D01*
X93532001Y26870530D01*
X93764028Y26750031D01*
X94293491Y26998178D01*
X94675001Y27416151D01*
X95056511Y26998178D01*
X95585974Y26750031D01*
X95818001Y26870530D01*
X95818001Y28077999D01*
X96072001Y28077999D01*
X96072001Y26870530D01*
X96304028Y26750031D01*
X96833491Y26998178D01*
X97227689Y27430052D01*
X97399959Y27845973D01*
X97278818Y28077999D01*
X96072001Y28077999D01*
X95818001Y28077999D01*
X93532001Y28077999D01*
X93278001Y28077999D01*
X92071184Y28077999D01*
X91950043Y27845973D01*
X91357845Y27845973D01*
X90657000Y28546818D01*
X90657000Y29617999D01*
X92124772Y29617999D01*
X92186147Y29526145D01*
X92186147Y29526145D01*
G37*
X92186147Y29526145D02*
X92456175Y29345718D01*
X92122313Y28979946D01*
X91950043Y28564025D01*
X92071184Y28331999D01*
X93278001Y28331999D01*
X93278001Y28351999D01*
X93532001Y28351999D01*
X93532001Y28331999D01*
X95818001Y28331999D01*
X95818001Y28351999D01*
X96072001Y28351999D01*
X96072001Y28331999D01*
X97278818Y28331999D01*
X97399959Y28564025D01*
X97227689Y28979946D01*
X96893827Y29345718D01*
X97163855Y29526145D01*
X97225230Y29617999D01*
X99098183Y29617999D01*
X108974602Y19741579D01*
X109037478Y19647478D01*
X109290558Y19478376D01*
X109410265Y19398390D01*
X109410266Y19398390D01*
X109410267Y19398389D01*
X109739001Y19333000D01*
X109849999Y19310921D01*
X109960997Y19333000D01*
X111109771Y19333000D01*
X111171146Y19241146D01*
X111247691Y19190000D01*
X111171146Y19138854D01*
X111109771Y19047000D01*
X109037190Y19047000D01*
X109028407Y19068203D01*
X108458203Y19638407D01*
X107713195Y19947000D01*
X106906805Y19947000D01*
X106885601Y19938217D01*
X106788217Y20035601D01*
X106797000Y20056805D01*
X106797000Y20863195D01*
X106488407Y21608203D01*
X105918203Y22178407D01*
X105173195Y22487000D01*
X104366805Y22487000D01*
X103621797Y22178407D01*
X103051593Y21608203D01*
X102743000Y20863195D01*
X102743000Y20056805D01*
X103051593Y19311797D01*
X103621797Y18741593D01*
X104366805Y18433000D01*
X105173195Y18433000D01*
X105194399Y18441783D01*
X105291783Y18344399D01*
X105283000Y18323195D01*
X105283000Y17516805D01*
X105591593Y16771797D01*
X106161797Y16201593D01*
X106906805Y15893000D01*
X107713195Y15893000D01*
X108458203Y16201593D01*
X109028407Y16771797D01*
X109037190Y16793000D01*
X111109771Y16793000D01*
X111171146Y16701146D01*
X111730361Y16327490D01*
X112223494Y16229400D01*
X112556506Y16229400D01*
X113049639Y16327490D01*
X113608854Y16701146D01*
X113796357Y16981763D01*
X114041510Y16713179D01*
X114570973Y16465032D01*
X114803000Y16585531D01*
X114803000Y17793000D01*
X114783000Y17793000D01*
X114783000Y18047000D01*
X114803000Y18047000D01*
X114803000Y18067000D01*
X115057000Y18067000D01*
X115057000Y18047000D01*
X115077000Y18047000D01*
X115077000Y17793000D01*
X115057000Y17793000D01*
X115057000Y16585531D01*
X115289027Y16465032D01*
X115818490Y16713179D01*
X116212688Y17145053D01*
X116343001Y17459674D01*
X116343000Y13967000D01*
X105236818Y13967000D01*
X91357845Y27845973D01*
X91950043Y27845973D01*
X92122313Y27430052D01*
X92516511Y26998178D01*
X93045974Y26750031D01*
X93278001Y26870530D01*
X93278001Y28077999D01*
X93532001Y28077999D01*
X93532001Y26870530D01*
X93764028Y26750031D01*
X94293491Y26998178D01*
X94675001Y27416151D01*
X95056511Y26998178D01*
X95585974Y26750031D01*
X95818001Y26870530D01*
X95818001Y28077999D01*
X96072001Y28077999D01*
X96072001Y26870530D01*
X96304028Y26750031D01*
X96833491Y26998178D01*
X97227689Y27430052D01*
X97399959Y27845973D01*
X97278818Y28077999D01*
X96072001Y28077999D01*
X95818001Y28077999D01*
X93532001Y28077999D01*
X93278001Y28077999D01*
X92071184Y28077999D01*
X91950043Y27845973D01*
X91357845Y27845973D01*
X90657000Y28546818D01*
X90657000Y29617999D01*
X92124772Y29617999D01*
X92186147Y29526145D01*
G36*
X125233000Y55770817D02*
X120847215Y51385031D01*
X120753114Y51322155D01*
X120690238Y51228054D01*
X120504025Y50949367D01*
X120416556Y50509633D01*
X120438636Y50398630D01*
X120438635Y42792825D01*
X120417432Y42784042D01*
X119847228Y42213838D01*
X119569785Y41544033D01*
X117075400Y44038418D01*
X117012522Y44132522D01*
X116639733Y44381611D01*
X116310999Y44447000D01*
X116310998Y44447000D01*
X116200000Y44469079D01*
X116089002Y44447000D01*
X109037190Y44447000D01*
X109028407Y44468203D01*
X108458203Y45038407D01*
X107713195Y45347000D01*
X106906805Y45347000D01*
X106161797Y45038407D01*
X105591593Y44468203D01*
X105283000Y43723195D01*
X105283000Y42916805D01*
X105591593Y42171797D01*
X106161797Y41601593D01*
X106906805Y41293000D01*
X107713195Y41293000D01*
X108458203Y41601593D01*
X109028407Y42171797D01*
X109037190Y42193000D01*
X115733182Y42193000D01*
X122843051Y35083130D01*
X122843051Y34463559D01*
X122428203Y34878407D01*
X121683195Y35187000D01*
X120876805Y35187000D01*
X120855601Y35178217D01*
X119615400Y36418418D01*
X119552522Y36512522D01*
X119179733Y36761611D01*
X118850999Y36827000D01*
X118850998Y36827000D01*
X118740000Y36849079D01*
X118629002Y36827000D01*
X116210229Y36827000D01*
X116148854Y36918854D01*
X115589639Y37292510D01*
X115096506Y37390600D01*
X114763494Y37390600D01*
X114270361Y37292510D01*
X113762235Y36952991D01*
X113613298Y37101927D01*
X113379909Y37198600D01*
X112675750Y37198600D01*
X112517000Y37039850D01*
X112517000Y35827000D01*
X112537000Y35827000D01*
X112537000Y35573000D01*
X112517000Y35573000D01*
X112517000Y35553000D01*
X112263000Y35553000D01*
X112263000Y35573000D01*
X111050150Y35573000D01*
X110891400Y35414250D01*
X110891400Y34710090D01*
X110988073Y34476701D01*
X111137010Y34327765D01*
X111109771Y34287000D01*
X110316819Y34287000D01*
X107913909Y36689910D01*
X110891400Y36689910D01*
X110891400Y35985750D01*
X111050150Y35827000D01*
X112263000Y35827000D01*
X112263000Y37039850D01*
X112104250Y37198600D01*
X111400091Y37198600D01*
X111166702Y37101927D01*
X110988073Y36923299D01*
X110891400Y36689910D01*
X107913909Y36689910D01*
X100440401Y44163417D01*
X100377523Y44257521D01*
X100004734Y44506610D01*
X99676000Y44571999D01*
X99675999Y44571999D01*
X99565001Y44594078D01*
X99454003Y44571999D01*
X97225230Y44571999D01*
X97163855Y44663853D01*
X97087310Y44714999D01*
X97163855Y44766145D01*
X97225230Y44857999D01*
X98736452Y44857999D01*
X98847450Y44835920D01*
X98958448Y44857999D01*
X98958449Y44857999D01*
X99287183Y44923388D01*
X99659972Y45172477D01*
X99722850Y45266581D01*
X102743000Y48286731D01*
X102743000Y47996805D01*
X103051593Y47251797D01*
X103621797Y46681593D01*
X104366805Y46373000D01*
X105173195Y46373000D01*
X105918203Y46681593D01*
X106488407Y47251797D01*
X106618353Y47565513D01*
X111323071Y48349633D01*
X111730361Y48077490D01*
X112223494Y47979400D01*
X112556506Y47979400D01*
X113049639Y48077490D01*
X113608854Y48451146D01*
X113796357Y48731763D01*
X114041510Y48463179D01*
X114570973Y48215032D01*
X114803000Y48335531D01*
X114803000Y49543000D01*
X115057000Y49543000D01*
X115057000Y48335531D01*
X115289027Y48215032D01*
X115818490Y48463179D01*
X116212688Y48895053D01*
X116384958Y49310974D01*
X116263817Y49543000D01*
X115057000Y49543000D01*
X114803000Y49543000D01*
X114783000Y49543000D01*
X114783000Y49797000D01*
X114803000Y49797000D01*
X114803000Y49817000D01*
X115057000Y49817000D01*
X115057000Y49797000D01*
X116263817Y49797000D01*
X116384958Y50029026D01*
X116212688Y50444947D01*
X115878826Y50810719D01*
X116148854Y50991146D01*
X116522510Y51550361D01*
X116653720Y52210000D01*
X116522510Y52869639D01*
X116148854Y53428854D01*
X116072309Y53480000D01*
X116148854Y53531146D01*
X116210229Y53623000D01*
X117359002Y53623000D01*
X117470000Y53600921D01*
X117580998Y53623000D01*
X117580999Y53623000D01*
X117909733Y53688389D01*
X118282522Y53937478D01*
X118345400Y54031582D01*
X125233001Y60919183D01*
X125233000Y55770817D01*
X125233000Y55770817D01*
G37*
X125233000Y55770817D02*
X120847215Y51385031D01*
X120753114Y51322155D01*
X120690238Y51228054D01*
X120504025Y50949367D01*
X120416556Y50509633D01*
X120438636Y50398630D01*
X120438635Y42792825D01*
X120417432Y42784042D01*
X119847228Y42213838D01*
X119569785Y41544033D01*
X117075400Y44038418D01*
X117012522Y44132522D01*
X116639733Y44381611D01*
X116310999Y44447000D01*
X116310998Y44447000D01*
X116200000Y44469079D01*
X116089002Y44447000D01*
X109037190Y44447000D01*
X109028407Y44468203D01*
X108458203Y45038407D01*
X107713195Y45347000D01*
X106906805Y45347000D01*
X106161797Y45038407D01*
X105591593Y44468203D01*
X105283000Y43723195D01*
X105283000Y42916805D01*
X105591593Y42171797D01*
X106161797Y41601593D01*
X106906805Y41293000D01*
X107713195Y41293000D01*
X108458203Y41601593D01*
X109028407Y42171797D01*
X109037190Y42193000D01*
X115733182Y42193000D01*
X122843051Y35083130D01*
X122843051Y34463559D01*
X122428203Y34878407D01*
X121683195Y35187000D01*
X120876805Y35187000D01*
X120855601Y35178217D01*
X119615400Y36418418D01*
X119552522Y36512522D01*
X119179733Y36761611D01*
X118850999Y36827000D01*
X118850998Y36827000D01*
X118740000Y36849079D01*
X118629002Y36827000D01*
X116210229Y36827000D01*
X116148854Y36918854D01*
X115589639Y37292510D01*
X115096506Y37390600D01*
X114763494Y37390600D01*
X114270361Y37292510D01*
X113762235Y36952991D01*
X113613298Y37101927D01*
X113379909Y37198600D01*
X112675750Y37198600D01*
X112517000Y37039850D01*
X112517000Y35827000D01*
X112537000Y35827000D01*
X112537000Y35573000D01*
X112517000Y35573000D01*
X112517000Y35553000D01*
X112263000Y35553000D01*
X112263000Y35573000D01*
X111050150Y35573000D01*
X110891400Y35414250D01*
X110891400Y34710090D01*
X110988073Y34476701D01*
X111137010Y34327765D01*
X111109771Y34287000D01*
X110316819Y34287000D01*
X107913909Y36689910D01*
X110891400Y36689910D01*
X110891400Y35985750D01*
X111050150Y35827000D01*
X112263000Y35827000D01*
X112263000Y37039850D01*
X112104250Y37198600D01*
X111400091Y37198600D01*
X111166702Y37101927D01*
X110988073Y36923299D01*
X110891400Y36689910D01*
X107913909Y36689910D01*
X100440401Y44163417D01*
X100377523Y44257521D01*
X100004734Y44506610D01*
X99676000Y44571999D01*
X99675999Y44571999D01*
X99565001Y44594078D01*
X99454003Y44571999D01*
X97225230Y44571999D01*
X97163855Y44663853D01*
X97087310Y44714999D01*
X97163855Y44766145D01*
X97225230Y44857999D01*
X98736452Y44857999D01*
X98847450Y44835920D01*
X98958448Y44857999D01*
X98958449Y44857999D01*
X99287183Y44923388D01*
X99659972Y45172477D01*
X99722850Y45266581D01*
X102743000Y48286731D01*
X102743000Y47996805D01*
X103051593Y47251797D01*
X103621797Y46681593D01*
X104366805Y46373000D01*
X105173195Y46373000D01*
X105918203Y46681593D01*
X106488407Y47251797D01*
X106618353Y47565513D01*
X111323071Y48349633D01*
X111730361Y48077490D01*
X112223494Y47979400D01*
X112556506Y47979400D01*
X113049639Y48077490D01*
X113608854Y48451146D01*
X113796357Y48731763D01*
X114041510Y48463179D01*
X114570973Y48215032D01*
X114803000Y48335531D01*
X114803000Y49543000D01*
X115057000Y49543000D01*
X115057000Y48335531D01*
X115289027Y48215032D01*
X115818490Y48463179D01*
X116212688Y48895053D01*
X116384958Y49310974D01*
X116263817Y49543000D01*
X115057000Y49543000D01*
X114803000Y49543000D01*
X114783000Y49543000D01*
X114783000Y49797000D01*
X114803000Y49797000D01*
X114803000Y49817000D01*
X115057000Y49817000D01*
X115057000Y49797000D01*
X116263817Y49797000D01*
X116384958Y50029026D01*
X116212688Y50444947D01*
X115878826Y50810719D01*
X116148854Y50991146D01*
X116522510Y51550361D01*
X116653720Y52210000D01*
X116522510Y52869639D01*
X116148854Y53428854D01*
X116072309Y53480000D01*
X116148854Y53531146D01*
X116210229Y53623000D01*
X117359002Y53623000D01*
X117470000Y53600921D01*
X117580998Y53623000D01*
X117580999Y53623000D01*
X117909733Y53688389D01*
X118282522Y53937478D01*
X118345400Y54031582D01*
X125233001Y60919183D01*
X125233000Y55770817D01*
G36*
X115751593Y80028203D02*
X115443000Y79283195D01*
X115443000Y78476805D01*
X115451783Y78455601D01*
X114211580Y77215398D01*
X114117479Y77152522D01*
X114054603Y77058421D01*
X113868390Y76779734D01*
X113780921Y76340000D01*
X113803001Y76228997D01*
X113803000Y68730229D01*
X113762235Y68702991D01*
X113613298Y68851927D01*
X113379909Y68948600D01*
X112675750Y68948600D01*
X112517000Y68789850D01*
X112517000Y67577000D01*
X112537000Y67577000D01*
X112537000Y67323000D01*
X112517000Y67323000D01*
X112517000Y67303000D01*
X112263000Y67303000D01*
X112263000Y67323000D01*
X111050150Y67323000D01*
X110891400Y67164250D01*
X110891400Y66460090D01*
X110988073Y66226701D01*
X111137010Y66077765D01*
X111109771Y66037000D01*
X109037190Y66037000D01*
X109028407Y66058203D01*
X108458203Y66628407D01*
X107713195Y66937000D01*
X106906805Y66937000D01*
X106236999Y66659557D01*
X106236999Y68439910D01*
X110891400Y68439910D01*
X110891400Y67735750D01*
X111050150Y67577000D01*
X112263000Y67577000D01*
X112263000Y68789850D01*
X112104250Y68948600D01*
X111400091Y68948600D01*
X111166702Y68851927D01*
X110988073Y68673299D01*
X110891400Y68439910D01*
X106236999Y68439910D01*
X106236999Y76929183D01*
X109600817Y80293000D01*
X116016390Y80293000D01*
X115751593Y80028203D01*
X115751593Y80028203D01*
G37*
X115751593Y80028203D02*
X115443000Y79283195D01*
X115443000Y78476805D01*
X115451783Y78455601D01*
X114211580Y77215398D01*
X114117479Y77152522D01*
X114054603Y77058421D01*
X113868390Y76779734D01*
X113780921Y76340000D01*
X113803001Y76228997D01*
X113803000Y68730229D01*
X113762235Y68702991D01*
X113613298Y68851927D01*
X113379909Y68948600D01*
X112675750Y68948600D01*
X112517000Y68789850D01*
X112517000Y67577000D01*
X112537000Y67577000D01*
X112537000Y67323000D01*
X112517000Y67323000D01*
X112517000Y67303000D01*
X112263000Y67303000D01*
X112263000Y67323000D01*
X111050150Y67323000D01*
X110891400Y67164250D01*
X110891400Y66460090D01*
X110988073Y66226701D01*
X111137010Y66077765D01*
X111109771Y66037000D01*
X109037190Y66037000D01*
X109028407Y66058203D01*
X108458203Y66628407D01*
X107713195Y66937000D01*
X106906805Y66937000D01*
X106236999Y66659557D01*
X106236999Y68439910D01*
X110891400Y68439910D01*
X110891400Y67735750D01*
X111050150Y67577000D01*
X112263000Y67577000D01*
X112263000Y68789850D01*
X112104250Y68948600D01*
X111400091Y68948600D01*
X111166702Y68851927D01*
X110988073Y68673299D01*
X110891400Y68439910D01*
X106236999Y68439910D01*
X106236999Y76929183D01*
X109600817Y80293000D01*
X116016390Y80293000D01*
X115751593Y80028203D01*
G36*
X15387400Y83229750D02*
X15546150Y83071000D01*
X16759000Y83071000D01*
X16759000Y83091000D01*
X17013000Y83091000D01*
X17013000Y83071000D01*
X17033000Y83071000D01*
X17033000Y82817000D01*
X17013000Y82817000D01*
X17013000Y81604150D01*
X17171750Y81445400D01*
X17875910Y81445400D01*
X18109299Y81542073D01*
X18258235Y81691010D01*
X18287052Y81671755D01*
X18364389Y81282953D01*
X18588862Y80947005D01*
X18613478Y80910164D01*
X18986267Y80661075D01*
X19426000Y80573607D01*
X19536999Y80595686D01*
X19962366Y80595686D01*
X24885083Y75672969D01*
X24804490Y75689000D01*
X24804489Y75689000D01*
X24693491Y75711079D01*
X24582493Y75689000D01*
X22965997Y75689000D01*
X22854999Y75711079D01*
X22744001Y75689000D01*
X22676685Y75675610D01*
X16537699Y75675610D01*
X15152020Y77061288D01*
X15152020Y82658250D01*
X15387400Y82658250D01*
X15387400Y81954091D01*
X15484073Y81720702D01*
X15662701Y81542073D01*
X15896090Y81445400D01*
X16600250Y81445400D01*
X16759000Y81604150D01*
X16759000Y82817000D01*
X15546150Y82817000D01*
X15387400Y82658250D01*
X15152020Y82658250D01*
X15152020Y83377516D01*
X15387400Y83612896D01*
X15387400Y83229750D01*
X15387400Y83229750D01*
G37*
X15387400Y83229750D02*
X15546150Y83071000D01*
X16759000Y83071000D01*
X16759000Y83091000D01*
X17013000Y83091000D01*
X17013000Y83071000D01*
X17033000Y83071000D01*
X17033000Y82817000D01*
X17013000Y82817000D01*
X17013000Y81604150D01*
X17171750Y81445400D01*
X17875910Y81445400D01*
X18109299Y81542073D01*
X18258235Y81691010D01*
X18287052Y81671755D01*
X18364389Y81282953D01*
X18588862Y80947005D01*
X18613478Y80910164D01*
X18986267Y80661075D01*
X19426000Y80573607D01*
X19536999Y80595686D01*
X19962366Y80595686D01*
X24885083Y75672969D01*
X24804490Y75689000D01*
X24804489Y75689000D01*
X24693491Y75711079D01*
X24582493Y75689000D01*
X22965997Y75689000D01*
X22854999Y75711079D01*
X22744001Y75689000D01*
X22676685Y75675610D01*
X16537699Y75675610D01*
X15152020Y77061288D01*
X15152020Y82658250D01*
X15387400Y82658250D01*
X15387400Y81954091D01*
X15484073Y81720702D01*
X15662701Y81542073D01*
X15896090Y81445400D01*
X16600250Y81445400D01*
X16759000Y81604150D01*
X16759000Y82817000D01*
X15546150Y82817000D01*
X15387400Y82658250D01*
X15152020Y82658250D01*
X15152020Y83377516D01*
X15387400Y83612896D01*
X15387400Y83229750D01*
G36*
X116089000Y91021190D02*
X116067797Y91012407D01*
X115497593Y90442203D01*
X115488810Y90421000D01*
X83935872Y90421000D01*
X83904291Y90468266D01*
X84060327Y90624301D01*
X84157000Y90857690D01*
X84157000Y91548250D01*
X83998250Y91707000D01*
X82799000Y91707000D01*
X82799000Y91687000D01*
X82545000Y91687000D01*
X82545000Y91707000D01*
X81345750Y91707000D01*
X81187000Y91548250D01*
X81187000Y90857690D01*
X81283673Y90624301D01*
X81439709Y90468266D01*
X81092301Y89948333D01*
X80962146Y89294000D01*
X81092301Y88639667D01*
X81462951Y88084951D01*
X81554170Y88024000D01*
X81462951Y87963049D01*
X81092301Y87408333D01*
X80962146Y86754000D01*
X81092301Y86099667D01*
X81462951Y85544951D01*
X81554170Y85484000D01*
X81462951Y85423049D01*
X81092301Y84868333D01*
X80962146Y84214000D01*
X81092301Y83559667D01*
X81462951Y83004951D01*
X81545000Y82950127D01*
X81545001Y81464494D01*
X81522921Y81353491D01*
X81610390Y80913757D01*
X81723096Y80745081D01*
X81859479Y80540969D01*
X81953580Y80478093D01*
X84456672Y77975000D01*
X81308623Y77975000D01*
X76002205Y83281418D01*
X75939327Y83375522D01*
X75566538Y83624611D01*
X75237804Y83690000D01*
X75237803Y83690000D01*
X75126805Y83712079D01*
X75015807Y83690000D01*
X72395229Y83690000D01*
X72367991Y83730765D01*
X72516927Y83879702D01*
X72613600Y84113091D01*
X72613600Y84817250D01*
X72454850Y84976000D01*
X71242000Y84976000D01*
X71242000Y84956000D01*
X70988000Y84956000D01*
X70988000Y84976000D01*
X70968000Y84976000D01*
X70968000Y85230000D01*
X70988000Y85230000D01*
X70988000Y86442850D01*
X71242000Y86442850D01*
X71242000Y85230000D01*
X72454850Y85230000D01*
X72613600Y85388750D01*
X72613600Y86092909D01*
X72516927Y86326298D01*
X72338299Y86504927D01*
X72104910Y86601600D01*
X71400750Y86601600D01*
X71242000Y86442850D01*
X70988000Y86442850D01*
X70829250Y86601600D01*
X70125090Y86601600D01*
X69891701Y86504927D01*
X69742765Y86355990D01*
X69702000Y86383229D01*
X69702000Y92810310D01*
X81187000Y92810310D01*
X81187000Y92119750D01*
X81345750Y91961000D01*
X82545000Y91961000D01*
X82545000Y93160250D01*
X82799000Y93160250D01*
X82799000Y91961000D01*
X83998250Y91961000D01*
X84157000Y92119750D01*
X84157000Y92810310D01*
X84060327Y93043699D01*
X83881698Y93222327D01*
X83648309Y93319000D01*
X82957750Y93319000D01*
X82799000Y93160250D01*
X82545000Y93160250D01*
X82386250Y93319000D01*
X81695691Y93319000D01*
X81462302Y93222327D01*
X81283673Y93043699D01*
X81187000Y92810310D01*
X69702000Y92810310D01*
X69702000Y96803000D01*
X116089001Y96803000D01*
X116089000Y91021190D01*
X116089000Y91021190D01*
G37*
X116089000Y91021190D02*
X116067797Y91012407D01*
X115497593Y90442203D01*
X115488810Y90421000D01*
X83935872Y90421000D01*
X83904291Y90468266D01*
X84060327Y90624301D01*
X84157000Y90857690D01*
X84157000Y91548250D01*
X83998250Y91707000D01*
X82799000Y91707000D01*
X82799000Y91687000D01*
X82545000Y91687000D01*
X82545000Y91707000D01*
X81345750Y91707000D01*
X81187000Y91548250D01*
X81187000Y90857690D01*
X81283673Y90624301D01*
X81439709Y90468266D01*
X81092301Y89948333D01*
X80962146Y89294000D01*
X81092301Y88639667D01*
X81462951Y88084951D01*
X81554170Y88024000D01*
X81462951Y87963049D01*
X81092301Y87408333D01*
X80962146Y86754000D01*
X81092301Y86099667D01*
X81462951Y85544951D01*
X81554170Y85484000D01*
X81462951Y85423049D01*
X81092301Y84868333D01*
X80962146Y84214000D01*
X81092301Y83559667D01*
X81462951Y83004951D01*
X81545000Y82950127D01*
X81545001Y81464494D01*
X81522921Y81353491D01*
X81610390Y80913757D01*
X81723096Y80745081D01*
X81859479Y80540969D01*
X81953580Y80478093D01*
X84456672Y77975000D01*
X81308623Y77975000D01*
X76002205Y83281418D01*
X75939327Y83375522D01*
X75566538Y83624611D01*
X75237804Y83690000D01*
X75237803Y83690000D01*
X75126805Y83712079D01*
X75015807Y83690000D01*
X72395229Y83690000D01*
X72367991Y83730765D01*
X72516927Y83879702D01*
X72613600Y84113091D01*
X72613600Y84817250D01*
X72454850Y84976000D01*
X71242000Y84976000D01*
X71242000Y84956000D01*
X70988000Y84956000D01*
X70988000Y84976000D01*
X70968000Y84976000D01*
X70968000Y85230000D01*
X70988000Y85230000D01*
X70988000Y86442850D01*
X71242000Y86442850D01*
X71242000Y85230000D01*
X72454850Y85230000D01*
X72613600Y85388750D01*
X72613600Y86092909D01*
X72516927Y86326298D01*
X72338299Y86504927D01*
X72104910Y86601600D01*
X71400750Y86601600D01*
X71242000Y86442850D01*
X70988000Y86442850D01*
X70829250Y86601600D01*
X70125090Y86601600D01*
X69891701Y86504927D01*
X69742765Y86355990D01*
X69702000Y86383229D01*
X69702000Y92810310D01*
X81187000Y92810310D01*
X81187000Y92119750D01*
X81345750Y91961000D01*
X82545000Y91961000D01*
X82545000Y93160250D01*
X82799000Y93160250D01*
X82799000Y91961000D01*
X83998250Y91961000D01*
X84157000Y92119750D01*
X84157000Y92810310D01*
X84060327Y93043699D01*
X83881698Y93222327D01*
X83648309Y93319000D01*
X82957750Y93319000D01*
X82799000Y93160250D01*
X82545000Y93160250D01*
X82386250Y93319000D01*
X81695691Y93319000D01*
X81462302Y93222327D01*
X81283673Y93043699D01*
X81187000Y92810310D01*
X69702000Y92810310D01*
X69702000Y96803000D01*
X116089001Y96803000D01*
X116089000Y91021190D01*
G04 #@! TD*
M02*
