M48
;DRILL file {KiCad (5.0.1)-4} date 28/10/2019 18:08:54
;FORMAT={-:-/ absolute / metric / decimal}
FMAT,2
METRIC,TZ
T1C0.800
T2C1.000
T3C1.016
T4C1.501
%
G90
G05
M71
T1
X5.71Y42.05
X5.71Y35.7
X16.886Y77.864
X17.14Y62.37
X18.41Y42.05
X18.41Y35.7
X28.443Y68.847
X31.237Y66.053
X31.518Y26.81
X47.62Y33.16
X47.62Y8.989
X51.43Y38.24
X51.43Y9.03
X55.24Y33.16
X55.24Y9.03
X59.05Y33.16
X59.05Y9.03
X62.86Y33.16
X62.86Y9.03
X74.544Y66.634
X78.133Y67.786
X102.23Y23.
X102.784Y44.036
X104.77Y48.4
X104.77Y20.46
X107.31Y64.91
X107.31Y43.32
X107.31Y17.92
X109.596Y91.834
X109.85Y78.88
X113.66Y94.12
X117.216Y89.294
X117.47Y78.88
X121.28Y94.12
X121.28Y33.16
X121.566Y41.066
X123.82Y57.29
X123.82Y48.4
X18.41Y19.19
X26.03Y19.19
T2
X82.672Y91.834
X82.672Y89.294
X82.672Y86.754
X82.672Y84.214
T3
X16.886Y85.484
X16.886Y82.944
X19.426Y85.484
X19.426Y82.944
X21.966Y85.484
X21.966Y82.944
X24.506Y85.484
X24.506Y82.944
X27.046Y85.484
X27.046Y82.944
X29.586Y85.484
X29.586Y82.944
X32.126Y85.484
X32.126Y82.944
X34.666Y85.484
X34.666Y82.944
X53.335Y85.103
X53.335Y82.563
X55.875Y85.103
X55.875Y82.563
X58.415Y85.103
X58.415Y82.563
X60.955Y85.103
X60.955Y82.563
X63.495Y85.103
X63.495Y82.563
X66.035Y85.103
X66.035Y82.563
X68.575Y85.103
X68.575Y82.563
X71.115Y85.103
X71.115Y82.563
X112.39Y35.7
X112.39Y33.16
X112.39Y30.62
X112.39Y28.08
X112.39Y25.54
X112.39Y23.
X112.39Y20.46
X112.39Y17.92
X114.93Y35.7
X114.93Y33.16
X114.93Y30.62
X114.93Y28.08
X114.93Y25.54
X114.93Y23.
X114.93Y20.46
X114.93Y17.92
X18.221Y71.385
X20.761Y71.385
X23.301Y71.385
X32.445Y23.125
X34.985Y23.125
X37.525Y23.125
X40.065Y23.125
X42.605Y23.125
X45.145Y23.125
X65.465Y23.125
X68.005Y71.385
X68.005Y23.125
X70.545Y71.385
X73.085Y71.385
X73.085Y23.125
X75.625Y71.385
X75.625Y23.125
X78.165Y71.385
X78.165Y23.125
X80.705Y71.385
X80.705Y23.125
X83.245Y71.385
X83.245Y23.125
X85.785Y71.385
X85.785Y23.125
X88.325Y23.125
X90.865Y23.125
X93.405Y71.385
X93.405Y68.845
X93.405Y66.305
X93.405Y63.765
X93.405Y61.225
X93.405Y58.685
X93.405Y56.145
X93.405Y53.605
X93.405Y51.065
X93.405Y48.525
X93.405Y45.985
X93.405Y43.445
X93.405Y40.905
X93.405Y38.365
X93.405Y35.825
X93.405Y33.285
X93.405Y30.745
X93.405Y28.205
X95.945Y71.385
X95.945Y68.845
X95.945Y66.305
X95.945Y63.765
X95.945Y61.225
X95.945Y58.685
X95.945Y56.145
X95.945Y53.605
X95.945Y51.065
X95.945Y48.525
X95.945Y45.985
X95.945Y43.445
X95.945Y40.905
X95.945Y38.365
X95.945Y35.825
X95.945Y33.285
X95.945Y30.745
X95.945Y28.205
X112.39Y67.45
X112.39Y64.91
X112.39Y62.37
X112.39Y59.83
X112.39Y57.29
X112.39Y54.75
X112.39Y52.21
X112.39Y49.67
X114.93Y67.45
X114.93Y64.91
X114.93Y62.37
X114.93Y59.83
X114.93Y57.29
X114.93Y54.75
X114.93Y52.21
X114.93Y49.67
T4
X31.11Y16.65
X36.19Y16.65
X18.41Y14.11
X23.49Y14.11
T0
M30
