G04 #@! TF.GenerationSoftware,KiCad,Pcbnew,(5.0.1)-4*
G04 #@! TF.CreationDate,2019-11-02T17:50:36+01:00*
G04 #@! TF.ProjectId,remote_greenhouse,72656D6F74655F677265656E686F7573,rev?*
G04 #@! TF.SameCoordinates,PX660b0c0PY82a7440*
G04 #@! TF.FileFunction,Copper,L1,Top,Signal*
G04 #@! TF.FilePolarity,Positive*
%FSLAX46Y46*%
G04 Gerber Fmt 4.6, Leading zero omitted, Abs format (unit mm)*
G04 Created by KiCad (PCBNEW (5.0.1)-4) date 02/11/2019 17:50:36*
%MOMM*%
%LPD*%
G01*
G04 APERTURE LIST*
G04 #@! TA.AperFunction,ComponentPad*
%ADD10R,1.727200X1.727200*%
G04 #@! TD*
G04 #@! TA.AperFunction,ComponentPad*
%ADD11O,1.727200X1.727200*%
G04 #@! TD*
G04 #@! TA.AperFunction,ComponentPad*
%ADD12R,2.500000X2.500000*%
G04 #@! TD*
G04 #@! TA.AperFunction,ComponentPad*
%ADD13C,2.500000*%
G04 #@! TD*
G04 #@! TA.AperFunction,ComponentPad*
%ADD14C,1.600000*%
G04 #@! TD*
G04 #@! TA.AperFunction,ComponentPad*
%ADD15O,1.600000X1.600000*%
G04 #@! TD*
G04 #@! TA.AperFunction,ComponentPad*
%ADD16C,2.000000*%
G04 #@! TD*
G04 #@! TA.AperFunction,ComponentPad*
%ADD17C,3.500120*%
G04 #@! TD*
G04 #@! TA.AperFunction,ComponentPad*
%ADD18R,3.500120X3.500120*%
G04 #@! TD*
G04 #@! TA.AperFunction,ComponentPad*
%ADD19R,2.300000X2.300000*%
G04 #@! TD*
G04 #@! TA.AperFunction,ComponentPad*
%ADD20C,2.300000*%
G04 #@! TD*
G04 #@! TA.AperFunction,ComponentPad*
%ADD21O,2.000000X1.905000*%
G04 #@! TD*
G04 #@! TA.AperFunction,ComponentPad*
%ADD22R,2.000000X1.905000*%
G04 #@! TD*
G04 #@! TA.AperFunction,ViaPad*
%ADD23C,2.000000*%
G04 #@! TD*
G04 #@! TA.AperFunction,Conductor*
%ADD24C,1.000000*%
G04 #@! TD*
G04 #@! TA.AperFunction,Conductor*
%ADD25C,0.600000*%
G04 #@! TD*
G04 #@! TA.AperFunction,Conductor*
%ADD26C,2.000000*%
G04 #@! TD*
G04 APERTURE END LIST*
D10*
G04 #@! TO.P,J2,1*
G04 #@! TO.N,GND*
X34345000Y59490000D03*
D11*
G04 #@! TO.P,J2,2*
G04 #@! TO.N,+5V*
X31805000Y59490000D03*
G04 #@! TO.P,J2,3*
G04 #@! TO.N,O2.0*
X34345000Y62030000D03*
G04 #@! TO.P,J2,4*
G04 #@! TO.N,O2.1*
X31805000Y62030000D03*
G04 #@! TO.P,J2,5*
G04 #@! TO.N,O2.2*
X34345000Y64570000D03*
G04 #@! TO.P,J2,6*
G04 #@! TO.N,O2.3*
X31805000Y64570000D03*
G04 #@! TO.P,J2,7*
G04 #@! TO.N,O2.4*
X34345000Y67110000D03*
G04 #@! TO.P,J2,8*
G04 #@! TO.N,O2.5*
X31805000Y67110000D03*
G04 #@! TO.P,J2,9*
G04 #@! TO.N,O2.6*
X34345000Y69650000D03*
G04 #@! TO.P,J2,10*
G04 #@! TO.N,O2.7*
X31805000Y69650000D03*
G04 #@! TO.P,J2,11*
G04 #@! TO.N,O2.8*
X34345000Y72190000D03*
G04 #@! TO.P,J2,12*
G04 #@! TO.N,O2.9*
X31805000Y72190000D03*
G04 #@! TO.P,J2,13*
G04 #@! TO.N,O2.10*
X34345000Y74730000D03*
G04 #@! TO.P,J2,14*
G04 #@! TO.N,Net-(J2-Pad14)*
X31805000Y74730000D03*
G04 #@! TO.P,J2,15*
G04 #@! TO.N,+3V3*
X34345000Y77270000D03*
G04 #@! TO.P,J2,16*
G04 #@! TO.N,GND*
X31805000Y77270000D03*
G04 #@! TD*
D12*
G04 #@! TO.P,J8,1*
G04 #@! TO.N,+24V*
X14660000Y89970000D03*
D13*
G04 #@! TO.P,J8,2*
G04 #@! TO.N,O2.8*
X19740000Y89970000D03*
G04 #@! TO.P,J8,3*
G04 #@! TO.N,GND*
X24820000Y89970000D03*
G04 #@! TO.P,J8,4*
G04 #@! TO.N,+24V*
X29900000Y89970000D03*
G04 #@! TO.P,J8,5*
G04 #@! TO.N,O2.9*
X34980000Y89970000D03*
G04 #@! TO.P,J8,6*
G04 #@! TO.N,GND*
X40060000Y89970000D03*
G04 #@! TD*
D10*
G04 #@! TO.P,J1,1*
G04 #@! TO.N,GND*
X34980000Y26470000D03*
D11*
G04 #@! TO.P,J1,2*
G04 #@! TO.N,SCL2*
X32440000Y26470000D03*
G04 #@! TO.P,J1,3*
G04 #@! TO.N,+5V*
X34980000Y29010000D03*
G04 #@! TO.P,J1,4*
G04 #@! TO.N,SDA2*
X32440000Y29010000D03*
G04 #@! TO.P,J1,5*
G04 #@! TO.N,A2.4*
X34980000Y31550000D03*
G04 #@! TO.P,J1,6*
G04 #@! TO.N,RX2*
X32440000Y31550000D03*
G04 #@! TO.P,J1,7*
G04 #@! TO.N,A2.3*
X34980000Y34090000D03*
G04 #@! TO.P,J1,8*
G04 #@! TO.N,TX2*
X32440000Y34090000D03*
G04 #@! TO.P,J1,9*
G04 #@! TO.N,A2.2*
X34980000Y36630000D03*
G04 #@! TO.P,J1,10*
G04 #@! TO.N,I2.0*
X32440000Y36630000D03*
G04 #@! TO.P,J1,11*
G04 #@! TO.N,A2.1*
X34980000Y39170000D03*
G04 #@! TO.P,J1,12*
G04 #@! TO.N,I2.1*
X32440000Y39170000D03*
G04 #@! TO.P,J1,13*
G04 #@! TO.N,A2.0*
X34980000Y41710000D03*
G04 #@! TO.P,J1,14*
G04 #@! TO.N,I2.2*
X32440000Y41710000D03*
G04 #@! TO.P,J1,15*
G04 #@! TO.N,I2.4*
X34980000Y44250000D03*
G04 #@! TO.P,J1,16*
G04 #@! TO.N,I2.3*
X32440000Y44250000D03*
G04 #@! TD*
D14*
G04 #@! TO.P,R2,1*
G04 #@! TO.N,A2.1*
X46410000Y41456000D03*
D15*
G04 #@! TO.P,R2,2*
G04 #@! TO.N,GND*
X46410000Y51870000D03*
G04 #@! TD*
D14*
G04 #@! TO.P,R4,1*
G04 #@! TO.N,A2.1*
X50220000Y37265000D03*
D15*
G04 #@! TO.P,R4,2*
G04 #@! TO.N,Net-(J6-Pad2)*
X57840000Y37265000D03*
G04 #@! TD*
D14*
G04 #@! TO.P,R14,1*
G04 #@! TO.N,+5V*
X36885000Y11865000D03*
D15*
G04 #@! TO.P,R14,2*
G04 #@! TO.N,SCL2*
X44505000Y11865000D03*
G04 #@! TD*
D16*
G04 #@! TO.P,F1,1*
G04 #@! TO.N,+24V*
X57840000Y91240000D03*
G04 #@! TO.P,F1,2*
G04 #@! TO.N,Net-(F1-Pad2)*
X57830000Y86160000D03*
G04 #@! TD*
D15*
G04 #@! TO.P,F2,2*
G04 #@! TO.N,Net-(F2-Pad2)*
X55935000Y80445000D03*
D14*
G04 #@! TO.P,F2,1*
G04 #@! TO.N,+5V*
X63555000Y80445000D03*
G04 #@! TD*
D17*
G04 #@! TO.P,J3,2*
G04 #@! TO.N,GND*
X47680000Y89970000D03*
D18*
G04 #@! TO.P,J3,1*
G04 #@! TO.N,Net-(F1-Pad2)*
X52760000Y89970000D03*
G04 #@! TD*
G04 #@! TO.P,J4,1*
G04 #@! TO.N,Net-(F2-Pad2)*
X62920000Y84890000D03*
D17*
G04 #@! TO.P,J4,2*
G04 #@! TO.N,GND*
X62920000Y89970000D03*
G04 #@! TD*
D12*
G04 #@! TO.P,J5,1*
G04 #@! TO.N,+24V*
X5770000Y65840000D03*
D13*
G04 #@! TO.P,J5,2*
G04 #@! TO.N,O2.6*
X5770000Y70920000D03*
G04 #@! TO.P,J5,3*
G04 #@! TO.N,GND*
X5770000Y76000000D03*
G04 #@! TO.P,J5,4*
G04 #@! TO.N,+24V*
X5770000Y81080000D03*
G04 #@! TO.P,J5,5*
G04 #@! TO.N,O2.7*
X5770000Y86160000D03*
G04 #@! TO.P,J5,6*
G04 #@! TO.N,GND*
X5770000Y91240000D03*
G04 #@! TD*
D19*
G04 #@! TO.P,J6,1*
G04 #@! TO.N,+5V*
X62920000Y36910000D03*
D20*
G04 #@! TO.P,J6,2*
G04 #@! TO.N,Net-(J6-Pad2)*
X62920000Y40410000D03*
G04 #@! TO.P,J6,3*
G04 #@! TO.N,Net-(J6-Pad3)*
X62920000Y43910000D03*
G04 #@! TO.P,J6,4*
G04 #@! TO.N,I2.1*
X62920000Y47410000D03*
G04 #@! TO.P,J6,5*
G04 #@! TO.N,I2.0*
X62920000Y50910000D03*
G04 #@! TO.P,J6,6*
G04 #@! TO.N,GND*
X62920000Y54410000D03*
G04 #@! TD*
D19*
G04 #@! TO.P,J7,1*
G04 #@! TO.N,+5V*
X24185000Y6150000D03*
D20*
G04 #@! TO.P,J7,2*
G04 #@! TO.N,TX2*
X27685000Y6150000D03*
G04 #@! TO.P,J7,3*
G04 #@! TO.N,RX2*
X31185000Y6150000D03*
G04 #@! TO.P,J7,4*
G04 #@! TO.N,GND*
X34685000Y6150000D03*
G04 #@! TD*
D13*
G04 #@! TO.P,J9,6*
G04 #@! TO.N,Net-(J9-Pad6)*
X5770000Y30280000D03*
G04 #@! TO.P,J9,5*
G04 #@! TO.N,+24V*
X5770000Y25200000D03*
G04 #@! TO.P,J9,4*
G04 #@! TO.N,Net-(J9-Pad4)*
X5770000Y20120000D03*
G04 #@! TO.P,J9,3*
G04 #@! TO.N,+24V*
X5770000Y15040000D03*
G04 #@! TO.P,J9,2*
G04 #@! TO.N,Net-(J9-Pad2)*
X5770000Y9960000D03*
D12*
G04 #@! TO.P,J9,1*
G04 #@! TO.N,+24V*
X5770000Y4880000D03*
G04 #@! TD*
D20*
G04 #@! TO.P,J10,6*
G04 #@! TO.N,GND*
X62920000Y33175000D03*
G04 #@! TO.P,J10,5*
G04 #@! TO.N,I2.2*
X62920000Y29675000D03*
G04 #@! TO.P,J10,4*
G04 #@! TO.N,I2.3*
X62920000Y26175000D03*
G04 #@! TO.P,J10,3*
G04 #@! TO.N,Net-(J10-Pad3)*
X62920000Y22675000D03*
G04 #@! TO.P,J10,2*
G04 #@! TO.N,Net-(J10-Pad2)*
X62920000Y19175000D03*
D19*
G04 #@! TO.P,J10,1*
G04 #@! TO.N,+5V*
X62920000Y15675000D03*
G04 #@! TD*
D20*
G04 #@! TO.P,J11,4*
G04 #@! TO.N,GND*
X51195000Y6150000D03*
G04 #@! TO.P,J11,3*
G04 #@! TO.N,SCL2*
X47695000Y6150000D03*
G04 #@! TO.P,J11,2*
G04 #@! TO.N,SDA2*
X44195000Y6150000D03*
D19*
G04 #@! TO.P,J11,1*
G04 #@! TO.N,+5V*
X40695000Y6150000D03*
G04 #@! TD*
G04 #@! TO.P,J12,1*
G04 #@! TO.N,+5V*
X62920000Y58220000D03*
D20*
G04 #@! TO.P,J12,2*
X62920000Y61720000D03*
G04 #@! TO.P,J12,3*
G04 #@! TO.N,I2.4*
X62920000Y65220000D03*
G04 #@! TO.P,J12,4*
G04 #@! TO.N,O2.10*
X62920000Y68720000D03*
G04 #@! TO.P,J12,5*
G04 #@! TO.N,GND*
X62920000Y72220000D03*
G04 #@! TO.P,J12,6*
X62920000Y75720000D03*
G04 #@! TD*
D13*
G04 #@! TO.P,J13,6*
G04 #@! TO.N,Net-(J13-Pad6)*
X5770000Y60760000D03*
G04 #@! TO.P,J13,5*
G04 #@! TO.N,+24V*
X5770000Y55680000D03*
G04 #@! TO.P,J13,4*
G04 #@! TO.N,Net-(J13-Pad4)*
X5770000Y50600000D03*
G04 #@! TO.P,J13,3*
G04 #@! TO.N,+24V*
X5770000Y45520000D03*
G04 #@! TO.P,J13,2*
G04 #@! TO.N,Net-(J13-Pad2)*
X5770000Y40440000D03*
D12*
G04 #@! TO.P,J13,1*
G04 #@! TO.N,+24V*
X5770000Y35360000D03*
G04 #@! TD*
D21*
G04 #@! TO.P,Q1,3*
G04 #@! TO.N,GND*
X14660000Y12500000D03*
G04 #@! TO.P,Q1,2*
G04 #@! TO.N,Net-(J9-Pad2)*
X14660000Y9960000D03*
D22*
G04 #@! TO.P,Q1,1*
G04 #@! TO.N,O2.0*
X14660000Y7420000D03*
G04 #@! TD*
G04 #@! TO.P,Q2,1*
G04 #@! TO.N,O2.1*
X14660000Y20120000D03*
D21*
G04 #@! TO.P,Q2,2*
G04 #@! TO.N,Net-(J9-Pad4)*
X14660000Y22660000D03*
G04 #@! TO.P,Q2,3*
G04 #@! TO.N,GND*
X14660000Y25200000D03*
G04 #@! TD*
D22*
G04 #@! TO.P,Q3,1*
G04 #@! TO.N,O2.2*
X14660000Y32820000D03*
D21*
G04 #@! TO.P,Q3,2*
G04 #@! TO.N,Net-(J9-Pad6)*
X14660000Y35360000D03*
G04 #@! TO.P,Q3,3*
G04 #@! TO.N,GND*
X14660000Y37900000D03*
G04 #@! TD*
G04 #@! TO.P,Q4,3*
G04 #@! TO.N,GND*
X14660000Y50600000D03*
G04 #@! TO.P,Q4,2*
G04 #@! TO.N,Net-(J13-Pad2)*
X14660000Y48060000D03*
D22*
G04 #@! TO.P,Q4,1*
G04 #@! TO.N,O2.3*
X14660000Y45520000D03*
G04 #@! TD*
G04 #@! TO.P,Q5,1*
G04 #@! TO.N,O2.4*
X14660000Y58220000D03*
D21*
G04 #@! TO.P,Q5,2*
G04 #@! TO.N,Net-(J13-Pad4)*
X14660000Y60760000D03*
G04 #@! TO.P,Q5,3*
G04 #@! TO.N,GND*
X14660000Y63300000D03*
G04 #@! TD*
G04 #@! TO.P,Q6,3*
G04 #@! TO.N,GND*
X14660000Y76000000D03*
G04 #@! TO.P,Q6,2*
G04 #@! TO.N,Net-(J13-Pad6)*
X14660000Y73460000D03*
D22*
G04 #@! TO.P,Q6,1*
G04 #@! TO.N,O2.5*
X14660000Y70920000D03*
G04 #@! TD*
D14*
G04 #@! TO.P,R1,1*
G04 #@! TO.N,O2.0*
X18470000Y4880000D03*
D15*
G04 #@! TO.P,R1,2*
G04 #@! TO.N,GND*
X18470000Y12500000D03*
G04 #@! TD*
D14*
G04 #@! TO.P,R3,1*
G04 #@! TO.N,A2.0*
X43235000Y43615000D03*
D15*
G04 #@! TO.P,R3,2*
G04 #@! TO.N,GND*
X43235000Y51235000D03*
G04 #@! TD*
G04 #@! TO.P,R5,2*
G04 #@! TO.N,Net-(J6-Pad3)*
X57840000Y40440000D03*
D14*
G04 #@! TO.P,R5,1*
G04 #@! TO.N,A2.0*
X50220000Y40440000D03*
G04 #@! TD*
G04 #@! TO.P,R6,1*
G04 #@! TO.N,O2.1*
X18470000Y18850000D03*
D15*
G04 #@! TO.P,R6,2*
G04 #@! TO.N,GND*
X18470000Y26470000D03*
G04 #@! TD*
G04 #@! TO.P,R7,2*
G04 #@! TO.N,GND*
X18470000Y39170000D03*
D14*
G04 #@! TO.P,R7,1*
G04 #@! TO.N,O2.2*
X18470000Y31550000D03*
G04 #@! TD*
D15*
G04 #@! TO.P,R8,2*
G04 #@! TO.N,GND*
X46410000Y29010000D03*
D14*
G04 #@! TO.P,R8,1*
G04 #@! TO.N,A2.3*
X46410000Y21390000D03*
G04 #@! TD*
G04 #@! TO.P,R9,1*
G04 #@! TO.N,A2.2*
X50220000Y29010000D03*
D15*
G04 #@! TO.P,R9,2*
G04 #@! TO.N,GND*
X57840000Y29010000D03*
G04 #@! TD*
G04 #@! TO.P,R10,2*
G04 #@! TO.N,Net-(J10-Pad2)*
X57840000Y20120000D03*
D14*
G04 #@! TO.P,R10,1*
G04 #@! TO.N,A2.3*
X50220000Y20120000D03*
G04 #@! TD*
D15*
G04 #@! TO.P,R11,2*
G04 #@! TO.N,Net-(J10-Pad3)*
X57840000Y23930000D03*
D14*
G04 #@! TO.P,R11,1*
G04 #@! TO.N,A2.2*
X50220000Y23930000D03*
G04 #@! TD*
D15*
G04 #@! TO.P,R12,2*
G04 #@! TO.N,GND*
X18470000Y51870000D03*
D14*
G04 #@! TO.P,R12,1*
G04 #@! TO.N,O2.3*
X18470000Y44250000D03*
G04 #@! TD*
D15*
G04 #@! TO.P,R13,2*
G04 #@! TO.N,SDA2*
X33710000Y16945000D03*
D14*
G04 #@! TO.P,R13,1*
G04 #@! TO.N,+5V*
X26090000Y16945000D03*
G04 #@! TD*
G04 #@! TO.P,R15,1*
G04 #@! TO.N,A2.4*
X42600000Y16310000D03*
D15*
G04 #@! TO.P,R15,2*
G04 #@! TO.N,GND*
X50220000Y16310000D03*
G04 #@! TD*
D14*
G04 #@! TO.P,R16,1*
G04 #@! TO.N,O2.4*
X18470000Y56950000D03*
D15*
G04 #@! TO.P,R16,2*
G04 #@! TO.N,GND*
X18470000Y64570000D03*
G04 #@! TD*
D14*
G04 #@! TO.P,R17,1*
G04 #@! TO.N,A2.4*
X35615000Y20120000D03*
D15*
G04 #@! TO.P,R17,2*
G04 #@! TO.N,+24V*
X27995000Y20120000D03*
G04 #@! TD*
D14*
G04 #@! TO.P,R18,1*
G04 #@! TO.N,O2.5*
X18470000Y69650000D03*
D15*
G04 #@! TO.P,R18,2*
G04 #@! TO.N,GND*
X18470000Y77270000D03*
G04 #@! TD*
D14*
G04 #@! TO.P,R19,1*
G04 #@! TO.N,+5V*
X34980000Y13770000D03*
D15*
G04 #@! TO.P,R19,2*
G04 #@! TO.N,TX2*
X27360000Y13770000D03*
G04 #@! TD*
G04 #@! TO.P,R20,2*
G04 #@! TO.N,RX2*
X33075000Y10595000D03*
D14*
G04 #@! TO.P,R20,1*
G04 #@! TO.N,+5V*
X25455000Y10595000D03*
G04 #@! TD*
D23*
G04 #@! TO.N,+5V*
X41330000Y59490000D03*
X57205000Y59490000D03*
G04 #@! TO.N,I2.4*
X40060000Y44113601D03*
X40060000Y53140000D03*
G04 #@! TO.N,A2.4*
X39974498Y18764498D03*
X40227930Y27996116D03*
G04 #@! TO.N,GND*
X41330000Y62665000D03*
X21645000Y84255000D03*
X21645000Y77270000D03*
X21645000Y72190000D03*
X21645000Y66475000D03*
X21645000Y60760000D03*
X21645000Y55045000D03*
X21645000Y52505000D03*
X21645000Y41075000D03*
X21645000Y34090000D03*
X21645000Y27105000D03*
X21010000Y23295000D03*
X21010000Y16310000D03*
X37520000Y1510000D03*
X37520000Y6150000D03*
X50220000Y62665000D03*
X50220000Y57585000D03*
X50220000Y52505000D03*
X57840000Y34090000D03*
X48110001Y34090000D03*
X55935000Y1664662D03*
X67695010Y11230000D03*
X55935000Y6150000D03*
X62920000Y11230000D03*
G04 #@! TO.N,O2.4*
X46410000Y72825000D03*
X46410000Y80445000D03*
X24820000Y82350000D03*
X24820000Y68380000D03*
G04 #@! TO.N,O2.6*
X43235000Y72825000D03*
X43235000Y80445000D03*
X10215000Y73400000D03*
X10215000Y83620000D03*
G04 #@! TO.N,O2.8*
X49585000Y72825000D03*
X49585000Y80445000D03*
G04 #@! TO.N,O2.2*
X28630000Y49330000D03*
X23550000Y48695000D03*
G04 #@! TD*
D24*
G04 #@! TO.N,+5V*
X54665000Y59490000D02*
X57205000Y59490000D01*
X41330000Y59490000D02*
X54665000Y59490000D01*
D25*
G04 #@! TO.N,I2.4*
X40060000Y51235000D02*
X40060000Y51513629D01*
X40060000Y44113601D02*
X40060000Y51513629D01*
G04 #@! TO.N,A2.4*
X40227930Y28207070D02*
X40227930Y27996116D01*
X39974498Y28460502D02*
X40227930Y28207070D01*
X39974498Y18764498D02*
X40227930Y27996116D01*
D26*
G04 #@! TO.N,GND*
X21645000Y77270000D02*
X21645000Y84255000D01*
X21645000Y72190000D02*
X21645000Y66475000D01*
X21645000Y60760000D02*
X21645000Y55045000D01*
X21645000Y42489213D02*
X21645000Y41075000D01*
X21645000Y44627002D02*
X21645000Y42489213D01*
X20645001Y45627001D02*
X21645000Y44627002D01*
X20645001Y51505001D02*
X20645001Y45627001D01*
X21645000Y52505000D02*
X20645001Y51505001D01*
X21645000Y34090000D02*
X21645000Y27105000D01*
D24*
X37520000Y6150000D02*
X37520000Y1510000D01*
D25*
X50220000Y52505000D02*
X50220000Y57585000D01*
X42744213Y62665000D02*
X50220000Y62665000D01*
X41330000Y62665000D02*
X42744213Y62665000D01*
X57840000Y34090000D02*
X48110001Y34090000D01*
X62920000Y11230000D02*
X67695010Y11230000D01*
X55935000Y6150000D02*
X55935000Y1664662D01*
D26*
X21010000Y23295000D02*
X21010000Y16310000D01*
D25*
G04 #@! TO.N,O2.4*
X46410000Y72825000D02*
X46410000Y80445000D01*
X24820000Y82350000D02*
X24820000Y68380000D01*
G04 #@! TO.N,O2.6*
X43235000Y72825000D02*
X43235000Y80445000D01*
X10215000Y73400000D02*
X10215000Y83620000D01*
G04 #@! TO.N,O2.8*
X49585000Y72825000D02*
X49585000Y80445000D01*
G04 #@! TO.N,O2.2*
X27995000Y48695000D02*
X28630000Y49330000D01*
X23550000Y48695000D02*
X27995000Y48695000D01*
G04 #@! TD*
M02*
