M48
;DRILL file {KiCad (5.0.1)-4} date 02/11/2019 17:50:30
;FORMAT={-:-/ absolute / metric / decimal}
FMAT,2
METRIC,TZ
T1C0.700
T2C0.800
T3C1.000
T4C1.016
T5C1.100
T6C1.200
T7C1.300
T8C1.501
%
G90
G05
M71
T1
X10.215Y83.62
X10.215Y73.4
X21.01Y23.295
X21.01Y16.31
X21.645Y84.255
X21.645Y77.27
X21.645Y72.19
X21.645Y66.475
X21.645Y60.76
X21.645Y55.045
X21.645Y52.505
X21.645Y41.075
X21.645Y34.09
X21.645Y27.105
X23.55Y48.695
X24.82Y82.35
X24.82Y68.38
X28.63Y49.33
X37.52Y6.15
X37.52Y1.51
X39.974Y18.764
X40.06Y53.14
X40.06Y44.114
X40.228Y27.996
X41.33Y62.665
X41.33Y59.49
X43.235Y80.445
X43.235Y72.825
X46.41Y80.445
X46.41Y72.825
X48.11Y34.09
X49.585Y80.445
X49.585Y72.825
X50.22Y62.665
X50.22Y57.585
X50.22Y52.505
X55.935Y6.15
X55.935Y1.665
X57.205Y59.49
X57.84Y34.09
X62.92Y11.23
X67.695Y11.23
T2
X18.47Y51.87
X18.47Y44.25
X27.36Y13.77
X34.98Y13.77
X42.6Y16.31
X50.22Y16.31
X50.22Y23.93
X57.84Y23.93
X36.885Y11.865
X44.505Y11.865
X50.22Y37.265
X57.84Y37.265
X50.22Y20.12
X57.84Y20.12
X46.41Y29.01
X46.41Y21.39
X25.455Y10.595
X33.075Y10.595
X26.09Y16.945
X33.71Y16.945
X50.22Y40.44
X57.84Y40.44
X46.41Y51.87
X46.41Y41.456
X18.47Y77.27
X18.47Y69.65
X18.47Y12.5
X18.47Y4.88
X50.22Y29.01
X57.84Y29.01
X18.47Y64.57
X18.47Y56.95
X43.235Y51.235
X43.235Y43.615
X18.47Y26.47
X18.47Y18.85
X55.935Y80.445
X63.555Y80.445
X27.995Y20.12
X35.615Y20.12
X18.47Y39.17
X18.47Y31.55
T3
X57.83Y86.16
X57.84Y91.24
T4
X31.805Y77.27
X31.805Y74.73
X31.805Y72.19
X31.805Y69.65
X31.805Y67.11
X31.805Y64.57
X31.805Y62.03
X31.805Y59.49
X34.345Y77.27
X34.345Y74.73
X34.345Y72.19
X34.345Y69.65
X34.345Y67.11
X34.345Y64.57
X34.345Y62.03
X34.345Y59.49
X32.44Y44.25
X32.44Y41.71
X32.44Y39.17
X32.44Y36.63
X32.44Y34.09
X32.44Y31.55
X32.44Y29.01
X32.44Y26.47
X34.98Y44.25
X34.98Y41.71
X34.98Y39.17
X34.98Y36.63
X34.98Y34.09
X34.98Y31.55
X34.98Y29.01
X34.98Y26.47
T5
X14.66Y12.5
X14.66Y9.96
X14.66Y7.42
X14.66Y25.2
X14.66Y22.66
X14.66Y20.12
X14.66Y50.6
X14.66Y48.06
X14.66Y45.52
X14.66Y76.
X14.66Y73.46
X14.66Y70.92
X14.66Y63.3
X14.66Y60.76
X14.66Y58.22
X14.66Y37.9
X14.66Y35.36
X14.66Y32.82
T6
X24.185Y6.15
X27.685Y6.15
X31.185Y6.15
X34.685Y6.15
X62.92Y54.41
X62.92Y50.91
X62.92Y47.41
X62.92Y43.91
X62.92Y40.41
X62.92Y36.91
X40.695Y6.15
X44.195Y6.15
X47.695Y6.15
X51.195Y6.15
X62.92Y33.175
X62.92Y29.675
X62.92Y26.175
X62.92Y22.675
X62.92Y19.175
X62.92Y15.675
X62.92Y75.72
X62.92Y72.22
X62.92Y68.72
X62.92Y65.22
X62.92Y61.72
X62.92Y58.22
T7
X5.77Y60.76
X5.77Y55.68
X5.77Y50.6
X5.77Y45.52
X5.77Y40.44
X5.77Y35.36
X5.77Y30.28
X5.77Y25.2
X5.77Y20.12
X5.77Y15.04
X5.77Y9.96
X5.77Y4.88
X5.77Y91.24
X5.77Y86.16
X5.77Y81.08
X5.77Y76.
X5.77Y70.92
X5.77Y65.84
X14.66Y89.97
X19.74Y89.97
X24.82Y89.97
X29.9Y89.97
X34.98Y89.97
X40.06Y89.97
T8
X62.92Y89.97
X62.92Y84.89
X47.68Y89.97
X52.76Y89.97
T0
M30
